<?xml version="1.0" encoding="UTF-8"?>
<COLLADA xmlns="http://www.collada.org/2008/03/COLLADASchema" version="1.5.0">
	<asset>
		<contributor>
			<author>DENSO WAVE</author>
			<comments/>
		</contributor>
		<unit/>
		<up_axis>Y_UP</up_axis>
	</asset>
	<library_materials>
		<material id="blinn20.material" name="blinn20">
			<instance_effect url="#blinn20.effect"/>
		</material>
		<material id="blinn21.material" name="blinn21">
			<instance_effect url="#blinn21.effect"/>
		</material>
		<material id="blinn22.material" name="blinn22">
			<instance_effect url="#blinn22.effect"/>
		</material>
		<material id="blinn23.material" name="blinn23">
			<instance_effect url="#blinn23.effect"/>
		</material>
		<material id="blinn24.material" name="blinn24">
			<instance_effect url="#blinn24.effect"/>
		</material>
		<material id="blinn25.material" name="blinn25">
			<instance_effect url="#blinn25.effect"/>
		</material>
	</library_materials>
	<library_effects>
		<effect id="blinn20.effect">
			<profile_COMMON>
				<technique sid="common">
					<phong>
						<emission>
							<color>0.04 0.04 0.04 1</color>
						</emission>
						<diffuse>
							<color>1 1 1 1</color>
						</diffuse>
						<specular>
							<color>0.2 0.2 0.2 1</color>
						</specular>
					</phong>
				</technique>
			</profile_COMMON>
		</effect>
		<effect id="blinn21.effect">
			<profile_COMMON>
				<technique sid="common">
					<phong>
						<emission>
							<color>0.04 0.04 0.04 1</color>
						</emission>
						<diffuse>
							<color>0.2 0.2 0.2 1</color>
						</diffuse>
						<specular>
							<color>0.2 0.2 0.2 1</color>
						</specular>
					</phong>
				</technique>
			</profile_COMMON>
		</effect>
		<effect id="blinn22.effect">
			<profile_COMMON>
				<technique sid="common">
					<phong>
						<emission>
							<color>0.04 0.04 0.04 1</color>
						</emission>
						<diffuse>
							<color>0.4 0.4 0.4 1</color>
						</diffuse>
						<specular>
							<color>0.2 0.2 0.2 1</color>
						</specular>
					</phong>
				</technique>
			</profile_COMMON>
		</effect>
		<effect id="blinn23.effect">
			<profile_COMMON>
				<technique sid="common">
					<phong>
						<emission>
							<color>0.04 0.04 0.04 1</color>
						</emission>
						<diffuse>
							<color>1 1 1 1</color>
						</diffuse>
						<specular>
							<color>0.2 0.2 0.2 1</color>
						</specular>
					</phong>
				</technique>
			</profile_COMMON>
		</effect>
		<effect id="blinn24.effect">
			<profile_COMMON>
				<technique sid="common">
					<phong>
						<emission>
							<color>0.04 0.04 0.04 1</color>
						</emission>
						<diffuse>
							<color>1 1 1 1</color>
						</diffuse>
						<specular>
							<color>0.2 0.2 0.2 1</color>
						</specular>
					</phong>
				</technique>
			</profile_COMMON>
		</effect>
		<effect id="blinn25.effect">
			<profile_COMMON>
				<technique sid="common">
					<phong>
						<emission>
							<color>0.04 0.04 0.04 1</color>
						</emission>
						<diffuse>
							<color>1 1 1 1</color>
						</diffuse>
						<specular>
							<color>0.2 0.2 0.2 1</color>
						</specular>
					</phong>
				</technique>
			</profile_COMMON>
		</effect>
	</library_effects>
	<library_geometries>
		<geometry id="base2_M1KShape0" name="base2_M1KShape0">
			<mesh>
				<source id="base2_M1KShape0.positions">
					<float_array id="base2_M1KShape0.positions-array" count="183" digits="2490374">-0.157381 0.0654376 0.179137 -0.154012 0.0655161 0.184614 -0.157777 0.0165232 0.184982 -0.157381 -0.0654376 0.179137 -0.157175 -0.0319422 0.18453 -0.154012 -0.0655161 0.184614 -0.153697 0.0311803 0.186895 -0.154215 -0.0140674 0.187388 -0.159448 0.0170934 0.181253 -0.158988 -0.0327299 0.180745 -0.0963128 -0.0670391 0.194702 -0.0987157 -0.0493858 0.195572 -0.0878802 -0.0688056 0.195054 -0.118609 -0.036716 0.192935 -0.1098 -0.0106018 0.195583 -0.140116 -0.0367147 0.189681 -0.118773 2.5e-08 0.193611 -0.14044 4.2e-08 0.190412 -0.118609 0.0367161 0.192935 -0.140116 0.0367148 0.189681 -0.107978 0.020059 0.195627 -0.102552 0.0392969 0.195566 -0.0964071 0.067037 0.194718 -0.0937234 0.0572264 0.195371 -0.130456 0.0661597 0.190823 -0.0885004 0.0684708 0.19504 -0.0816701 0.0733764 0.194965 -0.130869 -0.06613 0.190769 -0.08167 -0.0733764 0.194965 -0.157381 -0.0654376 0.179137 -0.154012 -0.0655161 0.184614 -0.155 -0.0655 0.179133 -0.0988785 -0.0669696 0.0040487 -0.157959 -0.0654204 0.00400362 -0.0988785 -0.0669696 0.015 -0.0963128 -0.0670391 0.194702 -0.0796736 -0.0674725 0.015 -0.0791413 -0.0674865 0.0264928 -0.130869 -0.06613 0.190769 -0.0745712 0.0735517 0.111808 -0.0816701 0.0733764 0.194965 -0.0777832 0.0707938 0.110163 -0.0664157 0.0725299 0.029 -0.0839047 0.0681807 0.116901 -0.0885004 0.0684708 0.19504 -0.0964071 0.067037 0.194718 -0.0776441 0.0675343 0.0150138 -0.072618 0.0688457 0.0284167 -0.157381 0.0654376 0.179137 -0.155153 0.0654932 0.178657 -0.154012 0.0655161 0.184614 -0.0988785 0.0669696 0.0040487 -0.0988785 0.0669696 0.015 -0.130456 0.0661597 0.190823 -0.157855 0.0654063 0.00400145 -0.0843291 -0.0682043 0.122601 -0.0724591 -0.0688434 0.0282609 -0.0762681 -0.0717881 0.108018 -0.0664157 -0.0725299 0.029 -0.0878802 -0.0688056 0.195054 -0.08167 -0.0733764 0.194965</float_array>
					<technique_common>
						<accessor count="61" source="#base2_M1KShape0.positions-array" stride="3">
							<param name="X" type="float"/>
							<param name="Y" type="float"/>
							<param name="Z" type="float"/>
						</accessor>
					</technique_common>
				</source>
				<source id="base2_M1KShape0.normals">
					<float_array id="base2_M1KShape0.normals-array" count="183" digits="2490374">-0.981389 0.075893 0.176396 -0.431696 0.077477 0.898686 -0.76259 0.025514 0.646379 -0.981389 -0.075896 0.176397 -0.750032 -0.046334 0.659777 -0.431684 -0.077477 0.898691 -0.328598 0.042607 0.943508 -0.329809 -0.021538 0.943802 -0.982919 0.020942 0.182843 -0.98347 -0.038 0.17704 -0.107397 -0.061416 0.992317 -0.10847 -0.045867 0.993041 -0.084888 -0.060592 0.994546 -0.13217 -0.037706 0.99051 -0.117502 -0.010265 0.99302 -0.17266 -0.04224 0.984075 -0.128902 0 0.991657 -0.169132 0 0.985593 -0.13217 0.037706 0.99051 -0.17266 0.04224 0.984075 -0.116044 0.01948 0.993053 -0.111355 0.037155 0.993086 -0.107779 0.061491 0.992271 -0.099607 0.051801 0.993678 -0.149529 0.072374 0.986105 -0.087982 0.060449 0.994286 -0.031363 0.063391 0.997496 -0.149294 -0.072701 0.986117 -0.031361 -0.063391 0.997496 -0.026178 -0.999657 0 -0.026178 -0.999657 0 -0.026178 -0.999657 0 -0.026178 -0.999657 0 -0.026154 -0.999658 2e-06 -0.026178 -0.999657 0 -0.027237 -0.999629 -8e-05 -0.026178 -0.999657 0 -0.026178 -0.999657 0 -0.026065 -0.99966 9e-06 -0.709322 0.701473 -0.069265 -0.742832 0.667389 -0.052842 -0.548779 0.834345 -0.052058 -0.673076 0.735043 -0.081734 -0.302868 0.952649 -0.027046 -0.378314 0.92535 -0.024615 -0.027626 0.999618 -0.000104 -0.031166 0.999514 7.9e-05 -0.344714 0.937687 -0.043766 -0.026177 0.999657 0 -0.026081 0.99966 -2e-06 -0.026177 0.999657 0 -0.026177 0.999657 0 -0.026177 0.999657 0 -0.026315 0.999654 -1e-05 0.001861 0.837849 -0.545899 -0.308696 -0.950817 -0.025587 -0.350354 -0.935554 -0.044628 -0.672015 -0.737723 -0.064514 -0.673047 -0.735009 -0.082281 -0.418011 -0.907942 -0.030149 -0.742823 -0.667361 -0.053323</float_array>
					<technique_common>
						<accessor count="61" source="#base2_M1KShape0.normals-array" stride="3">
							<param name="X" type="float"/>
							<param name="Y" type="float"/>
							<param name="Z" type="float"/>
						</accessor>
					</technique_common>
				</source>
				<vertices id="base2_M1KShape0.vertices">
					<input semantic="POSITION" source="#base2_M1KShape0.positions"/>
				</vertices>
				<triangles count="68" material="blinn20.material">
					<input offset="0" semantic="VERTEX" source="#base2_M1KShape0.vertices" set="0"/>
					<input offset="1" semantic="NORMAL" source="#base2_M1KShape0.normals" set="0"/>
					<p>0 0 2 2 1 1 3 3 5 5 4 4 6 6 1 1 2 2 7 7 6 6 2 2 4 4 7 7 2 2 5 5 7 7 4 4 8 8 2 2 0 0 9 9 2 2 8 8 4 4 2 2 9 9 3 3 4 4 9 9 10 10 12 12 11 11 11 11 14 14 13 13 13 13 16 16 15 15 17 17 15 15 16 16 16 16 18 18 17 17 19 19 17 17 18 18 19 19 6 6 17 17 13 13 14 14 16 16 18 18 16 16 20 20 20 20 21 21 18 18 14 14 20 20 16 16 22 22 24 24 23 23 22 22 23 23 25 25 18 18 24 24 19 19 18 18 21 21 24 24 23 23 24 24 21 21 24 24 1 1 19 19 6 6 19 19 1 1 26 26 25 25 23 23 15 15 17 17 7 7 7 7 17 17 6 6 7 7 5 5 15 15 5 5 27 27 15 15 13 13 15 15 27 27 27 27 10 10 13 13 28 28 11 11 12 12 13 13 10 10 11 11 29 29 31 31 30 30 32 32 34 34 33 33 33 33 35 35 31 31 36 36 37 37 34 34 37 37 35 35 34 34 33 33 34 34 35 35 35 35 38 38 31 31 38 38 30 30 31 31 39 39 41 41 40 40 42 42 41 41 39 39 43 43 45 45 44 44 46 46 45 45 43 43 44 44 40 40 41 41 43 43 44 44 41 41 47 47 41 41 42 42 43 43 41 41 47 47 46 46 43 43 47 47 48 48 50 50 49 49 51 51 49 49 52 52 45 45 49 49 53 53 50 50 53 53 49 49 54 54 49 49 51 51 45 45 46 46 49 49 46 46 52 52 49 49 35 35 37 37 55 55 56 56 58 58 57 57 55 55 56 56 57 57 56 56 55 55 37 37 59 59 57 57 60 60 55 55 57 57 59 59 35 35 55 55 59 59</p>
				</triangles>
			</mesh>
		</geometry>
		<geometry id="base2_M1KShape1" name="base2_M1KShape1">
			<mesh>
				<source id="base2_M1KShape1.positions">
					<float_array id="base2_M1KShape1.positions-array" count="336" digits="2490374">-0.1836 0.050288 0.0281664 -0.1836 0.0429476 0.0165252 -0.1643 0.0490017 0.0245773 -0.1643 0.050455 0.031775 -0.1643 0.0418428 0.0157906 -0.1836 0.032025 0.0133 -0.1836 0.0217124 0.0162062 -0.1643 0.0248504 0.0147386 -0.1643 0.032025 0.0133 -0.1836 0.0150178 0.0245313 -0.1643 0.0164955 0.0214022 -0.1643 0.013545 0.0317251 -0.1836 0.0137121 0.0353336 -0.1836 0.0489822 0.0389687 -0.1836 0.0137121 0.0353336 -0.1836 0.050288 0.0281664 -0.1836 0.0150178 0.0245313 -0.1836 0.0189476 0.0447847 -0.1836 0.0248043 0.048742 -0.1836 0.0355944 0.0500327 -0.1836 0.045017 0.0448201 -0.1836 0.0429476 0.0165252 -0.1836 0.032025 0.0133 -0.1836 0.0217124 0.0162062 -0.1836 0.014492 0.0724038 -0.1836 0.045508 0.0855962 -0.1836 0.0133275 0.0829287 -0.1836 0.0466725 0.0750713 -0.1836 0.0210092 0.0935744 -0.1836 0.029975 0.09585 -0.1836 0.0393929 0.0931974 -0.1836 0.0419213 0.0670964 -0.1836 0.0333298 0.0623121 -0.1836 0.0210526 0.0643989 -0.1836 0.0419213 0.0670964 -0.1643 0.044186 0.0695888 -0.1836 0.0466725 0.0750713 -0.1643 0.046855 0.0790249 -0.1836 0.0333298 0.0623121 -0.1643 0.0365731 0.0634822 -0.1836 0.0210526 0.0643989 -0.1643 0.030025 0.06215 -0.1643 0.0234729 0.0634628 -0.1836 0.014492 0.0724038 -0.1643 0.0158418 0.0695469 -0.1643 0.013145 0.078975 -0.1836 0.0133275 0.0829287 -0.1836 0.0393929 0.0931974 -0.1836 0.045508 0.0855962 -0.1643 0.0438916 0.0890173 -0.1643 0.0326808 0.095912 -0.1643 0.0234269 0.0945178 -0.1836 0.0210092 0.0935744 -0.1836 0.029975 0.09585 -0.1643 0.0154105 0.0879671 -0.1836 0.0489822 0.0389687 -0.1643 0.0475045 0.0420978 -0.1643 0.0391496 0.0487614 -0.1836 0.045017 0.0448201 -0.1643 0.031975 0.0502 -0.1836 0.0355944 0.0500327 -0.1643 0.0216706 0.047266 -0.1836 0.0248043 0.048742 -0.1643 0.0149983 0.0389227 -0.1836 0.0189476 0.0447847 -0.1643 0.0115798 0.0113298 -0.1643 0.0114789 0.0521586 -0.160779 0.0113492 0.0115036 -0.160777 0.0113499 0.051993 -0.16155 0.0527911 0.0110956 -0.161522 0.0526386 0.0523976 -0.1643 0.0525144 0.0112356 -0.1643 0.0524086 0.0522711 -0.1643 0.0490017 0.0245773 -0.1643 0.0525144 0.0112356 -0.1643 0.050455 0.031775 -0.1643 0.0524086 0.0522711 -0.1643 0.0475045 0.0420978 -0.1643 0.0114789 0.0521586 -0.1643 0.031975 0.0502 -0.1643 0.0391496 0.0487614 -0.1643 0.0216706 0.047266 -0.1643 0.0149983 0.0389227 -0.1643 0.013545 0.0317251 -0.1643 0.0115798 0.0113298 -0.1643 0.0164955 0.0214022 -0.1643 0.032025 0.0133 -0.1643 0.0248504 0.0147386 -0.1643 0.0418428 0.0157906 -0.1643 0.044186 0.0695888 -0.1643 0.0489139 0.0600861 -0.1643 0.046855 0.0790249 -0.1643 0.0488009 0.0979217 -0.1643 0.0438916 0.0890173 -0.1643 0.0110784 0.0978009 -0.1643 0.0326808 0.095912 -0.1643 0.0234269 0.0945178 -0.1643 0.0154105 0.0879671 -0.1643 0.013145 0.078975 -0.1643 0.0111857 0.0601857 -0.1643 0.0158418 0.0695469 -0.1643 0.030025 0.06215 -0.1643 0.0234729 0.0634628 -0.1643 0.0365731 0.0634822 -0.16023 0.0495352 0.0983684 -0.160734 0.0109769 0.0975484 -0.1643 0.0488009 0.0979217 -0.1643 0.0110784 0.0978009 -0.160299 0.0496525 0.059731 -0.1643 0.0489139 0.0600861 -0.16073 0.0109728 0.0604541 -0.1643 0.0111857 0.0601857</float_array>
					<technique_common>
						<accessor count="112" source="#base2_M1KShape1.positions-array" stride="3">
							<param name="X" type="float"/>
							<param name="Y" type="float"/>
							<param name="Z" type="float"/>
						</accessor>
					</technique_common>
				</source>
				<source id="base2_M1KShape1.normals">
					<float_array id="base2_M1KShape1.normals-array" count="336" digits="2490374">0 0.981286 -0.192557 0 0.58405 -0.811718 0 0.921186 -0.389123 -0 0.999999 0.001373 0 0.525282 -0.850928 0 0.001384 -0.999999 0 -0.552206 -0.833708 0 -0.387866 -0.921716 0 0.001384 -0.999999 0 -0.920134 -0.391603 0 -0.831584 -0.555399 -0 -0.999999 -0.001379 -0 -0.981284 0.192566 -1 0 0 -1 0 0 -1 0 0 -1 0 0 -1 0 0 -1 0 0 -1 0 0 -1 0 0 -1 0 0 -1 0 0 -1 0 0 -1 0 0 -1 0 0 -1 0 0 -1 0 0 -1 0 0 -1 0 0 -1 0 0 -1 0 0 -1 0 0 -1 0 0 0 0.707641 -0.706572 0 0.833114 -0.553101 -0 0.973262 -0.229698 -0 0.999999 0.001512 0 0.195935 -0.980617 0 0.390434 -0.920631 0 -0.522846 -0.852427 0 0.001515 -0.999999 0 -0.387718 -0.921778 -0 -0.920047 -0.391809 0 -0.831479 -0.555557 -0 -0.999999 -0.001505 -0 -0.973264 0.22969 0 0.552056 0.833807 0 0.920047 0.391809 -0 0.810939 0.58513 0 0.156743 0.987639 -0 -0.390434 0.920631 -0 -0.525371 0.850873 -0 -0.001515 0.999999 -0 -0.851736 0.523971 0 0.920134 0.391603 0 0.831584 0.555399 -0 0.387866 0.921716 0 0.705665 0.708546 -0 -0.001384 0.999999 -0 0.193143 0.981171 -0 -0.554446 0.832219 -0 -0.390347 0.920668 -0 -0.921186 0.389123 -0 -0.707595 0.706619 -0 -0.705409 -0.7088 -0 -0.876524 0.481357 -0 -0.706778 -0.707435 -0 -0.394968 0.918695 0 0.706735 -0.707478 -0 0.87315 0.487452 0 0.708548 -0.705662 -0 0.480903 0.876774 -1 0 0 -1 0 0 -1 0 0 -1 0 0 -1 0 0 -1 0 0 -1 0 0 -1 0 0 -1 0 0 -1 0 0 -1 0 0 -1 0 0 -1 0 0 -1 0 0 -1 0 0 -1 0 0 -1 0 0 -1 0 0 -1 0 0 -1 0 0 -1 0 0 -1 0 0 -1 0 0 -1 0 0 -1 0 0 -1 0 0 -1 0 0 -1 0 0 -1 0 0 -1 0 0 -1 0 0 -0 0.972605 0.232465 -0 -0.413036 0.910715 -0 0.483935 0.875104 -0 -0.875988 0.482333 0 0.708367 -0.705844 0 0.70869 -0.70552 -0 -0.707786 -0.706427 -0 -0.705187 -0.709022</float_array>
					<technique_common>
						<accessor count="112" source="#base2_M1KShape1.normals-array" stride="3">
							<param name="X" type="float"/>
							<param name="Y" type="float"/>
							<param name="Z" type="float"/>
						</accessor>
					</technique_common>
				</source>
				<vertices id="base2_M1KShape1.vertices">
					<input semantic="POSITION" source="#base2_M1KShape1.positions"/>
				</vertices>
				<triangles count="108" material="blinn21.material">
					<input offset="0" semantic="VERTEX" source="#base2_M1KShape1.vertices" set="0"/>
					<input offset="1" semantic="NORMAL" source="#base2_M1KShape1.normals" set="0"/>
					<p>0 0 2 2 1 1 3 3 2 2 0 0 4 4 1 1 2 2 1 1 4 4 5 5 6 6 5 5 7 7 8 8 5 5 4 4 8 8 7 7 5 5 6 6 10 10 9 9 10 10 6 6 7 7 10 10 11 11 9 9 12 12 9 9 11 11 13 13 15 15 14 14 16 16 14 14 15 15 14 14 17 17 13 13 17 17 18 18 13 13 18 18 19 19 13 13 20 20 13 13 19 19 15 15 21 21 16 16 21 21 22 22 16 16 22 22 23 23 16 16 24 24 26 26 25 25 25 25 27 27 24 24 26 26 28 28 25 25 28 28 29 29 25 25 29 29 30 30 25 25 27 27 31 31 24 24 31 31 32 32 24 24 32 32 33 33 24 24 34 34 36 36 35 35 35 35 36 36 37 37 38 38 34 34 39 39 35 35 39 39 34 34 38 38 41 41 40 40 39 39 41 41 38 38 42 42 40 40 41 41 40 40 44 44 43 43 44 44 40 40 42 42 44 44 45 45 43 43 46 46 43 43 45 45 47 47 49 49 48 48 36 36 48 48 37 37 50 50 49 49 47 47 37 37 48 48 49 49 51 51 50 50 52 52 47 47 53 53 50 50 54 54 51 51 52 52 53 53 52 52 50 50 45 45 54 54 46 46 52 52 46 46 54 54 0 0 55 55 3 3 56 56 3 3 55 55 56 56 58 58 57 57 55 55 58 58 56 56 59 59 57 57 60 60 60 60 57 57 58 58 61 61 59 59 62 62 60 60 62 62 59 59 61 61 64 64 63 63 62 62 64 64 61 61 63 63 12 12 11 11 12 12 63 63 64 64 65 65 67 67 66 66 68 68 66 66 67 67 69 69 71 71 70 70 72 72 70 70 71 71 66 66 68 68 72 72 70 70 72 72 68 68 73 73 75 75 74 74 74 74 75 75 76 76 75 75 77 77 76 76 78 78 76 76 79 79 80 80 76 76 77 77 79 79 81 81 78 78 80 80 79 79 76 76 82 82 83 83 78 78 82 82 78 78 81 81 78 78 83 83 84 84 83 83 85 85 84 84 74 74 84 84 86 86 87 87 84 84 85 85 86 86 88 88 74 74 87 87 86 86 84 84 73 73 74 74 88 88 89 89 91 91 90 90 90 90 91 91 92 92 91 91 93 93 92 92 94 94 92 92 95 95 95 95 92 92 93 93 95 95 96 96 94 94 96 96 97 97 94 94 97 97 98 98 94 94 94 94 98 98 99 99 98 98 100 100 99 99 90 90 99 99 101 101 102 102 99 99 100 100 101 101 103 103 90 90 102 102 101 101 99 99 103 103 89 89 90 90 104 104 106 106 105 105 107 107 105 105 106 106 108 108 109 109 104 104 106 106 104 104 109 109 108 108 110 110 109 109 111 111 109 109 110 110 111 111 110 110 107 107 105 105 107 107 110 110 65 65 71 71 67 67 69 69 67 67 71 71</p>
				</triangles>
			</mesh>
		</geometry>
		<geometry id="base2_M1KShape2" name="base2_M1KShape2">
			<mesh>
				<source id="base2_M1KShape2.positions">
					<float_array id="base2_M1KShape2.positions-array" count="171" digits="2490374">-0.164447 -0.0512361 0.0131017 -0.160408 -0.0481332 0.0119496 -0.1645 -0.026499 0.0137124 -0.160592 -0.0240043 0.0125338 -0.161527 -0.0516514 0.104366 -0.164499 -0.0513606 0.0286847 -0.164498 -0.0513264 0.0903644 -0.164456 -0.050394 0.106321 -0.2005 -0.0513053 0.0283105 -0.2005 -0.0513514 0.0906317 -0.161516 -0.0516084 0.0146001 -0.2005 -0.0408073 0.0181035 -0.1645 -0.0412549 0.0182264 -0.1645 -0.0412549 0.0182264 -0.1645 -0.026499 0.0137124 -0.1645 -0.016579 0.018 -0.164479 -0.000755812 0.012738 -0.164447 -0.0512361 0.0131017 -0.164499 -0.0513606 0.0286847 -0.164518 0.00030403 0.0264293 -0.1645 -0.010079 0.0197417 -0.2005 -0.0408073 0.100896 -0.1645 -0.0412549 0.100774 -0.2005 -0.0138729 0.0182256 -0.1645 -0.016579 0.018 -0.1645 -0.010079 0.0197417 -0.164518 0.00030403 0.0264293 -0.200499 0.000340402 0.0261468 -0.2005 -0.0138729 0.100774 -0.1645 -0.016579 0.101 -0.164456 -0.050394 0.106321 -0.1645 -0.0412549 0.100774 -0.164129 -0.0262883 0.105193 -0.164499 0.00034952 0.0925679 -0.164491 -0.000646776 0.106291 -0.1645 -0.010079 0.0992583 -0.1645 -0.016579 0.101 -0.164498 -0.0513264 0.0903644 -0.160383 -0.0473843 0.107274 -0.164129 -0.0262883 0.105193 -0.2005 0.000286394 0.0928558 -0.1645 -0.010079 0.0992583 -0.164499 0.00034952 0.0925679 -0.161018 -0.000737959 0.106063 -0.164491 -0.000646776 0.106291 -0.164479 -0.000755812 0.012738 -0.161011 -0.000648072 0.0128949 -0.160463 0.00119807 0.0171018 -0.160266 0.00102247 0.101919 -0.2005 -0.0138729 0.100774 -0.2005 -0.0408073 0.0181035 -0.2005 -0.0138729 0.0182256 -0.2005 -0.0513053 0.0283105 -0.2005 -0.0513514 0.0906317 -0.2005 -0.0408073 0.100896 -0.2005 0.000286394 0.0928558 -0.200499 0.000340402 0.0261468</float_array>
					<technique_common>
						<accessor count="57" source="#base2_M1KShape2.positions-array" stride="3">
							<param name="X" type="float"/>
							<param name="Y" type="float"/>
							<param name="Z" type="float"/>
						</accessor>
					</technique_common>
				</source>
				<source id="base2_M1KShape2.normals">
					<float_array id="base2_M1KShape2.normals-array" count="171" digits="2490374">-0 -0.965403 -0.260762 -0.008936 0.043609 -0.999009 0 0.047414 -0.998875 -0.000907 0.032975 -0.999456 -0 -0.999258 0.038514 0 -0.997497 -0.070713 -0 -0.992619 0.121279 -0 -0.383967 0.923347 0 -0.979122 -0.203274 -0 -0.992756 0.120149 -0 -0.997378 -0.072369 0 -0.159141 -0.987256 0 -0.351089 -0.936342 -1 0 0 -1 0 0 -1 0 0 -1 0 0 -1 0 0 -1 0 0 -1 0 0 -1 0 0 -0 -0.159141 0.987256 -0 -0.351089 0.936342 0 0.167698 -0.985839 0 -0 -1 0 0.5 -0.866025 0 0.987402 -0.158232 0 0.988096 -0.153836 -0 0.167698 0.985839 0 0 1 -1 0 0 -1 0 0 -1 0 0 -1 0 0 -1 0 0 -1 0 0 -1 0 0 -1 0 0 -0.013415 0.063102 0.997917 -0 0.017062 0.999854 0 0.967167 0.25414 -0 0.5 0.866026 0 0.995397 0.095842 -0.005666 0.230224 0.973121 0 0.375923 0.926651 0 0.379393 -0.925236 -0.005329 0.249819 -0.968278 -0.010409 0.999908 0.008737 0 0.999942 -0.010763 -1 0 0 -1 0 0 -1 0 0 -1 0 0 -1 0 0 -1 0 0 -1 0 0 -1 0 0</float_array>
					<technique_common>
						<accessor count="57" source="#base2_M1KShape2.normals-array" stride="3">
							<param name="X" type="float"/>
							<param name="Y" type="float"/>
							<param name="Z" type="float"/>
						</accessor>
					</technique_common>
				</source>
				<vertices id="base2_M1KShape2.vertices">
					<input semantic="POSITION" source="#base2_M1KShape2.positions"/>
				</vertices>
				<triangles count="54" material="blinn22.material">
					<input offset="0" semantic="VERTEX" source="#base2_M1KShape2.vertices" set="0"/>
					<input offset="1" semantic="NORMAL" source="#base2_M1KShape2.normals" set="0"/>
					<p>0 0 2 2 1 1 3 3 1 1 2 2 4 4 6 6 5 5 0 0 4 4 5 5 7 7 6 6 4 4 8 8 5 5 9 9 10 10 4 4 0 0 9 9 5 5 6 6 11 11 12 12 8 8 5 5 8 8 12 12 13 13 15 15 14 14 14 14 15 15 16 16 14 14 17 17 13 13 13 13 17 17 18 18 19 19 16 16 20 20 20 20 16 16 15 15 21 21 9 9 22 22 6 6 22 22 9 9 23 23 25 25 24 24 26 26 25 25 27 27 23 23 27 27 25 25 28 28 21 21 29 29 22 22 29 29 21 21 30 30 32 32 31 31 33 33 35 35 34 34 31 31 32 32 36 36 37 37 30 30 31 31 35 35 36 36 34 34 32 32 34 34 36 36 38 38 39 39 7 7 28 28 41 41 40 40 42 42 40 40 41 41 4 4 38 38 7 7 43 43 44 44 39 39 2 2 45 45 3 3 46 46 3 3 45 45 0 0 1 1 10 10 28 28 29 29 41 41 47 47 26 26 48 48 27 27 42 42 26 26 44 44 48 48 42 42 45 45 26 26 47 47 40 40 42 42 27 27 42 42 48 48 26 26 45 45 47 47 46 46 44 44 43 43 48 48 49 49 51 51 50 50 50 50 52 52 49 49 52 52 53 53 49 49 49 49 53 53 54 54 49 49 55 55 51 51 51 51 55 55 56 56 23 23 24 24 11 11 12 12 11 11 24 24</p>
				</triangles>
			</mesh>
		</geometry>
		<geometry id="base2_M1KShape3" name="base2_M1KShape3">
			<mesh>
				<source id="base2_M1KShape3.positions">
					<float_array id="base2_M1KShape3.positions-array" count="495" digits="2490374">-0.160212 0.0549421 0.00379229 -0.160714 -0.000201878 0.00293991 -0.157999 0.054543 0.00374578 -0.160212 -0.0549421 0.00379229 -0.158 -0.054543 0.00374577 -0.157959 -0.0654204 0.00400362 -0.157855 0.0654063 0.00400145 -0.160264 -0.0527121 0.105333 -0.161527 -0.0516514 0.104366 -0.160383 -0.0473843 0.107274 -0.160002 -0.0653952 0.16531 -0.160002 -0.0653952 0.11869 -0.160204 -0.0556863 0.169508 -0.160212 -0.0549421 0.00379229 -0.160714 -0.000201878 0.00293991 -0.160182 -0.0557811 0.0126686 -0.160212 -0.0549421 0.178527 -0.160715 0 0.180025 -0.16019 -0.0555763 0.114518 -0.160002 -0.0653952 0.0166905 -0.160002 -0.0653952 0.103309 -0.160189 -0.0562796 0.107101 -0.160212 0.0549421 0.178527 -0.160204 0.0556859 0.169508 -0.160212 0.0549421 0.00379229 -0.16019 0.0555771 0.0874825 -0.160204 0.0557064 0.0125069 -0.160002 0.0653952 0.0833095 -0.15972 0.0654119 0.0167085 -0.160002 0.0653952 0.16531 -0.160002 0.0653952 0.0986905 -0.160189 0.0562799 0.0948996 -0.160189 0.0562799 0.0948996 -0.157997 0.05554 0.0944835 -0.160002 0.0653952 0.0986905 -0.158 0.0654476 0.0986538 -0.158 0.0654476 0.0833462 -0.16019 0.0555771 0.0874825 -0.160002 0.0653952 0.0833095 -0.160204 0.0557064 0.0125069 -0.158 0.0568255 0.0132955 -0.15972 0.0654119 0.0167085 -0.15972 0.0654119 0.0167085 -0.158 0.0568255 0.0132955 -0.157855 0.0654063 0.00400145 -0.157999 0.054543 0.00374578 -0.158 0.055 0.178581 -0.158 0.0654476 0.165346 -0.157999 0.0654324 0.177666 -0.157999 0.0555624 0.169449 -0.160204 0.0556859 0.169508 -0.157999 0.0555624 0.169449 -0.160212 0.0549421 0.178527 -0.158 0.055 0.178581 -0.160002 -0.0653952 0.11869 -0.160002 -0.0653952 0.16531 -0.158 -0.0654476 0.118654 -0.156 -0.0655 0.176126 -0.155549 -0.0654395 0.00594602 -0.157999 -0.0654305 0.177693 -0.158 -0.0654476 0.0166538 -0.158 -0.0654476 0.165346 -0.158 -0.0654476 0.103346 -0.160002 -0.0653952 0.103309 -0.160002 -0.0653952 0.0166905 -0.160002 0.0653952 0.16531 -0.158 0.0654476 0.165346 -0.160204 -0.0556863 0.169508 -0.160212 -0.0549421 0.178527 -0.157999 -0.0555624 0.169449 -0.158 -0.055 0.178581 -0.155153 0.0654932 0.178657 -0.15519 0.000409698 0.180216 -0.158 0.055 0.178581 -0.160212 0.0549421 0.178527 -0.155559 -0.0650765 0.177882 -0.158 -0.055 0.178581 -0.160715 0 0.180025 -0.160212 -0.0549421 0.178527 -0.157999 0.0654324 0.177666 -0.155559 -0.0650765 0.177882 -0.156 -0.0655 0.176126 -0.157999 -0.0654305 0.177693 -0.157999 -0.0555624 0.169449 -0.158 -0.055 0.178581 -0.158 -0.0654476 0.165346 -0.160189 -0.0562796 0.107101 -0.16019 -0.0555763 0.114518 -0.157996 -0.0555402 0.107517 -0.158 -0.0654476 0.0166538 -0.160182 -0.0557811 0.0126686 -0.160002 -0.0653952 0.0166905 -0.158 0.0654476 0.165346 -0.160002 0.0653952 0.16531 -0.158 0.0654476 0.0986538 -0.155153 0.0654932 0.178657 -0.158 0.0654476 0.0833462 -0.160002 0.0653952 0.0833095 -0.15972 0.0654119 0.0167085 -0.160002 0.0653952 0.0986905 -0.157999 0.054543 0.00374578 -0.160212 0.0549421 0.00379229 -0.158 0.0654476 0.0833462 -0.157997 0.05554 0.0944835 -0.16019 0.0555771 0.0874825 -0.158 0.0654476 0.0986538 -0.158 -0.0654476 0.165346 -0.160002 -0.0653952 0.16531 -0.158 -0.0654476 0.118654 -0.160002 -0.0653952 0.11869 -0.158 -0.0654476 0.118654 -0.157996 -0.0555402 0.107517 -0.16019 -0.0555763 0.114518 -0.158 -0.0654476 0.103346 -0.158 -0.0654476 0.103346 -0.160002 -0.0653952 0.103309 -0.158 -0.054543 0.00374577 -0.160212 -0.0549421 0.00379229 -0.157959 -0.0654204 0.00400362 -0.158 -0.054543 0.00374577 -0.158 -0.0654476 0.0166538 -0.160182 -0.0557811 0.0126686 -0.159448 0.0170934 0.181253 -0.155051 -0.00368659 0.181527 -0.155153 0.0654932 0.178657 -0.157381 0.0654376 0.179137 -0.158988 -0.0327299 0.180745 -0.157381 -0.0654376 0.179137 -0.155 -0.0655 0.179133 -0.161661 -0.00647674 0.166674 -0.162006 -0.0243653 0.158271 -0.162 -0.00259652 0.158615 -0.161991 -0.0107963 0.149919 -0.161999 -0.0168478 0.171308 -0.160634 -0.0236823 0.158036 -0.160751 -0.0187814 0.152162 -0.162006 -0.0243653 0.158271 -0.16075 -0.0118655 0.150264 -0.161991 -0.0107963 0.149919 -0.160711 -0.00514954 0.153977 -0.160722 -0.00242398 0.159434 -0.162 -0.00259652 0.158615 -0.161661 -0.00647674 0.166674 -0.160768 -0.0122424 0.172563 -0.161999 -0.0168478 0.171308 -0.16063 -0.0222084 0.166953 -0.15519 0.000409698 0.180216 -0.155153 0.0654932 0.178657 -0.155051 -0.00368659 0.181527 -0.155 -0.0655 0.179133 -0.155559 -0.0650765 0.177882 -0.155549 -0.0654395 0.00594602 -0.161522 0.0526386 0.0523976 -0.160246 0.0534404 0.0527622 -0.160777 0.0113499 0.051993 -0.160247 0.0534721 0.0106969 -0.16155 0.0527911 0.0110956 -0.160779 0.0113492 0.0115036 -0.160591 -0.0241312 0.106468 -0.160383 -0.0473843 0.107274 -0.164129 -0.0262883 0.105193 -0.161018 -0.000737959 0.106063 -0.161516 -0.0516084 0.0146001 -0.160261 -0.05259 0.0136297 -0.160408 -0.0481332 0.0119496</float_array>
					<technique_common>
						<accessor count="165" source="#base2_M1KShape3.positions-array" stride="3">
							<param name="X" type="float"/>
							<param name="Y" type="float"/>
							<param name="Z" type="float"/>
						</accessor>
					</technique_common>
				</source>
				<source id="base2_M1KShape3.normals">
					<float_array id="base2_M1KShape3.normals-array" count="495" digits="2490374">-0.026178 0.027462 -0.99928 -0.028432 -0.002154 -0.999593 -0.026182 0.027262 -0.999285 -0.026177 -0.027462 -0.99928 -0.026178 -0.027262 -0.999285 -0.026821 -0.110184 -0.993549 0.001861 0.837849 -0.545899 -0.026621 -0.995523 0.090693 -0.026444 -0.99801 0.057241 -0.013415 0.063102 0.997917 -0.999762 -0.021798 -0 -0.999762 -0.021798 -0 -0.999828 -0.018562 -0 -0.999832 -0.018314 -0 -1 -6.7e-05 -0 -0.999827 -0.018594 -0 -0.999832 -0.018314 -0 -1 -0 -0 -0.999828 -0.018525 -0 -0.999762 -0.021798 -0 -0.999762 -0.021798 -0 -0.999824 -0.01876 -0 -0.999832 0.018314 -0 -0.999828 0.018562 -0 -0.999832 0.018314 -0 -0.999828 0.018526 -0 -0.999828 0.018569 -0 -0.999762 0.021798 -0 -0.999762 0.021806 -0 -0.999762 0.021798 -0 -0.999762 0.021798 -0 -0.999824 0.01876 -0 -0.026807 0.644588 -0.76406 -0.026595 0.68874 -0.724521 -0.026167 0.341911 -0.939368 -0.026167 0.341911 -0.939368 -0.026167 0.341911 0.939368 -0.026165 0.71394 0.699718 -0.026167 0.341911 0.939368 -0.02817 0.782151 -0.622452 -0.026759 0.505942 -0.862152 -0.025967 0.32863 -0.944102 -1 -0 -0 -1 -0 -0 -1 -0 -0 -1 -0 -0 -1 -0 -0 -1 -0 -0 -1 -0 -0 -1 -0 -0 -0.028208 0.788015 0.615009 -0.0292 0.799752 0.59962 -0.026166 0.999658 -0 -0.026166 0.999658 -0 -0.016657 -0.999861 -0.000112 -0.016657 -0.999861 -0.000112 -0.016657 -0.999861 -0.000112 -0.016657 -0.999861 -0.000112 -0.016657 -0.999861 -0.000112 -0.018415 -0.995627 0.091583 -0.016657 -0.999861 -0.000112 -0.016657 -0.999861 -0.000112 -0.016657 -0.999861 -0.000112 -0.016657 -0.999861 -0.000112 -0.016657 -0.999861 -0.000112 -0.026076 0.341911 0.939371 -0.026076 0.341911 0.939371 -0.028292 -0.787979 0.615052 -0.026166 -0.999658 0 -0.029313 -0.799756 0.599609 -0.026166 -0.999658 0 -0.026567 0.049563 0.998418 -0.026094 0.000405 0.999659 -0.026196 0.054974 0.998144 -0.026181 0.054918 0.998148 -0.026168 -0.065061 0.997538 -0.026198 -0.054975 0.998144 -0.026152 -4e-06 0.999658 -0.026181 -0.05492 0.998147 0.021767 0.997487 0.067418 -0.007187 -0.643485 0.765425 -0.030863 -0.97588 0.216113 -1 -0 -0 -1 -0 -0 -1 -0 -0 -1 -0 -0 -0.026806 -0.644686 0.763977 -0.026259 -0.713869 -0.699787 -0.026591 -0.688784 0.724479 -0.026176 -0.341905 -0.93937 -0.028123 -0.741903 -0.669917 -0.026176 -0.341905 -0.93937 0.016955 0.999856 -0.000176 0.016955 0.999856 -0.000176 0.016955 0.999856 -0.000176 0.01669 0.999853 -0.003855 0.016955 0.999856 -0.000176 0.016955 0.999856 -0.000176 0.01742 0.999651 -0.019876 0.016955 0.999856 -0.000176 -0.023471 0.971473 0.235984 -0.026166 0.999658 -0 -1 -0 -0 -1 -0 -0 -1 -0 -0 -1 -0 -0 -0.026076 -0.341911 0.939371 -0.026076 -0.341911 0.939371 -0.026076 -0.341911 -0.939371 -0.026076 -0.341911 -0.939371 -1 -0 -0 -1 -0 -0 -1 -0 -0 -1 -0 -0 -0.026167 -0.341911 0.939368 -0.026167 -0.341911 0.939368 -0.023471 -0.971473 0.235985 -0.026166 -0.999658 0 -1 -0 -0 -1 -0 -0 -1 -0 -0 -1 -0 -0 6.5e-05 -0.017102 -0.999854 6.6e-05 0.003686 -0.999993 4e-05 -0.065517 -0.997851 3.9e-05 -0.06544 -0.997856 5.3e-05 0.032742 -0.999464 3.9e-05 0.06544 -0.997856 4e-05 0.0655 -0.997853 -1 -0 -0 -1 -0 -0 -1 -0 -0 -1 -0 -0 -1 -0 -0 -0.025866 -0.963334 -0.267055 -0.026001 -0.546902 -0.836793 -0.02375 -0.9734 -0.227877 -0.025517 0.117399 -0.992757 -0.024308 0.199153 -0.979667 -0.026162 0.744777 -0.666801 -0.025743 0.988998 -0.145674 -0.025759 0.974322 -0.223679 -0.027082 0.764581 0.643958 -0.02454 0.056271 0.998114 -0.024989 -0.349928 0.936443 -0.025673 -0.840296 0.54152 -1 -0 -0 -1 -0 -0 -1 -0 -0 -1 -0 -0 -1 -0 -0 -1 -0 -0 -0.035724 0.713763 0.699476 -0.035897 0.773584 0.632677 -0.034226 -0.702129 0.711227 -0.035031 0.549609 -0.834687 -0.034356 0.898054 -0.438542 -0.033538 -0.815379 -0.577955 -1 -0 -0 -1 -0 -0 -1 -0 -0 -1 -0 -0 -0.02661 -0.994283 -0.103411 -0.026493 -0.998386 -0.050243 -0.008936 0.043609 -0.999009</float_array>
					<technique_common>
						<accessor count="165" source="#base2_M1KShape3.normals-array" stride="3">
							<param name="X" type="float"/>
							<param name="Y" type="float"/>
							<param name="Z" type="float"/>
						</accessor>
					</technique_common>
				</source>
				<vertices id="base2_M1KShape3.vertices">
					<input semantic="POSITION" source="#base2_M1KShape3.positions"/>
				</vertices>
				<triangles count="117" material="blinn23.material">
					<input offset="0" semantic="VERTEX" source="#base2_M1KShape3.vertices" set="0"/>
					<input offset="1" semantic="NORMAL" source="#base2_M1KShape3.normals" set="0"/>
					<p>0 0 2 2 1 1 3 3 1 1 4 4 5 5 4 4 1 1 6 6 1 1 2 2 7 7 9 9 8 8 10 10 12 12 11 11 13 13 15 15 14 14 16 16 17 17 14 14 15 15 18 18 14 14 16 16 14 14 12 12 12 12 14 14 18 18 19 19 20 20 15 15 18 18 15 15 21 21 21 21 15 15 20 20 22 22 23 23 17 17 14 14 17 17 24 24 23 23 25 25 17 17 24 24 17 17 26 26 26 26 17 17 25 25 25 25 27 27 26 26 28 28 26 26 27 27 29 29 30 30 23 23 25 25 23 23 31 31 31 31 23 23 30 30 18 18 11 11 12 12 32 32 34 34 33 33 35 35 33 33 34 34 36 36 38 38 37 37 39 39 41 41 40 40 42 42 44 44 43 43 44 44 45 45 43 43 46 46 48 48 47 47 47 47 49 49 46 46 50 50 52 52 51 51 53 53 51 51 52 52 54 54 56 56 55 55 57 57 59 59 58 58 5 5 58 58 60 60 61 61 55 55 56 56 62 62 63 63 60 60 59 59 61 61 58 58 61 61 56 56 58 58 60 60 58 58 62 62 56 56 62 62 58 58 64 64 60 60 63 63 50 50 51 51 65 65 66 66 65 65 51 51 67 67 69 69 68 68 70 70 68 68 69 69 71 71 73 73 72 72 74 74 72 72 73 73 75 75 72 72 76 76 77 77 72 72 74 74 59 59 75 75 76 76 78 78 76 76 72 72 77 77 78 78 72 72 79 79 73 73 71 71 80 80 59 59 81 81 82 82 84 84 83 83 83 83 85 85 82 82 86 86 88 88 87 87 89 89 91 91 90 90 92 92 94 94 93 93 95 95 6 6 79 79 94 94 6 6 96 96 97 97 96 96 98 98 99 99 93 93 94 94 79 79 6 6 92 92 98 98 96 96 6 6 94 94 92 92 6 6 39 39 40 40 100 100 39 39 100 100 101 101 102 102 104 104 103 103 105 105 102 102 103 103 37 37 32 32 33 33 106 106 69 69 107 107 67 67 107 107 69 69 108 108 109 109 87 87 110 110 112 112 111 111 110 110 111 111 113 113 114 114 88 88 115 115 86 86 115 115 88 88 90 90 117 117 116 116 118 118 120 120 119 119 120 120 121 121 119 119 122 122 124 124 123 123 125 125 124 124 122 122 122 122 123 123 126 126 127 127 123 123 128 128 126 126 123 123 127 127 129 129 131 131 130 130 131 131 132 132 130 130 130 130 133 133 129 129 134 134 136 136 135 135 135 135 138 138 137 137 138 138 135 135 136 136 139 139 137 137 138 138 140 140 139 139 141 141 138 138 141 141 139 139 141 141 142 142 140 140 142 142 144 144 143 143 145 145 143 143 144 144 144 144 136 136 145 145 134 134 145 145 136 136 146 146 148 148 147 147 149 149 148 148 150 150 146 146 150 150 148 148 149 149 151 151 118 118 152 152 154 154 153 153 155 155 156 156 153 153 152 152 153 153 156 156 156 156 155 155 157 157 158 158 160 160 159 159 158 158 161 161 160 160 162 162 163 163 8 8 7 7 8 8 163 163 162 162 164 164 163 163</p>
				</triangles>
			</mesh>
		</geometry>
		<geometry id="base2_M1KShape4" name="base2_M1KShape4">
			<mesh>
				<source id="base2_M1KShape4.positions">
					<float_array id="base2_M1KShape4.positions-array" count="882" digits="2490374">-0.0856441 -0.0776365 -0 -0.0842505 -0.084208 -0 -0.0859998 -0.07995 0.015 -0.080025 -0.0859999 0 -0.0842505 -0.084208 0.015 -0.0743559 -0.0823636 0 -0.0777025 -0.0856704 0.015 -0.0740002 -0.08005 0.015 0.0823636 -0.0743559 0 0.075792 -0.0757494 0 0.08005 -0.0740002 0.015 0.0740001 -0.079975 0 0.075792 -0.0757494 0.015 0.0776365 -0.0856441 0 0.0743296 -0.0822975 0.015 0.07995 -0.0859998 0.015 0.084208 -0.0842505 0 0.0859999 -0.080025 0 0.084208 -0.0842505 0.015 0.0856704 -0.0777025 0.015 0.0743559 0.0823636 0 0.0757494 0.075792 0 0.0740002 0.08005 0.015 0.079975 0.0740001 0 0.0757494 0.075792 0.015 0.0856441 0.0776365 0 0.0822975 0.0743296 0.015 0.0859998 0.07995 0.015 0.0842505 0.084208 0 0.080025 0.0859999 0 0.0842505 0.084208 0.015 0.0777025 0.0856704 0.015 -0.157855 0.0654063 0.00400145 -0.1 0 0.00292715 -0.0988785 0.0669696 0.0040487 -0.160714 -0.000201878 0.00293991 -0.0988785 -0.0669696 0.0040487 -0.157959 -0.0654204 0.00400362 0.0988774 -0.0670014 0.02 0.100002 -0 0 0.0988774 -0.0670014 0.015 0.0988774 0.0670014 0.0199999 0.0988774 0.0670014 0.015 0.0984297 -0.0792378 0 0.0982371 -0.0830037 0.0149981 0.0976963 0.0843091 0.015 0.0984297 0.0792378 0 0.1 -0 0.02 -0.0925855 0.0925855 0.015 -0.084208 0.0842505 0.015 -0.0978201 0.0844128 0.015 -0.0843091 0.0976963 0.015 -0.0670014 0.0988774 0.015 -0.07995 0.0859998 0.015 -0.0677992 0.0764592 0.0150001 -0.0743296 0.0822975 0.015 -0.0711634 0.0711308 0.015 -0.075792 0.0757494 0.015 -0.08005 0.0740002 0.015 -0.0776441 0.0675343 0.0150138 -0.0988785 0.0669696 0.015 -0.0856704 0.0777025 0.015 0.0967217 0.0865734 0 0.0925855 0.0925855 0.015 0.0892935 0.0955997 0 0.083603 0.0982154 0.0149975 0.0792378 0.0984297 0 0.0925855 -0.0925855 0.015 0.084208 -0.0842505 0.015 0.0982371 -0.0830037 0.0149981 0.055 -0.0992436 0.015 0.0743296 -0.0822975 0.015 0.0842984 -0.0978756 0.015 0.07995 -0.0859998 0.015 0.0558644 -0.08506 0.0149967 0.0750888 -0.0680162 0.0149985 0.08005 -0.0740002 0.015 0.075792 -0.0757494 0.015 0.0988774 -0.0670014 0.015 0.0856704 -0.0777025 0.015 0.0988774 0.0670014 0.015 0.0988774 0.0670014 0.0199999 0.0752375 0.067889 0.0150024 0.0747125 0.0683931 0.0277422 0.0837225 0.0673982 0.0250436 0.055 0.0992436 0.02 0 0.100002 -0 0.055 0.0992436 0.015 -0.0670014 0.0988774 0.02 -0.0670014 0.0988774 0.015 -0.0081554 0.0999646 0.0203593 -0.0843091 0.0976963 0.015 -0.0792378 0.0984297 -0 0.0600422 -0.0807636 0.0278374 0.0756734 -0.0678772 0.0276453 0.0750888 -0.0680162 0.0149985 0.0558644 -0.08506 0.0149967 0.0554022 -0.087185 0.0264252 0.0548935 -0.0915631 0.0241419 0.055 -0.0992436 0.015 0.055 -0.0992436 0.02 -0.0984297 0.0792378 -0 -0.0978201 0.0844128 0.015 -0.0988785 0.0669696 0.0040487 -0.0976973 -0.0843068 0.015 -0.0984297 -0.0792378 -0 -0.0988785 -0.0669696 0.015 -0.0988785 -0.0669696 0.0040487 -0.100002 0 -0 -0.1 0 0.00292715 -0.0988785 0.0669696 0.015 -0.0670014 0.0988774 0.02 -0.0081554 0.0999646 0.0203593 -0.0283389 0.097838 0.0226491 -0.0473143 0.0900805 0.026258 -0.0676 0.0774869 0.0273082 -0.0512104 0.0939269 0.0225419 -0.00784758 0.0984417 0.0267426 0.00746309 0.0980298 0.0285926 0.0226585 0.0984662 0.022502 0.0450864 0.087435 0.0289345 0.0547944 0.0922179 0.02359 -0.0314104 0.0932274 0.029 -0.0664157 0.0725299 0.029 0.0568708 0.0837068 0.0276513 0.0766062 0.0616694 0.029 0.0747125 0.0683931 0.0277422 0.055 0.0992436 0.02 0.0837225 0.0673982 0.0250436 -0.072618 0.0688457 0.0284167 -0.0670014 -0.0988774 0.02 -0.0670014 -0.0988774 0.015 -0.067704 -0.0772108 0.0271345 -0.0678183 -0.0763786 0.0150003 0.0967217 -0.0865734 0 0.0925855 -0.0925855 0.015 0.0892935 -0.0955997 0 0.0842984 -0.0978756 0.015 0.0792378 -0.0984297 0 0.055 0.0992436 0.015 0.0558876 0.0850358 0.0149953 0.055 0.0992436 0.02 0.0547944 0.0922179 0.02359 -0.0792378 -0.0984297 0 -0.0892935 -0.0955997 0 -0.0847944 -0.0976261 0.015 -0.0925855 -0.0925855 0.015 -0.0967217 -0.0865734 -0 -0.0865734 0.0967217 -0 -0.0925855 0.0925855 0.015 -0.0955997 0.0892935 -0 -0.072618 0.0688457 0.0284167 -0.0711634 0.0711308 0.015 -0.0677992 0.0764592 0.0150001 -0.0676 0.0774869 0.0273082 -0.0776441 0.0675343 0.0150138 -0.0925855 -0.0925855 0.015 -0.0842505 -0.084208 0.015 -0.0847944 -0.0976261 0.015 -0.0976973 -0.0843068 0.015 -0.0988785 -0.0669696 0.015 -0.0859998 -0.07995 0.015 -0.0796736 -0.0674725 0.015 -0.0822975 -0.0743296 0.015 -0.0740002 -0.08005 0.015 -0.0757494 -0.075792 0.015 -0.0678183 -0.0763786 0.0150003 -0.0729306 -0.0695171 0.0149996 -0.0670014 -0.0988774 0.015 -0.0777025 -0.0856704 0.015 0.0970634 -0.0305243 0.0247398 0.0910494 -0.0529527 0.0248475 0.0941593 -0.0283952 0.029 0.0822975 -0.0538292 0.029 0.0756734 -0.0678772 0.0276453 0.0637992 -0.0748383 0.029 0.0548935 -0.0915631 0.0241419 0.0181302 -0.0975187 0.024518 0.0554022 -0.087185 0.0264252 -0.0161018 -0.0969443 0.0277228 -0.0235721 -0.0978163 0.0228929 -0.0539428 -0.0873037 0.0264829 -0.0563438 -0.0912339 0.0241281 0.0989028 -0.0347741 0.0218048 0.0176476 -0.0983815 0.022 -0.0587988 -0.0952525 0.0219612 0.1 -0 0.02 0.0983444 1.4232e-05 0.029 -0.00600358 -0.099991 0.0200001 0.0600422 -0.0807636 0.0278374 0.0988774 -0.0670014 0.02 0.0122413 -0.0975783 0.029 0.055 -0.0992436 0.02 0.0397048 -0.0899731 0.029 -0.0425976 -0.0886473 0.029 -0.067704 -0.0772108 0.0271345 -0.0670014 -0.0988774 0.02 -0.0664157 -0.0725299 0.029 -0.0728073 -0.0691965 0.0290196 -0.0670014 0.0988774 0.015 -0.0670014 0.0988774 0.02 0.0822975 0.0743296 0.015 0.0752375 0.067889 0.0150024 0.0757494 0.075792 0.015 0.0558876 0.0850358 0.0149953 0.0740002 0.08005 0.015 0.055 0.0992436 0.015 0.0777025 0.0856704 0.015 0.083603 0.0982154 0.0149975 0.0842505 0.084208 0.015 0.0925855 0.0925855 0.015 0.0976963 0.0843091 0.015 0.0988774 0.0670014 0.015 0.0859998 0.07995 0.015 -0.0796736 -0.0674725 0.015 -0.0728073 -0.0691965 0.0290196 -0.0729306 -0.0695171 0.0149996 -0.0796736 -0.0674725 0.0263258 0.0859999 -0.080025 0 0.084208 -0.0842505 0 0.0967217 -0.0865734 0 0.100002 -0 0 0.0823636 -0.0743559 0 0.0984297 -0.0792378 0 0.075792 -0.0757494 0 -0 -0.100002 0 -0.0743559 -0.0823636 0 -0.0792378 -0.0984297 0 0.0792378 -0.0984297 0 0.0740001 -0.079975 0 -0.0757494 -0.075792 -0 -0.0859999 0.080025 -0 -0.0984297 0.0792378 -0 -0.0823636 0.0743559 -0 -0.100002 0 -0 -0.0984297 -0.0792378 -0 -0.079975 -0.0740001 -0 -0.0955997 0.0892935 -0 -0.075792 0.0757494 -0 0 0.100002 -0 0.0743559 0.0823636 0 0.0792378 0.0984297 0 -0.0776365 0.0856441 -0 -0.0740001 0.079975 -0 -0.0792378 0.0984297 -0 0.0757494 0.075792 0 0.0984297 0.0792378 0 0.079975 0.0740001 0 0.0856441 0.0776365 0 0.0967217 0.0865734 0 0.0842505 0.084208 0 0.080025 0.0859999 0 0.0892935 0.0955997 0 -0.084208 0.0842505 -0 -0.0865734 0.0967217 -0 -0.0856441 -0.0776365 -0 -0.0967217 -0.0865734 -0 -0.0842505 -0.084208 -0 -0.080025 -0.0859999 0 -0.0892935 -0.0955997 0 0.0776365 -0.0856441 0 0.0892935 -0.0955997 0 0.0568708 0.0837068 0.0276513 -0 -0.100002 0 0.055 -0.0992436 0.015 -0.00600358 -0.099991 0.0200001 -0.0670014 -0.0988774 0.02 0.055 -0.0992436 0.02 -0.0670014 -0.0988774 0.015 0.0988774 0.0670014 0.0199999 0.0983185 0.0241599 0.02195 0.0969225 0.0166516 0.029 0.0935119 0.0539571 0.0224585 0.0948265 0.0351928 0.0252022 0.0857423 0.0480068 0.0289249 0.0927461 0.0327004 0.029 0.0988774 -0.0670014 0.015 0.0988774 -0.0670014 0.02 -0.0776365 0.0856441 -0 -0.084208 0.0842505 -0 -0.07995 0.0859998 0.015 -0.0859999 0.080025 -0 -0.084208 0.0842505 0.015 -0.0823636 0.0743559 -0 -0.0856704 0.0777025 0.015 -0.08005 0.0740002 0.015 -0.075792 0.0757494 -0 -0.0740001 0.079975 -0 -0.075792 0.0757494 0.015 -0.0743296 0.0822975 0.015 -0.0757494 -0.075792 -0 -0.079975 -0.0740001 -0 -0.0757494 -0.075792 0.015 -0.0822975 -0.0743296 0.015</float_array>
					<technique_common>
						<accessor count="294" source="#base2_M1KShape4.positions-array" stride="3">
							<param name="X" type="float"/>
							<param name="Y" type="float"/>
							<param name="Z" type="float"/>
						</accessor>
					</technique_common>
				</source>
				<source id="base2_M1KShape4.normals">
					<float_array id="base2_M1KShape4.normals-array" count="882" digits="2490374">0.922227 -0.386649 0 0.710906 0.703287 0 0.999965 -0.008333 0 0.003509 0.999994 0 0.710906 0.703287 0 -0.922224 0.386656 0 -0.376012 0.926615 0 -0.999965 0.008333 0 -0.386656 -0.922224 0 0.703287 -0.710906 0 -0.008333 -0.999965 0 0.999994 -0.003509 0 0.703287 -0.710906 0 0.386649 0.922227 0 0.926615 0.376012 0 0.008333 0.999965 0 -0.703287 0.710906 0 -0.999994 0.003509 0 -0.703287 0.710906 0 -0.926615 -0.376012 0 0.922224 -0.386656 0 0.710906 0.703287 0 0.999965 -0.008333 0 0.003509 0.999994 0 0.710906 0.703287 0 -0.922227 0.386649 0 -0.376012 0.926615 0 -0.999965 0.008333 0 -0.710906 -0.703287 0 -0.003509 -0.999994 0 -0.710906 -0.703287 0 0.376012 -0.926615 0 0.001861 0.837849 -0.545899 4.7e-05 -0 -1 -1e-05 0.033485 -0.999439 -0.028432 -0.002154 -0.999593 -1e-05 -0.033485 -0.999439 -0.026821 -0.110184 -0.993549 0.999439 -0.033501 0 1 -0 0 0.999439 -0.033501 0 0.999439 0.033501 -0 0.999439 0.033501 -0 0.999215 -0.039619 0 0.996146 -0.087708 0 0.974926 0.222527 0 0.999215 0.039619 0 1 -0 0 -0 0 1 -0 0 1 -0 0 1 -0 0 1 -0 0 1 -0 0 1 -0 0 1 -0 0 1 -0 0 1 -0 0 1 -0 0 1 -0 0 1 -0 0 1 -0 0 1 0.913457 0.406936 0 0.707107 0.707107 -0 0.534954 0.844881 -0 0.099224 0.995065 -0 0.039619 0.999215 0 -0 0 1 -0 0 1 -0 0 1 -0 0 1 -0 0 1 -0 0 1 -0 0 1 -0 0 1 -0 0 1 -0 0 1 -0 0 1 -0 0 1 -0 0 1 0.026179 0.999657 3e-06 0.026179 0.999657 3e-06 0.42601 0.904718 1e-06 0.525205 0.850976 1.9e-05 0.026179 0.999657 3e-06 0.0275 0.999622 0 0 1 0 0.0275 0.999622 0 -0.033501 0.999439 0 -0.033501 0.999439 0 -0.004078 0.999992 0 -0.222527 0.974926 0 -0.039619 0.999215 0 0.596623 -0.802522 0 0.327518 -0.944845 -8.6e-05 0.479727 -0.877418 -0.000116 0.855837 -0.517247 0.000372 0.955313 -0.295595 0.000812 0.999355 0.035913 -6.1e-05 1 -0 0 1 -0 0 -0.999215 0.039619 0 -0.978413 0.20666 -0 -0.999439 0.033485 -0 -0.974977 -0.222308 -0 -0.999215 -0.039619 0 -0.999439 -0.033485 0 -0.999439 -0.033485 0 -1 0 -0 -1 0 -0 -0.999439 0.033485 -0 -0.009029 0.271514 0.962392 -0.009565 0.965145 0.261542 -0.09733 0.843679 0.527952 -0.221283 0.577231 0.786027 -0.233202 0.301247 0.92459 -0.098348 0.493019 0.864442 -0.062487 0.979833 0.189796 0.097602 0.975658 0.196379 0.081352 0.913554 0.398499 0.28107 0.553323 0.784113 0.134844 0.478697 0.867563 -0.25767 0.764248 0.591212 -0.281037 0.3081 0.908896 0.234534 0.399842 0.88607 0.344797 0.27751 0.896718 0.280204 0.243657 0.928503 0.010218 0.370491 0.92878 0.328627 0.149658 0.932527 -0.292534 0.268792 0.917701 -0.999657 -0.026176 0 -0.999657 -0.026176 0 -0.994337 -0.10627 0.000154 -0.984533 -0.1752 0.000284 0.913457 -0.406936 0 0.707107 -0.707107 0 0.534954 -0.844881 -0 0.195044 -0.980794 -0 0.039619 -0.999215 -0 1 -0 0 0.852067 0.523433 0.000409 1 -0 0 0.997817 -0.066047 -0.000124 -0.039619 -0.999215 0 -0.534954 -0.844881 0 -0.251159 -0.967946 0 -0.707107 -0.707107 0 -0.913457 -0.406936 -0 -0.406936 0.913457 0 -0.707107 0.707107 -0 -0.844881 0.534954 -0 -0.557442 0.829986 0.019543 -0.707011 0.707011 0.016493 -0.985364 0.170444 0.002609 -0.995199 0.097858 0.001388 -0.031166 0.999514 7.9e-05 -0 0 1 -0 0 1 -0 0 1 -0 0 1 -0 0 1 -0 0 1 -0 0 1 -0 0 1 -0 0 1 -0 0 1 -0 0 1 -0 0 1 -0 0 1 -0 0 1 0.860361 -0.137657 0.490745 0.487453 -0.191396 0.851914 0.71214 -0.213838 0.668678 0.414852 -0.279718 0.865826 0.302075 -0.242874 0.921826 0.280279 -0.327727 0.902241 0.124414 -0.459481 0.879431 0.094245 -0.977342 0.189525 0.207807 -0.422113 0.882404 -0.116618 -0.904398 0.410444 -0.062265 -0.935146 0.348749 -0.196149 -0.440629 0.875998 -0.115852 -0.433752 0.893553 0.722337 -0.045063 0.690072 0.035085 -0.906383 0.420998 -0.051178 -0.4345 0.899217 0.974191 -0.000314 0.225727 0.990774 0.000385 0.135524 -0.002276 -0.682052 0.7313 0.23768 -0.360416 0.902002 0.225592 -0.029719 0.973769 0.087461 -0.840666 0.534445 0.012266 -0.450677 0.892603 0.245015 -0.606255 0.756586 -0.265439 -0.579019 0.770895 -0.235774 -0.275392 0.931971 -0.016123 -0.391263 0.920138 -0.294309 -0.316753 0.901693 -0.294321 -0.272216 0.916119 -0.999657 0.026176 -0 -0.999657 0.026176 -0 -0 0 1 -0 0 1 -0 0 1 -0 0 1 -0 0 1 -0 0 1 -0 0 1 -0 0 1 -0 0 1 -0 0 1 -0 0 1 -0 0 1 -0 0 1 -0.026178 -0.999657 0 -0.546734 -0.837305 0.001307 -0.561914 -0.827195 0.001107 -0.026177 -0.999657 0 0 -0 -1 0 -0 -1 0 -0 -1 0 -0 -1 0 -0 -1 0 -0 -1 0 -0 -1 0 -0 -1 0 -0 -1 0 -0 -1 0 -0 -1 0 -0 -1 0 -0 -1 0 -0 -1 0 -0 -1 0 -0 -1 0 -0 -1 0 -0 -1 0 -0 -1 0 -0 -1 0 -0 -1 0 -0 -1 0 -0 -1 0 -0 -1 0 -0 -1 0 -0 -1 0 -0 -1 0 -0 -1 0 -0 -1 0 -0 -1 0 -0 -1 0 -0 -1 0 -0 -1 0 -0 -1 0 -0 -1 0 -0 -1 0 -0 -1 0 -0 -1 0 -0 -1 0 -0 -1 0 -0 -1 0 -0 -1 0 -0 -1 0 -0 -1 0.687246 0.726424 0.000315 -0 -1 0 0.0275 -0.999622 0 -0.003002 -0.999996 0 -0.033501 -0.999439 0 0.0275 -0.999622 0 -0.033501 -0.999439 0 0.254836 0.009397 0.966939 0.892993 0.081652 0.442601 0.895113 0.153771 0.418481 0.458394 0.090969 0.884081 0.813124 0.194909 0.548489 0.537925 0.296625 0.789082 0.706932 0.249439 0.661836 0.026177 -0.999657 0 0.026177 -0.999657 0 -0.386649 -0.922227 0 0.703287 -0.710906 0 -0.008333 -0.999965 0 0.999994 -0.003509 0 0.703287 -0.710906 0 0.386656 0.922224 0 0.926615 0.376012 0 0.008333 0.999965 0 -0.703287 0.710906 0 -0.999994 0.003509 0 -0.703287 0.710906 0 -0.926615 -0.376012 0 -0.710906 -0.703287 0 -0.003509 -0.999994 0 -0.710906 -0.703287 0 0.376012 -0.926615 0</float_array>
					<technique_common>
						<accessor count="294" source="#base2_M1KShape4.normals-array" stride="3">
							<param name="X" type="float"/>
							<param name="Y" type="float"/>
							<param name="Z" type="float"/>
						</accessor>
					</technique_common>
				</source>
				<vertices id="base2_M1KShape4.vertices">
					<input semantic="POSITION" source="#base2_M1KShape4.positions"/>
				</vertices>
				<triangles count="305" material="blinn24.material">
					<input offset="0" semantic="VERTEX" source="#base2_M1KShape4.vertices" set="0"/>
					<input offset="1" semantic="NORMAL" source="#base2_M1KShape4.normals" set="0"/>
					<p>0 0 2 2 1 1 1 1 4 4 3 3 4 4 1 1 2 2 5 5 3 3 6 6 6 6 3 3 4 4 6 6 7 7 5 5 8 8 10 10 9 9 9 9 12 12 11 11 12 12 9 9 10 10 13 13 11 11 14 14 14 14 11 11 12 12 14 14 15 15 13 13 13 13 15 15 16 16 16 16 18 18 17 17 18 18 16 16 15 15 8 8 17 17 19 19 19 19 17 17 18 18 19 19 10 10 8 8 20 20 22 22 21 21 21 21 24 24 23 23 24 24 21 21 22 22 25 25 23 23 26 26 26 26 23 23 24 24 26 26 27 27 25 25 25 25 27 27 28 28 28 28 30 30 29 29 30 30 28 28 27 27 20 20 29 29 31 31 31 31 29 29 30 30 31 31 22 22 20 20 32 32 34 34 33 33 35 35 32 32 33 33 35 35 33 33 36 36 37 37 35 35 36 36 38 38 40 40 39 39 41 41 39 39 42 42 43 43 39 39 44 44 45 45 42 42 46 46 47 47 38 38 39 39 47 47 39 39 41 41 46 46 42 42 39 39 44 44 39 39 40 40 48 48 50 50 49 49 51 51 53 53 52 52 48 48 49 49 51 51 53 53 51 51 49 49 52 52 55 55 54 54 55 55 52 52 53 53 56 56 54 54 57 57 58 58 59 59 57 57 55 55 57 57 54 54 60 60 59 59 61 61 56 56 57 57 59 59 50 50 60 60 61 61 58 58 61 61 59 59 61 61 49 49 50 50 45 45 46 46 62 62 63 63 62 62 64 64 45 45 62 62 63 63 63 63 64 64 65 65 65 65 64 64 66 66 67 67 69 69 68 68 70 70 72 72 71 71 67 67 68 68 72 72 73 73 72 72 68 68 73 73 71 71 72 72 74 74 71 71 75 75 71 71 74 74 70 70 76 76 75 75 77 77 77 77 75 75 71 71 78 78 75 75 79 79 69 69 78 78 79 79 76 76 79 79 75 75 79 79 68 68 69 69 80 80 82 82 81 81 83 83 84 84 82 82 84 84 81 81 82 82 85 85 87 87 86 86 88 88 90 90 89 89 66 66 86 86 65 65 91 91 89 89 92 92 92 92 90 90 86 86 92 92 89 89 90 90 65 65 86 86 87 87 85 85 86 86 90 90 93 93 95 95 94 94 96 96 95 95 93 93 96 96 93 93 97 97 96 96 97 97 98 98 99 99 96 96 100 100 98 98 100 100 96 96 101 101 103 103 102 102 104 104 106 106 105 105 106 106 107 107 105 105 105 105 107 107 108 108 101 101 108 108 103 103 109 109 108 108 107 107 110 110 102 102 103 103 109 109 103 103 108 108 111 111 113 113 112 112 114 114 116 116 115 115 116 116 114 114 113 113 117 117 112 112 113 113 118 118 119 119 117 117 112 112 117 117 119 119 120 120 121 121 118 118 119 119 118 118 121 121 122 122 114 114 123 123 120 120 125 125 124 124 126 126 124 124 125 125 127 127 119 119 121 121 121 121 120 120 124 124 112 112 119 119 127 127 128 128 126 126 125 125 115 115 129 129 123 123 113 113 122 122 117 117 113 113 114 114 122 122 115 115 123 123 114 114 118 118 117 117 122 122 111 111 115 115 116 116 116 116 113 113 111 111 130 130 132 132 131 131 133 133 131 131 132 132 134 134 43 43 44 44 134 134 44 44 135 135 136 136 134 134 135 135 136 136 135 135 137 137 138 138 136 136 137 137 139 139 141 141 140 140 142 142 140 140 141 141 143 143 145 145 144 144 144 144 145 145 146 146 147 147 146 146 104 104 144 144 146 146 147 147 147 147 104 104 105 105 91 91 92 92 148 148 149 149 148 148 150 150 91 91 148 148 149 149 149 149 150 150 102 102 102 102 150 150 101 101 151 151 153 153 152 152 154 154 153 153 151 151 151 151 152 152 155 155 156 156 158 158 157 157 159 159 161 161 160 160 156 156 157 157 159 159 161 161 159 159 157 157 160 160 163 163 162 162 163 163 160 160 161 161 164 164 166 166 165 165 167 167 162 162 165 165 163 163 165 165 162 162 168 168 166 166 169 169 167 167 165 165 166 166 158 158 168 168 169 169 164 164 169 169 166 166 169 169 157 157 158 158 170 170 172 172 171 171 173 173 175 175 174 174 176 176 178 178 177 177 179 179 180 180 177 177 181 181 182 182 179 179 180 180 179 179 182 182 171 171 183 183 170 170 177 177 184 184 176 176 184 184 177 177 180 180 182 182 185 185 180 180 186 186 187 187 183 183 180 180 188 188 184 184 189 189 174 174 175 175 174 174 190 190 171 171 186 186 183 183 190 190 173 173 174 174 171 171 183 183 171 171 190 190 177 177 178 178 191 191 184 184 192 192 176 176 192 192 184 184 188 188 175 175 193 193 189 189 178 178 189 189 193 193 177 177 191 191 179 179 193 193 191 191 178 178 194 194 181 181 179 179 195 195 196 196 181 181 181 181 194 194 195 195 197 197 195 195 194 194 188 188 180 180 196 196 181 181 196 196 182 182 185 185 182 182 196 196 185 185 196 196 180 180 197 197 198 198 195 195 187 187 172 172 170 170 183 183 187 187 170 170 173 173 171 171 172 172 153 153 154 154 199 199 200 200 199 199 154 154 201 201 203 203 202 202 204 204 202 202 205 205 206 206 204 204 207 207 203 203 205 205 202 202 206 206 207 207 208 208 207 207 204 204 205 205 207 207 209 209 208 208 210 210 208 208 209 209 211 211 213 213 212 212 210 210 209 209 211 211 213 213 211 211 209 209 212 212 201 201 202 202 201 201 212 212 213 213 214 214 216 216 215 215 217 217 214 214 215 215 132 132 215 215 133 133 216 216 133 133 215 215 218 218 220 220 219 219 221 221 223 223 222 222 222 222 224 224 221 221 225 225 227 227 226 226 225 225 229 229 228 228 226 226 230 230 225 225 231 231 233 233 232 232 234 234 236 236 235 235 232 232 237 237 231 231 234 234 232 232 233 233 233 233 238 238 234 234 239 239 241 241 240 240 242 242 244 244 243 243 240 240 245 245 239 239 239 239 245 245 238 238 221 221 247 247 246 246 225 225 230 230 224 224 243 243 239 239 238 238 247 247 236 236 245 245 245 245 236 236 238 238 234 234 238 238 236 236 229 229 225 225 224 224 236 236 247 247 230 230 230 230 247 247 224 224 221 221 224 224 247 247 248 248 246 246 247 247 248 248 250 250 249 249 241 241 252 252 251 251 246 246 248 248 249 249 252 252 249 249 250 250 240 240 241 241 251 251 251 251 252 252 250 250 239 239 243 243 244 244 231 231 237 237 253 253 242 242 253 253 254 254 254 254 244 244 242 242 237 237 254 254 253 253 255 255 235 235 236 236 255 255 257 257 256 256 227 227 259 259 258 258 235 235 255 255 256 256 259 259 256 256 257 257 226 226 227 227 258 258 258 258 259 259 257 257 260 260 228 228 229 229 260 260 219 219 261 261 223 223 220 220 218 218 228 228 260 260 261 261 222 222 223 223 218 218 261 261 219 219 220 220 262 262 82 82 140 140 83 83 82 82 262 262 138 138 264 264 263 263 265 265 266 266 263 263 267 267 263 263 264 264 143 143 263 263 268 268 145 145 143 143 268 268 266 266 268 268 263 263 137 137 264 264 138 138 265 265 263 263 267 267 262 262 140 140 142 142 269 269 270 270 186 186 271 271 187 187 270 270 272 272 274 274 273 273 273 273 270 270 272 272 186 186 270 270 187 187 128 128 125 125 274 274 274 274 272 272 128 128 269 269 128 128 272 272 275 275 271 271 273 273 275 275 273 273 274 274 270 270 273 273 271 271 272 272 270 270 269 269 95 95 276 276 94 94 277 277 94 94 276 276 278 278 280 280 279 279 279 279 282 282 281 281 282 282 279 279 280 280 283 283 281 281 284 284 284 284 281 281 282 282 284 284 285 285 283 283 283 283 285 285 286 286 286 286 288 288 287 287 288 288 286 286 285 285 278 278 287 287 289 289 289 289 287 287 288 288 289 289 280 280 278 278 5 5 7 7 290 290 290 290 292 292 291 291 292 292 290 290 7 7 0 0 291 291 293 293 293 293 291 291 292 292 293 293 2 2 0 0</p>
				</triangles>
			</mesh>
		</geometry>
		<geometry id="base2_M1KShape5" name="base2_M1KShape5">
			<mesh>
				<source id="base2_M1KShape5.positions">
					<float_array id="base2_M1KShape5.positions-array" count="240" digits="2490374">0.0777544 -0.0777272 0.1985 0.0428008 -0.101317 0.1985 0.101328 -0.0427593 0.1985 -0.101328 0.0427593 0.1985 0.109975 3.1829e-05 0.1985 -0.109975 -3.1829e-05 0.1985 0.101316 0.0428155 0.1985 0.0777319 0.0777656 0.1985 0.0427715 0.101335 0.1985 -1.5914e-05 0.109975 0.1985 -0.0428008 0.101317 0.1985 -0.0777449 0.0779151 0.198477 -0.101316 -0.0428155 0.1985 -0.0778434 -0.0778066 0.198499 -0.0427715 -0.101335 0.1985 1.5914e-05 -0.109975 0.1985 0.0637992 -0.074836 0.029 0.0719985 -0.0719568 0.0713364 0.0822975 -0.0538221 0.029 -0.0741395 -0.0741825 0.113701 -0.0762681 -0.0717881 0.108018 -0.0778434 -0.0778066 0.198499 -0.0413938 -0.0981546 0.137611 0.0751513 -0.0751659 0.134322 0.098054 -0.0414343 0.136121 0.0938039 -0.0395948 0.0713364 0.0414489 -0.0980298 0.135962 0.0396491 -0.093781 0.0713364 3.3521e-05 -0.106358 0.135278 2.9461e-05 -0.101792 0.0713364 -0.0395948 -0.0938039 0.0713364 0.0941593 -0.0283832 0.029 0.0983444 2.8463e-05 0.029 -0.08167 -0.0733764 0.194965 -0.0425976 -0.0886473 0.029 -0.0664157 -0.0725299 0.029 -0.0161018 -0.0969443 0.0277228 0.104885 3.0356e-05 0.1137 0.109975 3.1829e-05 0.1985 0.101328 -0.0427593 0.1985 0.0777544 -0.0777272 0.1985 0.0428008 -0.101317 0.1985 1.5914e-05 -0.109975 0.1985 -0.0427715 -0.101335 0.1985 -0.0987157 -0.0493858 0.195572 -0.101316 -0.0428155 0.1985 -0.1098 -0.0106018 0.195583 -0.109975 -3.1829e-05 0.1985 0.0122413 -0.0975783 0.029 0.0397048 -0.0899731 0.029 -0.102552 0.0392969 0.195566 -0.101328 0.0427593 0.1985 -0.107978 0.020059 0.195627 -0.0745712 0.0735517 0.111808 -0.0414489 0.0980298 0.135962 -0.0777449 0.0779151 0.198477 -0.0396491 0.093781 0.0713364 -3.3521e-05 0.106358 0.135278 -2.9461e-05 0.101792 0.0713364 0.0413797 0.0980242 0.135491 0.0395948 0.0938039 0.0713364 0.0752177 0.0752579 0.135929 0.0719568 0.0719985 0.0713364 0.0981263 0.0414914 0.13767 0.093781 0.0396491 0.0713364 0.0450864 0.087435 0.0289345 0.0969225 0.0166636 0.029 0.0927461 0.0327075 0.029 0.0859343 0.0478221 0.029 0.0766062 0.0616694 0.029 0.00746309 0.0980298 0.0285926 -0.0314104 0.0932274 0.029 -0.0664157 0.0725299 0.029 -0.0937234 0.0572264 0.195371 -0.0816701 0.0733764 0.194965 -0.0428008 0.101317 0.1985 -1.5914e-05 0.109975 0.1985 0.0427715 0.101335 0.1985 0.0777319 0.0777656 0.1985 0.101316 0.0428155 0.1985</float_array>
					<technique_common>
						<accessor count="80" source="#base2_M1KShape5.positions-array" stride="3">
							<param name="X" type="float"/>
							<param name="Y" type="float"/>
							<param name="Z" type="float"/>
						</accessor>
					</technique_common>
				</source>
				<source id="base2_M1KShape5.normals">
					<float_array id="base2_M1KShape5.normals-array" count="240" digits="2490374">-0 0 1 -0 0 1 -0 0 1 -0 0 1 -0 0 1 -0 0 1 -0 0 1 -0 0 1 -0 0 1 -0 0 1 -0 0 1 -0 0 1 -0 0 1 -0 0 1 -0 0 1 -0 0 1 0.646752 -0.757905 -0.085391 0.705215 -0.704807 -0.076927 0.833347 -0.546113 -0.085399 -0.705244 -0.705652 -0.068457 -0.672015 -0.737723 -0.064514 -0.707728 -0.704606 -0.051488 -0.388688 -0.919165 -0.063696 0.705299 -0.705985 -0.064329 0.919261 -0.388411 -0.064002 0.918386 -0.388131 -0.076946 0.389053 -0.918988 -0.06402 0.388663 -0.918161 -0.076946 0.000313 -0.997941 -0.064141 0.000289 -0.997037 -0.076926 -0.388131 -0.918386 -0.076946 0.954057 -0.287195 -0.085412 0.996348 0.000288 -0.085389 -0.742823 -0.667361 -0.053323 -0.432177 -0.897735 -0.085409 -0.673047 -0.735009 -0.082281 -0.161974 -0.983071 -0.085654 0.997654 0.000289 -0.068457 0.998673 0.000289 -0.051499 0.919932 -0.388679 -0.051512 0.706292 -0.706045 -0.051499 0.389034 -0.919782 -0.051512 0.000148 -0.998673 -0.051499 -0.388753 -0.919901 -0.051512 -0.89268 -0.447714 -0.051717 -0.919732 -0.389151 -0.051512 -0.994126 -0.095011 -0.051838 -0.998673 -0.000289 -0.051499 0.122779 -0.988753 -0.085398 0.402748 -0.911317 -0.085411 -0.932448 0.357529 -0.0521 -0.919932 0.388679 -0.051512 -0.982051 0.18128 -0.052083 -0.709322 0.701473 -0.069265 -0.389053 0.918988 -0.06402 -0.706703 0.705634 -0.051493 -0.388663 0.918161 -0.076946 -0.000313 0.997941 -0.064141 -0.000289 0.997037 -0.076926 0.388515 0.919209 -0.064115 0.388131 0.918386 -0.076946 0.705467 0.705847 -0.06401 0.704807 0.705215 -0.076927 0.919322 0.388317 -0.063687 0.918161 0.388663 -0.076946 0.457389 0.885155 -0.085419 0.98214 0.16765 -0.085403 0.93963 0.331362 -0.085413 0.870174 0.485286 -0.085405 0.775725 0.625267 -0.085392 0.074592 0.993544 -0.085479 -0.318009 0.944232 -0.085412 -0.673076 0.735043 -0.081734 -0.851824 0.521227 -0.052133 -0.742832 0.667389 -0.052842 -0.389034 0.919782 -0.051512 -0.000148 0.998673 -0.051499 0.388753 0.919901 -0.051512 0.706015 0.706322 -0.051499 0.919732 0.389151 -0.051512</float_array>
					<technique_common>
						<accessor count="80" source="#base2_M1KShape5.normals-array" stride="3">
							<param name="X" type="float"/>
							<param name="Y" type="float"/>
							<param name="Z" type="float"/>
						</accessor>
					</technique_common>
				</source>
				<vertices id="base2_M1KShape5.vertices">
					<input semantic="POSITION" source="#base2_M1KShape5.positions"/>
				</vertices>
				<triangles count="100" material="blinn25.material">
					<input offset="0" semantic="VERTEX" source="#base2_M1KShape5.vertices" set="0"/>
					<input offset="1" semantic="NORMAL" source="#base2_M1KShape5.normals" set="0"/>
					<p>0 0 2 2 1 1 2 2 4 4 3 3 3 3 5 5 2 2 4 4 6 6 3 3 6 6 7 7 3 3 7 7 8 8 3 3 8 8 9 9 3 3 9 9 10 10 3 3 11 11 3 3 10 10 5 5 12 12 2 2 12 12 13 13 2 2 13 13 14 14 2 2 14 14 15 15 2 2 15 15 1 1 2 2 16 16 18 18 17 17 19 19 21 21 20 20 21 21 19 19 22 22 23 23 17 17 24 24 25 25 24 24 17 17 26 26 27 27 23 23 17 17 23 23 27 27 28 28 29 29 26 26 27 27 26 26 29 29 22 22 30 30 28 28 29 29 28 28 30 30 22 22 19 19 30 30 31 31 32 32 25 25 19 19 20 20 30 30 33 33 20 20 21 21 34 34 30 30 35 35 35 35 30 30 20 20 29 29 30 30 36 36 24 24 25 25 37 37 32 32 37 37 25 25 38 38 39 39 24 24 38 38 24 24 37 37 23 23 24 24 40 40 23 23 40 40 26 26 39 39 40 40 24 24 26 26 41 41 28 28 41 41 26 26 40 40 28 28 42 42 22 22 42 42 28 28 41 41 22 22 43 43 21 21 43 43 22 22 42 42 21 21 45 45 44 44 44 44 45 45 46 46 33 33 21 21 44 44 47 47 46 46 45 45 36 36 48 48 29 29 34 34 36 36 30 30 29 29 48 48 27 27 17 17 27 27 16 16 49 49 27 27 48 48 25 25 17 17 18 18 49 49 16 16 27 27 31 31 25 25 18 18 50 50 52 52 51 51 53 53 55 55 54 54 54 54 56 56 53 53 57 57 58 58 54 54 56 56 54 54 58 58 59 59 60 60 57 57 58 58 57 57 60 60 61 61 62 62 59 59 60 60 59 59 62 62 63 63 64 64 61 61 62 62 61 61 64 64 60 60 62 62 65 65 63 63 37 37 64 64 38 38 37 37 63 63 32 32 66 66 64 64 32 32 64 64 37 37 66 66 67 67 64 64 67 67 68 68 64 64 68 68 69 69 64 64 62 62 64 64 69 69 58 58 60 60 70 70 69 69 65 65 62 62 56 56 58 58 71 71 65 65 70 70 60 60 71 71 72 72 56 56 70 70 71 71 58 58 72 72 53 53 56 56 73 73 55 55 74 74 74 74 55 55 53 53 47 47 51 51 52 52 50 50 51 51 73 73 51 51 55 55 73 73 54 54 75 75 57 57 75 75 54 54 55 55 57 57 76 76 59 59 76 76 57 57 75 75 59 59 77 77 61 61 77 77 59 59 76 76 61 61 78 78 63 63 78 78 61 61 77 77 38 38 63 63 79 79 79 79 63 63 78 78 46 46 47 47 52 52</p>
				</triangles>
			</mesh>
		</geometry>
	</library_geometries>
	<library_visual_scenes>
		<visual_scene id="VisualSceneNode" name="base1d_med">
			<node id="base_link.dae" name="base_link.dae">
				<instance_geometry url="#base2_M1KShape0">
					<bind_material>
						<technique_common>
							<instance_material symbol="blinn20.material" target="#blinn20.material"/>
						</technique_common>
					</bind_material>
				</instance_geometry>
				<instance_geometry url="#base2_M1KShape1">
					<bind_material>
						<technique_common>
							<instance_material symbol="blinn21.material" target="#blinn21.material"/>
						</technique_common>
					</bind_material>
				</instance_geometry>
				<instance_geometry url="#base2_M1KShape2">
					<bind_material>
						<technique_common>
							<instance_material symbol="blinn22.material" target="#blinn22.material"/>
						</technique_common>
					</bind_material>
				</instance_geometry>
				<instance_geometry url="#base2_M1KShape3">
					<bind_material>
						<technique_common>
							<instance_material symbol="blinn23.material" target="#blinn23.material"/>
						</technique_common>
					</bind_material>
				</instance_geometry>
				<instance_geometry url="#base2_M1KShape4">
					<bind_material>
						<technique_common>
							<instance_material symbol="blinn24.material" target="#blinn24.material"/>
						</technique_common>
					</bind_material>
				</instance_geometry>
				<instance_geometry url="#base2_M1KShape5">
					<bind_material>
						<technique_common>
							<instance_material symbol="blinn25.material" target="#blinn25.material"/>
						</technique_common>
					</bind_material>
				</instance_geometry>
			</node>
		</visual_scene>
	</library_visual_scenes>
	<scene>
		<instance_visual_scene url="#VisualSceneNode"/>
	</scene>
</COLLADA>
