<?xml version="1.0" encoding="UTF-8"?>
<COLLADA xmlns="http://www.collada.org/2008/03/COLLADASchema" version="1.5.0">
	<asset>
		<contributor>
			<author>DENSO WAVE</author>
			<comments/>
		</contributor>
		<unit/>
		<up_axis>Y_UP</up_axis>
	</asset>
	<library_materials>
		<material id="blinn20.material" name="blinn20">
			<instance_effect url="#blinn20.effect"/>
		</material>
	</library_materials>
	<library_effects>
		<effect id="blinn20.effect">
			<profile_COMMON>
				<technique sid="common">
					<phong>
						<emission>
							<color>0.04 0.04 0.04 1</color>
						</emission>
						<diffuse>
							<color>1 1 1 1</color>
						</diffuse>
						<specular>
							<color>0.2 0.2 0.2 1</color>
						</specular>
					</phong>
				</technique>
			</profile_COMMON>
		</effect>
	</library_effects>
	<library_geometries>
		<geometry id="base2_M1KShape0" name="base2_M1KShape0">
			<mesh>
				<source id="base2_M1KShape0.positions">
					<float_array id="base2_M1KShape0.positions-array" count="843" digits="2490374">-0.0889679 0.0653527 0.199021 -0.0915711 0.0666044 0.274488 -0.100954 0.0452238 0.199032 -0.0878219 -0.0724345 0.2717 -0.0881364 -0.0658624 0.199 -0.100712 -0.0500524 0.266852 -0.0315401 0.0650168 0.450262 -0.0323216 0.0742834 0.445312 -0.00358191 0.0650027 0.469934 -0.00467917 0.0975176 0.459537 -0.0252346 0.0967099 0.443789 -0.0410257 0.0969735 0.419374 -0.0620296 0.0648682 0.406649 -0.0749074 0.0671415 0.373975 -0.0520022 0.0971006 0.39009 -0.0618365 0.0955568 0.35407 -0.0820367 0.0704095 0.340887 -0.0728859 0.0895588 0.292629 -0.0852573 0.0742771 0.300785 -0.0866693 0.0729363 0.284079 -0.108194 0.0265482 0.265537 -0.108812 0.0239437 0.236654 -0.111292 1.46e-07 0.236792 -0.108697 -0.0256312 0.263693 -0.0701748 -0.0848714 0.199001 -0.0718443 -0.0906447 0.28911 -0.0835013 -0.0713332 0.33197 -0.0851345 -0.0755609 0.284287 -0.0749299 -0.0671524 0.373751 -0.0606695 -0.0966812 0.355177 -0.0519015 -0.0966981 0.391954 -0.0603655 -0.0650098 0.409585 -0.0405242 -0.0969521 0.420232 -0.0333015 -0.064978 0.44862 -0.0252102 -0.0966391 0.444062 -0.013198 -0.065 0.464218 -0.00275001 -0.0651344 0.469817 -0.00647281 -0.0967548 0.459722 -0.0667391 0.0880247 0.199008 -0.106756 0.0266246 0.199 -0.109959 0.00382223 0.199 -0.107993 -0.0210573 0.199 -0.100591 -0.0445766 0.199 -0.0454192 -0.106035 0.36862 -0.0549813 -0.0999827 0.258437 -0.0475487 -0.0995549 0.199 -0.0322914 -0.111515 0.368206 0.0538982 -0.116539 0.364731 0.0831992 -0.114005 0.403098 0.0680988 -0.113161 0.344677 0.0616293 -0.113821 0.44301 0.0930003 -0.108919 0.424145 0.0488446 -0.117364 0.413506 0.016881 -0.116146 0.427245 -0.0114016 -0.112149 0.430436 0.00421567 -0.111207 0.448602 0.02672 -0.110204 0.459301 0.0504883 -0.108962 0.4598 0.0756097 -0.108076 0.447388 0.0951298 -0.107753 0.372003 0.0989244 -0.108297 0.40014 0.0576726 0.0982062 0.243876 0.0650686 0.102437 0.288918 0.0434029 0.105342 0.253953 0.0480518 0.0992865 0.199 0.0715043 0.0841232 0.199002 0.0658856 0.111156 0.329159 0.0394484 0.112131 0.300826 0.0746679 0.105157 0.32298 0.0664162 0.0921807 0.248904 0.0147255 0.0652082 0.475549 0.0195643 0.0971057 0.468265 0.0564945 0.065043 0.472838 0.0666289 0.0945385 0.460458 0.0846911 0.0650406 0.456162 0.0981934 0.0936339 0.426891 0.109888 0.0650025 0.415411 0.0971448 0.0650345 0.442189 0.100191 0.107272 0.402944 0.0926088 0.108884 0.424525 0.079246 0.0977908 0.449839 0.0489914 0.0974562 0.466478 0.0325653 0.0661745 0.476815 -0.0476175 0.103644 0.374414 -0.0410257 0.0969735 0.419374 -0.0252346 0.0967099 0.443789 -0.0111905 0.112308 0.430326 -0.00467917 0.0975176 0.459537 0.00401161 0.11078 0.448995 0.0195643 0.0971057 0.468265 0.0261306 0.110485 0.458822 0.0513884 0.108881 0.459502 0.0755857 0.107976 0.447562 -0.0254469 0.112579 0.399826 -0.0361109 0.110163 0.359179 -0.0604937 0.0978903 0.274731 -0.0408781 0.102233 0.199018 0.0988827 0.0255578 0.250097 0.102987 -0.00362183 0.246155 0.0836758 0.0643948 0.261203 -0.100712 -0.0500524 0.266852 -0.083213 -0.00417733 0.275113 -0.0878219 -0.0724345 0.2717 -0.0541634 0.0538723 0.284611 -0.0548909 -0.0637459 0.281456 -0.0245076 -0.0606688 0.284873 -0.0267031 0.0505209 0.287758 0.00396353 -0.0595233 0.283877 0.00410517 0.0485026 0.286837 0.0339665 0.0490747 0.281263 0.0316121 -0.0601281 0.278954 0.0583023 0.049835 0.273109 0.0574946 -0.0637992 0.270316 0.0813387 -0.0718861 0.258419 0.0946811 -0.0436376 0.250757 -0.0715421 0.0611599 0.281214 -0.0915711 0.0666044 0.274488 -0.108194 0.0265482 0.265537 -0.108697 -0.0256312 0.263693 0.0591868 -0.0976081 0.246168 0.0437121 -0.105284 0.254408 0.0658897 -0.103055 0.293289 0.0453159 -0.0999547 0.199041 0.0406318 -0.111781 0.299945 0.0704549 -0.0853143 0.199014 0.0653335 -0.0939483 0.256739 0.0748122 -0.105003 0.323238 0.0842239 0.11359 0.402398 0.0544542 0.116693 0.364928 0.0774215 0.113062 0.366715 0.0554616 0.116909 0.417324 0.0150432 0.116139 0.425268 0.0569811 0.114807 0.441892 0.0261306 0.110485 0.458822 0.0926088 0.108884 0.424525 0.0513884 0.108881 0.459502 0.0755857 0.107976 0.447562 0.00401161 0.11078 0.448995 -0.0111905 0.112308 0.430326 0.100191 0.107272 0.402944 0.0966767 0.107662 0.376161 0.0117821 0.117375 0.364868 0.0541946 -0.0672072 0.279024 0.013839 -0.0649867 0.291764 -0.0326009 -0.0647773 0.290307 -0.0641253 -0.0708843 0.287298 -0.0290615 -0.0657797 0.301483 0.0537004 -0.0665357 0.294556 0.078777 -0.0734262 0.273801 -0.0851345 -0.0755609 0.284287 -0.00358191 0.0650027 0.469934 0.0147255 0.0652082 0.475549 0.0564945 0.065043 0.472838 -0.00835322 0.0649794 0.305144 0.110988 0.0649892 0.381832 -0.0315401 0.0650168 0.450262 -0.0620296 0.0648682 0.406649 0.109888 0.0650025 0.415411 0.0971448 0.0650345 0.442189 0.0846911 0.0650406 0.456162 0.0325653 0.0661745 0.476815 0.0458793 -0.0962662 0.46795 0.0176055 -0.0960504 0.468728 0.0275889 -0.0650159 0.47728 0.0509051 -0.065092 0.47446 0.075804 -0.0972346 0.453316 0.0684229 -0.065741 0.467415 0.0842695 -0.0652138 0.456621 0.0957637 -0.0968007 0.42957 0.0964171 -0.0650049 0.443386 0.105936 -0.0650099 0.426314 0.0989244 -0.108297 0.40014 0.0930003 -0.108919 0.424145 0.10601 -0.0868301 0.407039 0.112063 -0.064995 0.398346 -0.0513925 0.0681273 0.301947 0.0471097 0.0662493 0.293721 0.0886554 0.0662128 0.321141 -0.0749074 0.0671415 0.373975 -0.0820367 0.0704095 0.340887 -0.0852573 0.0742771 0.300785 0.079607 0.0720571 0.280163 0.112063 -0.064995 0.398346 -0.0603655 -0.0650098 0.409585 0.105936 -0.0650099 0.426314 0.0964171 -0.0650049 0.443386 -0.0333015 -0.064978 0.44862 -0.013198 -0.065 0.464218 -0.00275001 -0.0651344 0.469817 0.0275889 -0.0650159 0.47728 0.0509051 -0.065092 0.47446 0.0684229 -0.065741 0.467415 0.0842695 -0.0652138 0.456621 0.101332 -0.0649499 0.352297 0.0241052 0.107269 0.199 0.0220212 0.110763 0.258531 0.00271329 0.109639 0.199966 -0.0126399 0.115746 0.36879 -0.0196703 0.110116 0.268109 -0.0192656 0.108564 0.199046 -0.0254469 0.112579 0.399826 0.106217 0.0819444 0.3791 0.095664 0.0811398 0.347409 0.110988 0.0649892 0.381832 0.106927 0.0235955 0.224796 0.0988827 0.0255578 0.250097 0.0995691 0.0452478 0.227273 0.109376 -3.4e-08 0.22476 0.0995657 -0.0464879 0.224896 0.0946811 -0.0436376 0.250757 0.106927 -0.0235956 0.224796 0.0813387 -0.0718861 0.258419 0.087356 -0.0677972 0.225044 0.0886554 0.0662128 0.321141 0.0794945 0.0789089 0.301548 0.079607 0.0720571 0.280163 0.0858528 0.0690506 0.231212 0.0836758 0.0643948 0.261203 0.102987 -0.00362183 0.246155 0.106217 -0.0819445 0.3791 0.101332 -0.0649499 0.352297 0.0954234 -0.0811469 0.346902 0.0823868 -0.0697591 0.300629 0.0963371 -0.0536346 0.198997 0.109446 -0.0156373 0.198999 0.1068 0.0286698 0.198999 0.0917008 0.0608006 0.199 0.0966767 0.107662 0.376161 0.0951298 -0.107753 0.372003 0.078777 -0.0734262 0.273801 0.0823868 -0.0697591 0.300629 -0.0835013 -0.0713332 0.33197 -0.0749299 -0.0671524 0.373751 0.0756097 -0.108076 0.447388 0.0504883 -0.108962 0.4598 0.02672 -0.110204 0.459301 0.0176055 -0.0960504 0.468728 -0.00647281 -0.0967548 0.459722 0.00421567 -0.111207 0.448602 -0.0252102 -0.0966391 0.444062 -0.0114016 -0.112149 0.430436 -0.0405242 -0.0969521 0.420232 -0.0219558 -0.11337 0.404726 -0.0191796 -0.108571 0.199 0.0241052 0.107269 0.199 -0.0475487 -0.0995549 0.199 0.0480518 0.0992865 0.199 -0.0701748 -0.0848714 0.199001 -0.0881364 -0.0658624 0.199 -0.100591 -0.0445766 0.199 -0.107993 -0.0210573 0.199 -0.109959 0.00382223 0.199 -0.106756 0.0266246 0.199 -0.100954 0.0452238 0.199032 -0.0889679 0.0653527 0.199021 -0.0667391 0.0880247 0.199008 -0.0408781 0.102233 0.199018 -0.0192656 0.108564 0.199046 0.00271329 0.109639 0.199966 0.0715043 0.0841232 0.199002 0.0917008 0.0608006 0.199 0.1068 0.0286698 0.198999 0.109446 -0.0156373 0.198999 0.0963371 -0.0536346 0.198997 0.0704549 -0.0853143 0.199014 0.0453159 -0.0999547 0.199041 0.0130064 -0.109729 0.199032 0.0643088 0.0643561 0.274804 -0.0367374 0.0619209 0.291991 0.00831507 0.0584971 0.290102 0.0448266 0.0621764 0.283074 -0.0866693 0.0729363 0.284079 0.00947411 0.0632329 0.296308 0.0130064 -0.109729 0.199032 -0.0219558 -0.11337 0.404726 0.0127221 -0.117336 0.361762 -0.0132947 -0.115 0.350108 0.0218243 -0.110832 0.259124 -0.0191542 -0.110192 0.267881 0.00234055 -0.111807 0.261879 -0.0191796 -0.108571 0.199</float_array>
					<technique_common>
						<accessor count="281" source="#base2_M1KShape0.positions-array" stride="3">
							<param name="X" type="float"/>
							<param name="Y" type="float"/>
							<param name="Z" type="float"/>
						</accessor>
					</technique_common>
				</source>
				<source id="base2_M1KShape0.normals">
					<float_array id="base2_M1KShape0.normals-array" count="843" digits="2490374">-0.800225 0.595415 -0.071566 -0.85925 0.511127 0.020946 -0.905453 0.418479 -0.070928 -0.805545 -0.592155 -0.02123 -0.800039 -0.597739 -0.051427 -0.916034 -0.400529 0.0214 -0.71598 0.15904 0.679764 -0.729834 0.215576 0.648745 -0.405511 0.146127 0.902334 -0.442651 0.342519 0.828699 -0.71382 0.359727 0.600881 -0.784715 0.482165 0.389536 -0.86371 0.230955 0.447956 -0.903861 0.29573 0.30916 -0.708861 0.672102 0.213996 -0.647028 0.756931 0.091711 -0.89786 0.397255 0.189829 -0.633416 0.773502 -0.021867 -0.841861 0.536001 0.063025 -0.832399 0.553484 0.027677 -0.976242 0.206012 0.067154 -0.978687 0.205185 -0.008367 -0.999999 1e-06 -0.001578 -0.977665 -0.205326 0.044853 -0.639969 -0.765436 -0.067437 -0.617329 -0.786285 -0.025705 -0.887389 -0.433778 0.156132 -0.81476 -0.57947 0.019512 -0.903368 -0.297573 0.30883 -0.628517 -0.772841 0.087655 -0.722447 -0.654516 0.222887 -0.858104 -0.223993 0.462043 -0.783324 -0.479055 0.396118 -0.719786 -0.15048 0.67769 -0.711924 -0.356135 0.605253 -0.531001 -0.151621 0.833696 -0.387719 -0.146685 0.910032 -0.463813 -0.333229 0.820875 -0.605586 0.793203 -0.063988 -0.968995 0.241723 -0.051167 -0.998096 0.034797 -0.050935 -0.980253 -0.191083 -0.050904 -0.913077 -0.404573 -0.051106 -0.453306 -0.890392 0.041421 -0.416922 -0.907918 -0.043146 -0.424777 -0.903572 -0.055882 -0.318519 -0.94784 -0.012021 0.073906 -0.995627 -0.057133 0.196666 -0.980432 0.008697 0.207944 -0.968398 -0.137711 0.12632 -0.966062 0.225316 0.439553 -0.875197 0.202047 0.029356 -0.999296 0.02334 -0.060777 -0.994091 0.089943 -0.164664 -0.975813 0.143789 -0.12527 -0.968725 0.214195 -0.031445 -0.948319 0.315758 0.145199 -0.892488 0.427063 0.436659 -0.887717 0.145903 0.388855 -0.906023 -0.167078 0.471871 -0.881086 0.032026 0.489389 0.864639 -0.11357 0.607414 0.764603 -0.215477 0.313281 0.945146 -0.092489 0.434901 0.898894 -0.053393 0.652455 0.755588 -0.058218 0.254377 0.952702 -0.166287 0.140043 0.983432 -0.115104 0.660874 0.682163 -0.312889 0.681367 0.728514 -0.070754 -0.18454 0.148041 0.971611 -0.133012 0.337177 0.931997 0.319899 0.141695 0.936796 0.462929 0.319813 0.82669 0.658696 0.145682 0.738171 0.860942 0.312622 0.401307 0.957222 0.150634 0.247055 0.808957 0.146562 0.569306 0.910821 0.40016 0.101377 0.82063 0.420143 0.387358 0.627577 0.346152 0.69737 0.233903 0.378547 0.89554 0.031008 0.152831 0.987766 -0.521354 0.848198 0.09354 -0.596319 0.743345 0.303054 -0.502871 0.748546 0.432203 -0.47465 0.816052 0.329797 -0.344141 0.700262 0.62546 -0.384023 0.737249 0.555868 -0.118551 0.590299 0.798431 -0.161178 0.61741 0.769952 0.203406 0.477224 0.854917 0.596754 0.401707 0.694634 -0.399747 0.910307 0.107445 -0.340484 0.940084 -0.017696 -0.473596 0.879672 -0.043395 -0.332586 0.941944 -0.046131 0.579291 -0.026201 0.8147 0.60195 -0.026177 0.798105 0.509847 -0.062842 0.857967 -0.415043 -0.040774 0.908888 -0.323738 -0.039314 0.94533 -0.394806 0.137649 0.908395 -0.185789 -0.051047 0.981263 -0.199024 0.034662 0.979382 -0.038695 0.015814 0.999126 -0.047543 -0.047658 0.997732 0.107375 0.032044 0.993702 0.106495 -0.048526 0.993128 0.254971 -0.050246 0.965642 0.250764 0.042475 0.967116 0.376277 -0.033663 0.925895 0.389006 0.044589 0.920156 0.51146 0.029232 0.85881 0.559866 -0.038758 0.827676 -0.298444 -0.183286 0.936663 -0.393928 -0.135285 0.909131 -0.452306 -0.026207 0.891478 -0.45767 -0.026186 0.888737 0.52419 -0.843784 -0.115124 0.314927 -0.944508 -0.09341 0.584872 -0.778967 -0.226132 0.413603 -0.909016 -0.051222 0.150623 -0.9811 -0.121474 0.631017 -0.773177 -0.063362 0.706735 -0.702218 -0.086111 0.671165 -0.670927 -0.315268 0.218815 0.975733 0.008008 0.066878 0.996254 -0.054814 0.225721 0.968805 -0.102312 0.046824 0.998341 0.033516 -0.063521 0.994438 0.084019 0.066573 0.982547 0.173692 -0.035432 0.952609 0.302128 0.436451 0.875836 0.205965 0.123639 0.899739 0.418548 0.38511 0.806761 0.448137 -0.126442 0.9663 0.224224 -0.163448 0.976639 0.1395 0.503403 0.862238 0.05595 0.398756 0.905293 -0.146418 -0.028967 0.998965 -0.035062 0.215283 0.969218 0.119453 0.01218 0.999858 0.011664 -0.108489 0.955081 0.275774 -0.190057 0.981299 -0.030495 -0.064901 0.997605 -0.023915 0.057614 0.99392 -0.093824 0.251734 0.963974 -0.085934 -0.261417 0.965025 -0.019699 2e-06 -1 -0 -2e-06 -1 2e-06 -2e-06 -1 2e-06 -0.004626 -0.999963 0.007319 -0.002873 -0.999991 0.003164 0.000642 -1 3.2e-05 -0.012325 -0.999922 -0.001982 -2e-06 -1 2e-06 -2e-06 -1 2e-06 -2e-06 -1 2e-06 -2e-06 -1 2e-06 0.19494 -0.373102 0.90708 -0.157785 -0.322902 0.933187 -0.03018 -0.147435 0.988611 0.253222 -0.13609 0.957788 0.58237 -0.335959 0.740254 0.46393 -0.145371 0.873863 0.653783 -0.146044 0.742455 0.834261 -0.333646 0.438964 0.79966 -0.145089 0.58266 0.914535 -0.145651 0.377376 0.906548 -0.417187 0.06423 0.824738 -0.417755 0.381166 0.950572 -0.271562 0.150556 0.988264 -0.151041 0.022835 -0.134489 -0.990315 -0.034468 0.055925 -0.997611 -0.040547 0.1137 -0.986861 -0.114792 -0.148563 -0.987799 -0.046709 -0.185162 -0.980276 -0.069095 -0.213152 -0.971417 -0.104474 0.28338 -0.958079 -0.042196 -0.00055 0.999999 0.001088 -0.002855 0.999996 -0.000563 8e-06 1 3e-06 3.6e-05 1 9e-06 0.000424 1 8.8e-05 -1e-06 1 1e-06 -1e-06 1 1e-06 -1e-06 1 1e-06 -1e-06 1 1e-06 -1e-06 1 1e-06 -1e-06 1 1e-06 0.033883 0.998915 -0.031942 0.225634 0.973367 -0.040585 0.124907 0.990268 -0.061379 0.026197 0.99911 -0.033048 -0.131403 0.991081 -0.022162 -0.158371 0.986646 -0.038064 -0.183959 0.982418 -0.031828 -0.338761 0.937094 0.084233 0.946425 0.242652 -0.213073 0.893811 0.240068 -0.378773 0.968164 0.150878 -0.199734 0.96949 0.203045 0.137337 0.902616 0.153103 0.402299 0.909329 0.390469 0.143719 0.988428 -0 0.15169 0.911138 -0.400974 0.095119 0.90429 -0.270342 0.330415 0.96949 -0.203046 0.137337 0.879722 -0.454071 0.141097 0.810792 -0.584705 0.027134 0.91332 0.169878 -0.37012 0.940348 0.243849 -0.23724 0.960903 0.275076 0.031614 0.810817 0.580458 0.075131 0.910871 0.365909 0.190852 0.910495 -0.014667 0.41326 0.946425 -0.242652 -0.213073 0.915469 -0.163128 -0.367839 0.893697 -0.239557 -0.379365 0.964521 -0.136216 -0.226153 0.873143 -0.484081 -0.057328 0.988789 -0.141052 -0.048987 0.964662 0.259193 -0.047396 0.832392 0.551874 -0.050584 0.871314 0.397992 -0.287078 0.85311 -0.412217 -0.319814 0.944509 -0.32426 0.052514 0.205197 0.961896 -0.180695 -0.187626 0.978425 -0.08649 -0.148697 0.987746 -0.047414 0.598763 -0.401941 0.692767 0.187504 -0.477446 0.858422 -0.14706 -0.613552 0.77584 -0.13003 -0.595959 0.792417 -0.35282 -0.702468 0.618108 -0.387648 -0.737778 0.552642 -0.50154 -0.748353 0.43408 -0.477824 -0.814544 0.328942 -0.587154 -0.750903 0.302316 -0.447067 -0.88086 0.155615 1e-06 -2e-06 -1 1e-06 -2e-06 -1 1e-06 -2e-06 -1 1e-06 -2e-06 -1 1e-06 -2e-06 -1 1e-06 -2e-06 -1 1e-06 -2e-06 -1 1e-06 -2e-06 -1 1e-06 -2e-06 -1 1e-06 -2e-06 -1 1e-06 -2e-06 -1 1e-06 -2e-06 -1 1e-06 -2e-06 -1 1e-06 -2e-06 -1 1e-06 -2e-06 -1 1e-06 -2e-06 -1 1e-06 -2e-06 -1 1e-06 -2e-06 -1 1e-06 -2e-06 -1 1e-06 -2e-06 -1 1e-06 -2e-06 -1 1e-06 -2e-06 -1 1e-06 -2e-06 -1 1e-06 -2e-06 -1 0.427505 -0.632418 0.645977 -0.134929 -0.713552 0.687486 0.10368 -0.601671 0.791987 0.266763 -0.719801 0.640877 -0.382845 -0.813117 0.438487 0.059445 -0.919024 0.389694 0.125907 -0.991408 -0.035475 -0.199665 -0.977803 0.063522 -0.024564 -0.999055 -0.035863 -0.123917 -0.991448 -0.040932 0.119429 -0.990786 -0.063871 -0.153581 -0.987361 -0.039125 -0.017695 -0.99929 -0.033277 -0.183062 -0.982591 -0.031664</float_array>
					<technique_common>
						<accessor count="281" source="#base2_M1KShape0.normals-array" stride="3">
							<param name="X" type="float"/>
							<param name="Y" type="float"/>
							<param name="Z" type="float"/>
						</accessor>
					</technique_common>
				</source>
				<vertices id="base2_M1KShape0.vertices">
					<input semantic="POSITION" source="#base2_M1KShape0.positions"/>
				</vertices>
				<triangles count="372" material="blinn20.material">
					<input offset="0" semantic="VERTEX" source="#base2_M1KShape0.vertices" set="0"/>
					<input offset="1" semantic="NORMAL" source="#base2_M1KShape0.normals" set="0"/>
					<p>0 0 2 2 1 1 3 3 5 5 4 4 6 6 8 8 7 7 8 8 9 9 7 7 9 9 10 10 7 7 10 10 11 11 7 7 7 7 11 11 12 12 13 13 12 12 14 14 14 14 15 15 13 13 11 11 14 14 12 12 13 13 15 15 16 16 17 17 18 18 16 16 19 19 18 18 17 17 15 15 17 17 16 16 2 2 21 21 20 20 1 1 17 17 0 0 20 20 1 1 2 2 19 19 17 17 1 1 22 22 20 20 21 21 20 20 22 22 23 23 24 24 25 25 3 3 26 26 27 27 25 25 3 3 25 25 27 27 28 28 26 26 29 29 25 25 29 29 26 26 29 29 30 30 28 28 31 31 28 28 30 30 30 30 32 32 31 31 33 33 31 31 32 32 32 32 34 34 33 33 35 35 33 33 36 36 33 33 34 34 36 36 37 37 36 36 34 34 17 17 38 38 0 0 21 21 2 2 39 39 22 22 21 21 40 40 23 23 22 22 41 41 39 39 40 40 21 21 41 41 42 42 23 23 40 40 41 41 22 22 5 5 23 23 42 42 7 7 12 12 6 6 4 4 24 24 3 3 42 42 4 4 5 5 29 29 25 25 43 43 44 44 43 43 25 25 45 45 44 44 24 24 44 44 25 25 24 24 44 44 46 46 43 43 47 47 49 49 48 48 48 48 51 51 50 50 48 48 52 52 47 47 52 52 48 48 50 50 53 53 52 52 50 50 54 54 53 53 55 55 55 55 53 53 56 56 50 50 56 56 53 53 56 56 50 50 57 57 57 57 50 50 58 58 48 48 49 49 59 59 59 59 60 60 48 48 48 48 60 60 51 51 51 51 58 58 50 50 61 61 63 63 62 62 61 61 65 65 64 64 64 64 63 63 61 61 62 62 67 67 66 66 66 66 68 68 62 62 69 69 61 61 62 62 65 65 61 61 69 69 63 63 67 67 62 62 70 70 71 71 8 8 72 72 74 74 73 73 75 75 77 77 76 76 78 78 75 75 76 76 78 78 79 79 75 75 75 75 80 80 77 77 77 77 80 80 74 74 74 74 80 80 73 73 72 72 73 73 81 81 82 82 72 72 81 81 81 81 71 71 82 82 82 82 71 71 70 70 9 9 8 8 71 71 83 83 14 14 84 84 85 85 86 86 84 84 87 87 88 88 85 85 86 86 85 85 88 88 89 89 90 90 87 87 88 88 87 87 90 90 81 81 91 91 89 89 90 90 89 89 91 91 80 80 92 92 81 81 91 91 81 81 92 92 84 84 93 93 83 83 93 93 84 84 86 86 75 75 79 79 80 80 92 92 80 80 79 79 83 83 93 93 94 94 15 15 14 14 83 83 81 81 73 73 80 80 83 83 95 95 15 15 95 95 96 96 38 38 83 83 94 94 95 95 17 17 95 95 38 38 96 96 95 95 94 94 17 17 15 15 95 95 97 97 99 99 98 98 100 100 102 102 101 101 103 103 101 101 104 104 104 104 105 105 103 103 106 106 103 103 105 105 105 105 107 107 106 106 108 108 106 106 107 107 109 109 108 108 110 110 107 107 110 110 108 108 110 110 111 111 109 109 111 111 110 110 112 112 112 112 113 113 111 111 99 99 111 111 113 113 102 102 104 104 101 101 99 99 113 113 98 98 114 114 98 98 113 113 115 115 116 116 101 101 115 115 101 101 103 103 116 116 117 117 101 101 117 117 118 118 101 101 100 100 101 101 118 118 119 119 121 121 120 120 120 120 122 122 119 119 120 120 121 121 123 123 122 122 124 124 119 119 124 124 125 125 119 119 121 121 119 119 125 125 126 126 49 49 121 121 121 121 49 49 123 123 127 127 129 129 128 128 128 128 130 130 127 127 131 131 132 132 130 130 131 131 133 133 132 132 130 130 132 132 127 127 134 134 127 127 132 132 132 132 133 133 135 135 136 136 134 134 132 132 137 137 131 131 138 138 133 133 131 131 137 137 127 127 134 134 139 139 129 129 127 127 140 140 139 139 140 140 127 127 130 130 141 141 131 131 141 141 130 130 128 128 135 135 136 136 132 132 110 110 142 142 112 112 142 142 110 110 143 143 107 107 143 143 110 110 105 105 144 144 107 107 143 143 107 107 144 144 104 104 144 144 105 105 144 144 104 104 145 145 144 144 146 146 143 143 146 146 144 144 145 145 147 147 142 142 143 143 147 147 148 148 142 142 149 149 145 145 102 102 104 104 102 102 145 145 112 112 142 142 113 113 148 148 113 113 142 142 150 150 152 152 151 151 153 153 154 154 150 150 150 150 155 155 153 153 155 155 156 156 153 153 154 154 157 157 150 150 157 157 158 158 150 150 158 158 159 159 150 150 159 159 152 152 150 150 160 160 151 151 152 152 161 161 163 163 162 162 163 163 161 161 164 164 165 165 166 166 161 161 164 164 161 161 166 166 166 166 165 165 167 167 168 168 169 169 165 165 167 167 165 165 169 169 169 169 168 168 170 170 171 171 173 173 172 172 173 173 174 174 170 170 172 172 173 173 168 168 168 168 173 173 170 170 163 163 36 36 162 162 36 36 37 37 162 162 175 175 153 153 156 156 176 176 177 177 153 153 175 175 156 156 178 178 178 178 179 179 175 175 179 179 180 180 175 175 181 181 177 177 176 176 153 153 177 177 154 154 182 182 143 143 183 183 184 184 183 183 185 185 184 184 182 182 183 183 183 183 186 186 185 185 186 186 187 187 185 185 187 187 188 188 185 185 188 188 189 189 185 185 189 189 190 190 185 185 191 191 192 192 190 190 185 185 190 190 192 192 193 193 143 143 182 182 63 63 64 64 194 194 66 66 128 128 129 129 66 66 67 67 128 128 128 128 67 67 195 195 195 195 141 141 128 128 141 141 195 195 196 196 197 197 141 141 198 198 196 196 198 198 141 141 198 198 196 196 199 199 196 196 195 195 194 194 198 198 199 199 96 96 200 200 138 138 197 197 67 67 63 63 195 195 195 195 63 63 194 194 138 138 131 131 197 197 197 197 131 131 141 141 140 140 68 68 129 129 129 129 68 68 66 66 198 198 94 94 197 197 96 96 94 94 198 198 94 94 93 93 197 197 201 201 203 203 202 202 204 204 206 206 205 205 204 204 205 205 207 207 208 208 210 210 209 209 209 209 211 211 208 208 212 212 208 208 211 211 213 213 202 202 203 203 202 202 213 213 214 214 213 213 215 215 214 214 216 216 215 215 217 217 216 216 217 217 206 206 217 217 205 205 206 206 207 207 205 205 218 218 210 210 207 207 218 218 218 218 209 209 210 210 219 219 221 221 220 220 220 220 221 221 222 222 174 174 219 219 220 220 124 124 223 223 212 212 208 208 212 212 223 223 210 210 208 208 224 224 207 207 210 210 224 224 223 223 224 224 208 208 204 204 207 207 225 225 206 206 204 204 225 225 224 224 225 225 207 207 216 216 206 206 226 226 226 226 65 65 216 216 225 225 226 226 206 206 65 65 69 69 216 216 216 216 69 69 215 215 62 62 215 215 69 69 215 215 62 62 214 214 202 202 214 214 68 68 62 62 68 68 214 214 201 201 202 202 227 227 227 227 202 202 68 68 76 76 201 201 78 78 76 76 203 203 201 201 227 227 78 78 201 201 174 174 173 173 219 219 173 173 171 171 219 219 171 171 228 228 219 219 219 219 228 228 221 221 228 228 126 126 221 221 221 221 126 126 222 222 229 229 222 222 121 121 121 121 222 222 126 126 121 121 125 125 229 229 211 211 229 229 125 125 211 211 125 125 212 212 124 124 212 212 125 125 193 193 147 147 143 143 193 193 230 230 147 147 148 148 147 147 230 230 149 149 231 231 145 145 146 146 145 145 232 232 231 231 232 232 145 145 183 183 146 146 232 232 146 146 183 183 143 143 165 165 161 161 233 233 234 234 233 233 161 161 161 161 235 235 234 234 235 235 161 161 236 236 236 236 237 237 235 235 238 238 235 235 237 237 237 237 239 239 238 238 240 240 238 238 239 239 239 239 241 241 240 240 242 242 240 240 241 241 46 46 242 242 43 43 241 241 43 43 242 242 43 43 241 241 30 30 30 30 29 29 43 43 172 172 168 168 165 165 233 233 172 172 165 165 243 243 245 245 244 244 244 244 246 246 243 243 245 245 247 247 244 244 247 247 248 248 244 244 248 248 249 249 244 244 249 249 250 250 244 244 250 250 251 251 244 244 251 251 252 252 244 244 252 252 253 253 244 244 253 253 254 254 244 244 254 254 255 255 244 244 255 255 256 256 244 244 256 256 257 257 244 244 258 258 244 244 257 257 246 246 259 259 243 243 259 259 260 260 243 243 260 260 261 261 243 243 261 261 262 262 243 243 262 262 263 263 243 243 263 263 264 264 243 243 264 264 265 265 243 243 265 265 266 266 243 243 111 111 267 267 109 109 103 103 268 268 115 115 106 106 268 268 103 103 108 108 269 269 106 106 268 268 106 106 269 269 109 109 270 270 108 108 269 269 108 108 270 270 270 270 109 109 267 267 271 271 115 115 268 268 269 269 272 272 268 268 272 272 269 269 270 270 268 268 175 175 271 271 175 175 268 268 153 153 153 153 268 268 272 272 270 270 176 176 272 272 267 267 181 181 270 270 176 176 270 270 181 181 153 153 272 272 176 176 111 111 99 99 267 267 181 181 267 267 99 99 180 180 271 271 175 175 271 271 116 116 115 115 120 120 273 273 122 122 274 274 276 276 275 275 47 47 123 123 49 49 47 47 277 277 123 123 277 277 47 47 275 275 276 276 278 278 275 275 275 275 279 279 277 277 279 279 275 275 278 278 279 279 273 273 277 277 278 278 280 280 279 279 273 273 279 279 280 280 276 276 274 274 46 46 278 278 276 276 46 46 278 278 44 44 280 280 46 46 44 44 278 278 45 45 280 280 44 44 126 126 59 59 49 49 275 275 47 47 52 52 275 275 53 53 274 274 53 53 275 275 52 52 54 54 274 274 53 53 277 277 273 273 120 120 277 277 120 120 123 123</p>
				</triangles>
			</mesh>
		</geometry>
	</library_geometries>
	<library_visual_scenes>
		<visual_scene id="VisualSceneNode" name="base1d_med">
			<node id="J1.dae" name="J1.dae">
				<instance_geometry url="#base2_M1KShape0">
					<bind_material>
						<technique_common>
							<instance_material symbol="blinn20.material" target="#blinn20.material"/>
						</technique_common>
					</bind_material>
				</instance_geometry>
			</node>
		</visual_scene>
	</library_visual_scenes>
	<scene>
		<instance_visual_scene url="#VisualSceneNode"/>
	</scene>
</COLLADA>
