<?xml version="1.0" encoding="UTF-8"?>
<COLLADA xmlns="http://www.collada.org/2008/03/COLLADASchema" version="1.5.0">
	<asset>
		<contributor>
			<author>DENSO WAVE</author>
			<comments/>
		</contributor>
		<unit/>
		<up_axis>Y_UP</up_axis>
	</asset>
	<library_materials>
		<material id="blinn20.material" name="blinn20">
			<instance_effect url="#blinn20.effect"/>
		</material>
	</library_materials>
	<library_effects>
		<effect id="blinn20.effect">
			<profile_COMMON>
				<technique sid="common">
					<phong>
						<emission>
							<color>0.04 0.04 0.04 1</color>
						</emission>
						<diffuse>
							<color>1 1 1 1</color>
						</diffuse>
						<specular>
							<color>0.2 0.2 0.2 1</color>
						</specular>
					</phong>
				</technique>
			</profile_COMMON>
		</effect>
	</library_effects>
	<library_geometries>
		<geometry id="base2_M1KShape0" name="base2_M1KShape0">
			<mesh>
				<source id="base2_M1KShape0.positions">
					<float_array id="base2_M1KShape0.positions-array" count="546" digits="2490374">0.0668173 0.0584219 -0.0270428 0.0525319 0.00396948 -0.0544636 0.0705871 0.00475587 -0.0270129 0.0505527 0.0584714 -0.0508735 0.0286413 0.015447 -0.0693276 0.0661529 0.0584997 0.0273812 0.0685745 0.0366217 0.02867 0.0507546 0.0466103 0.0526088 0.0717771 0.0584231 -0.00206685 0.0506947 0.0585002 0.0504546 0.0273212 0.0585 -0.0661681 0.0383815 0.0559639 0.060746 0.0156964 0.0584934 0.0721226 0.0275985 -0.0039485 -0.0701942 -3.27136e-05 0.000788339 -0.0754358 9.92324e-05 0.0584985 -0.0717455 0.0153094 0.0574436 0.0706531 0.072996 0.0266165 0.0170928 0.0751376 -0.00409395 -0.000868618 0.0690308 -0.00263229 -0.0310043 -0.027538 0.0584923 -0.0664836 -0.0531774 0.0143922 -0.0528572 -0.0273816 0.00324958 -0.0702685 -0.0505369 0.0584979 -0.0508934 -0.0691995 0.012914 -0.0289044 -0.0662373 0.0584972 -0.0275283 -0.0737642 0.0379395 0.00107265 -0.0716067 0.0584995 -2.34842e-05 -0.0672541 0.0466477 0.0280046 -0.0662978 0.05844 0.026527 -0.0750026 -0.00047167 -0.0023005 -0.0593117 0.054606 0.0429361 -0.0451146 0.0585026 0.0559539 -0.0252466 0.0574462 0.0674284 -0.0309561 -0.0054944 -0.06893 -0.0691253 -0.00487862 -0.0304058 -0.0189884 -0.0539458 0.2865 -0.062951 -0.0514728 0.2865 -0.0723316 -0.0370636 0.28649 -0.018983 0.0589509 0.2865 0.0251871 -0.0531882 0.286496 -0.062951 0.0565879 0.2865 0.0361838 -0.0384321 0.286514 0.0381397 -0.0117448 0.2865 0.0366976 0.0400848 0.286496 0.0258731 0.0577226 0.286511 -0.0705875 0.0465196 0.286433 -0.0738939 0.0171564 0.286493 -0.0737968 -0.0147731 0.28649 -0.0689098 -0.0445083 0.285603 -0.0726462 0.0426557 0.149536 -0.0705875 0.0465196 0.286433 -0.0738939 0.0171564 0.286493 -0.0747206 -0.0170397 0.0219036 -0.0737968 -0.0147731 0.28649 -0.0738388 -0.0364588 0.000436187 -0.0723316 -0.0370636 0.28649 0.0258731 0.0577226 0.286511 -0.00680001 0.0592326 0.198423 0.0294585 0.057526 0.12573 -0.0635736 0.0562281 0.14827 -0.0210888 0.0591514 0.174159 -0.062951 0.0565879 0.2865 -0.018983 0.0589509 0.2865 -0.0672541 0.0466477 0.0280046 -0.0635736 0.0562281 0.14827 -0.0737642 0.0379395 0.00107265 -0.0593117 0.054606 0.0429361 -0.0726462 0.0426557 0.149536 -0.062951 -0.0514728 0.2865 -0.0627402 -0.0540012 0.129879 -0.0689098 -0.0445083 0.285603 -0.0689528 -0.0449933 0.0253885 -0.0723316 -0.0370636 0.28649 -0.0738388 -0.0364588 0.000436187 0.0442949 0.0416061 0.122829 0.0382341 0.0434901 0.198924 0.0294585 0.057526 0.12573 0.0366976 0.0400848 0.286496 0.0258731 0.0577226 0.286511 -0.0040474 -0.055438 0.243404 -0.0153568 -0.0567971 0.116698 -0.0410993 -0.0544903 0.240998 -0.0189884 -0.0539458 0.2865 0.0251871 -0.0531882 0.286496 -0.062951 -0.0514728 0.2865 -0.0627402 -0.0540012 0.129879 0.0316672 -0.0558886 0.108997 0.0276542 -0.0549072 0.177797 0.0383815 0.0559639 0.060746 0.0153094 0.0574436 0.0706531 -0.0252466 0.0574462 0.0674284 -0.0593117 0.054606 0.0429361 0.0473798 -0.0365 0.109 0.0525574 -0.04454 0.0520882 0.0316672 -0.0558886 0.108997 0.0380943 -0.0566653 0.0618998 0.0574098 -0.0358662 0.068064 0.0695708 -0.0372108 0.0259992 0.0505527 0.0584714 -0.0508735 0.0668173 0.0584219 -0.0270428 0.0273212 0.0585 -0.0661681 -0.0451146 0.0585026 0.0559539 9.92324e-05 0.0584985 -0.0717455 0.0156964 0.0584934 0.0721226 -0.027538 0.0584923 -0.0664836 -0.0505369 0.0584979 -0.0508934 -0.0662373 0.0584972 -0.0275283 -0.0716067 0.0584995 -2.34842e-05 -0.0662978 0.05844 0.026527 0.0506947 0.0585002 0.0504546 0.0661529 0.0584997 0.0273812 0.0717771 0.0584231 -0.00206685 0.0430263 -0.0365604 0.142043 0.0276542 -0.0549072 0.177797 0.0392501 -0.0364204 0.195486 0.0361838 -0.0384321 0.286514 0.0251871 -0.0531882 0.286496 -0.0380376 -0.0570533 0.0630464 0.00848629 -0.058407 0.0736576 0.0380943 -0.0566653 0.0618998 -0.0600371 -0.0554405 0.041144 0.0511766 -0.0585 0.051399 0.0670644 -0.0585 0.027626 0.00848629 -0.058407 0.0736576 -0.0281723 -0.0584985 -0.0671351 0 -0.0585 -0.07253 -0.0439476 -0.0584924 0.0587722 -0.0670644 -0.0585 0.027626 -0.0725303 -0.0585 0 -0.0671964 -0.0584759 -0.0277568 -0.0511766 -0.0585 -0.0513989 0.0278335 -0.0584967 -0.0672024 0.0511766 -0.0585 -0.0513989 0.0672422 -0.0584925 -0.0279277 0.072614 -0.0584985 -2.97427e-05 0.0473798 -0.0365 0.109 0.048737 0.00294218 0.109 0.0574098 -0.0358662 0.068064 0.0733808 -0.013808 0.0163523 0.0579967 0.0172922 0.0677912 0.0550293 0.0393839 0.0736389 0.0442949 0.0416061 0.122829 0.0695708 -0.0372108 0.0259992 0.072614 -0.0584985 -2.97427e-05 0.074382 -0.0292761 0 0.0672422 -0.0584925 -0.0279277 0.0526018 -0.0191283 -0.0532084 0.0278335 -0.0584967 -0.0672024 0 -0.0585 -0.07253 0.0670644 -0.0585 0.027626 0.0525574 -0.04454 0.0520882 0.0511766 -0.0585 0.051399 0.0511766 -0.0585 -0.0513989 0.0380943 -0.0566653 0.0618998 0.00848629 -0.058407 0.0736576 0.0441359 0.00200098 0.143933 0.0405322 0.0219571 0.188284 0.0403906 -0.00528547 0.203918 0.0381397 -0.0117448 0.2865 0.0366976 0.0400848 0.286496 0.0382341 0.0434901 0.198924 0.0392501 -0.0364204 0.195486 0.0361838 -0.0384321 0.286514 0.0430263 -0.0365604 0.142043 -0.0600371 -0.0554405 0.041144 0.0550293 0.0393839 0.0736389 0.0507546 0.0466103 0.0526088 0.0685745 0.0366217 0.02867 0.0383815 0.0559639 0.060746 -0.0725303 -0.0585 0 -0.0670644 -0.0585 0.027626 -0.0529715 -0.0191212 -0.0528398 -0.0281723 -0.0584985 -0.0671351 -0.0671964 -0.0584759 -0.0277568 -0.0380376 -0.0570533 0.0630464 -0.0439476 -0.0584924 0.0587722 -0.0600371 -0.0554405 0.041144 -0.0689528 -0.0449933 0.0253885 -0.0511766 -0.0585 -0.0513989 -0.0705875 0.0465196 0.286433 -0.062951 0.0565879 0.2865</float_array>
					<technique_common>
						<accessor count="182" source="#base2_M1KShape0.positions-array" stride="3">
							<param name="X" type="float"/>
							<param name="Y" type="float"/>
							<param name="Z" type="float"/>
						</accessor>
					</technique_common>
				</source>
				<source id="base2_M1KShape0.normals">
					<float_array id="base2_M1KShape0.normals-array" count="546" digits="2490374">0.920117 0.122167 -0.372101 0.693789 0.00623 -0.720151 0.934022 0.009052 -0.357101 0.699877 0.122836 -0.703622 0.381239 0.027878 -0.924056 0.916398 0.126566 0.37973 0.925984 0.071678 0.370696 0.691394 0.092526 0.716529 0.992236 0.121534 -0.026403 0.703106 0.128967 0.699293 0.378421 0.126557 -0.916941 0.530458 0.117227 0.839567 0.210379 0.127757 0.969236 0.365778 -0.005243 -0.930687 -0.00043 0.000742 -1 0.001836 0.122729 -0.992439 0.210022 0.12178 0.970083 0.968789 0.053284 0.24209 0.999911 -0.0073 -0.011206 0.91209 -0.003502 -0.409976 -0.380217 0.12253 -0.916745 -0.708884 0.026955 -0.70481 -0.362933 0.006452 -0.931793 -0.69847 0.124576 -0.704713 -0.922325 0.024144 -0.385659 -0.916346 0.123105 -0.380991 -0.996919 0.078275 0.005032 -0.992129 0.125219 -0.000348 -0.919113 0.092464 0.382991 -0.920452 0.129903 0.368637 -0.999961 -0.000879 -0.008821 -0.803682 0.107759 0.585221 -0.62063 0.138782 0.771724 -0.348144 0.128587 0.92858 -0.409875 -0.007881 -0.912108 -0.915155 -0.007006 -0.403041 -2e-06 5e-06 1 -2e-06 5e-06 1 -2e-06 5e-06 1 -2e-06 5e-06 1 -2e-06 5e-06 1 -2e-06 5e-06 1 -2e-06 5e-06 1 -2e-06 5e-06 1 -2e-06 5e-06 1 -2e-06 5e-06 1 -2e-06 5e-06 1 -2e-06 5e-06 1 -2e-06 5e-06 1 -2e-06 5e-06 1 -0.993619 0.1126 0.006461 -0.984126 0.175847 0.023957 -0.999465 0.030972 0.010544 -0.99943 -0.033696 0.002064 -0.999439 -0.031866 0.010314 -0.997667 -0.067927 0.006749 -0.993164 -0.115891 0.013985 0.067698 0.997682 0.006964 0.004366 0.999989 -0.001774 0.064894 0.99786 -0.007978 -0.098098 0.995123 -0.010328 -0.021642 0.999757 -0.004191 -0.093625 0.995607 -0.000912 -0.013646 0.999904 0.002211 -0.728352 0.684175 -0.037521 -0.727458 0.685978 -0.015441 -0.787617 0.615604 -0.026299 -0.636724 0.769498 -0.049563 -0.906114 0.423034 0.000591 -0.709807 -0.703655 0.032293 -0.728962 -0.684549 -0.002733 -0.861931 -0.506765 0.01626 -0.839467 -0.543324 -0.009712 -0.947734 -0.318857 0.011459 -0.887566 -0.460675 0.002255 0.767778 0.635642 0.080474 0.826539 0.562107 0.029477 0.735922 0.675699 0.043002 0.936659 0.347218 0.045931 0.725937 0.687586 0.015528 0.008859 -0.999907 0.01033 -0.016223 -0.99968 0.019429 -0.057861 -0.998293 0.007952 -0.016123 -0.998921 0.043557 0.06378 -0.997087 0.041839 -0.096042 -0.994557 0.040399 -0.09956 -0.994957 0.012191 0.065266 -0.997437 0.029314 0.062529 -0.998005 0.008775 0.073468 0.997099 -0.019895 0.035099 0.999172 -0.020569 -0.035336 0.999065 -0.024893 -0.095656 0.99491 -0.03169 0.78771 -0.595088 0.159324 0.674026 -0.71967 0.166626 0.751082 -0.652336 0.101656 0.692571 -0.711856 0.116651 0.70533 -0.683398 0.188352 0.632009 -0.751322 0.189948 0 1 -0 0 1 -0 0 1 -0 0 1 -0 0 1 -0 0 1 -0 0 1 -0 0 1 -0 0 1 -0 0 1 -0 0 1 -0 0 1 -0 0 1 -0 0 1 -0 0.83297 -0.548919 0.069632 0.786301 -0.617223 0.027695 0.871436 -0.48951 0.031291 0.878887 -0.476074 0.03017 0.731504 -0.681101 0.031685 -0.060118 -0.998113 0.012484 0.021176 -0.999603 0.018588 0.07086 -0.997302 0.019189 -0.099305 -0.995037 0.006388 -0 -1 0 -0 -1 0 -0 -1 0 -0 -1 0 -0 -1 0 -0 -1 0 -0 -1 0 -0 -1 0 -0 -1 0 -0 -1 0 -0 -1 0 -0 -1 0 -0 -1 0 -0 -1 0 0.977175 -0.078298 0.197479 0.980181 0.005269 0.198034 0.964208 -0.071564 0.255308 0.966073 -0.027457 0.256805 0.963502 0.032297 0.265745 0.961019 0.082406 0.263914 0.983903 0.104036 0.145301 0.94389 -0.061851 0.324417 0.996441 -0.084286 -0.001294 0.99911 -0.042179 -0 0.92016 -0.08427 -0.382367 0.70344 -0.027658 -0.710216 0.380778 -0.084266 -0.920819 -0 -0.084285 -0.996442 0.921281 -0.084287 0.379655 0.709131 -0.063833 0.702181 0.703021 -0.084287 0.706157 0.703021 -0.084287 -0.706157 0.522105 -0.081616 0.848967 0.117033 -0.083121 0.989644 0.996385 0.005285 0.08479 0.998056 0.043565 0.044579 0.999382 -0.007512 0.034327 0.999393 -0.018674 0.029409 0.993816 0.105774 0.033779 0.991666 0.123518 0.03663 0.994919 -0.09323 0.03802 0.992888 -0.111991 0.040395 0.992744 -0.081356 0.088552 -0.70275 -0.711076 -0.022641 0.662558 0.737766 0.129298 0.631094 0.767782 0.110593 0.604498 0.785915 0.130078 0.650701 0.754965 0.081336 -0.996442 -0.084285 0 -0.921281 -0.084287 0.379655 -0.706953 -0.027647 -0.70672 -0.385905 -0.084276 -0.918681 -0.920906 -0.084255 -0.380569 -0.514028 -0.080909 0.853949 -0.596903 -0.082963 0.798012 -0.822345 -0.079878 0.563354 -0.937772 -0.066051 0.340912 -0.703021 -0.084287 -0.706157 -0.904185 0.42694 0.013108 -0.715594 0.698509 0.003162</float_array>
					<technique_common>
						<accessor count="182" source="#base2_M1KShape0.normals-array" stride="3">
							<param name="X" type="float"/>
							<param name="Y" type="float"/>
							<param name="Z" type="float"/>
						</accessor>
					</technique_common>
				</source>
				<vertices id="base2_M1KShape0.vertices">
					<input semantic="POSITION" source="#base2_M1KShape0.positions"/>
				</vertices>
				<triangles count="194" material="blinn20.material">
					<input offset="0" semantic="VERTEX" source="#base2_M1KShape0.vertices" set="0"/>
					<input offset="1" semantic="NORMAL" source="#base2_M1KShape0.normals" set="0"/>
					<p>0 0 2 2 1 1 1 1 3 3 0 0 3 3 1 1 4 4 5 5 7 7 6 6 5 5 6 6 8 8 9 9 7 7 5 5 4 4 10 10 3 3 9 9 12 12 11 11 13 13 14 14 4 4 14 14 15 15 4 4 4 4 15 15 10 10 11 11 7 7 9 9 16 16 11 11 12 12 17 17 8 8 6 6 18 18 0 0 8 8 2 2 0 0 18 18 2 2 19 19 1 1 20 20 22 22 21 21 21 21 23 23 20 20 24 24 25 25 21 21 23 23 21 21 25 25 25 25 24 24 26 26 26 26 27 27 25 25 27 27 26 26 28 28 28 28 29 29 27 27 26 26 24 24 30 30 29 29 28 28 31 31 31 31 33 33 32 32 29 29 31 31 32 32 12 12 32 32 33 33 16 16 12 12 33 33 15 15 14 14 20 20 20 20 14 14 22 22 22 22 34 34 21 21 24 24 21 21 35 35 36 36 38 38 37 37 36 36 40 40 39 39 39 39 41 41 36 36 42 42 43 43 40 40 43 43 44 44 39 39 39 39 40 40 43 43 39 39 44 44 45 45 46 46 47 47 41 41 47 47 48 48 36 36 36 36 41 41 47 47 48 48 38 38 36 36 49 49 37 37 38 38 50 50 52 52 51 51 53 53 55 55 54 54 54 54 52 52 53 53 56 56 54 54 55 55 50 50 26 26 52 52 57 57 59 59 58 58 60 60 62 62 61 61 59 59 61 61 58 58 58 58 61 61 63 63 62 62 63 63 61 61 57 57 58 58 63 63 64 64 66 66 65 65 67 67 64 64 65 65 68 68 65 65 66 66 69 69 71 71 70 70 71 71 73 73 72 72 74 74 72 72 73 73 71 71 72 72 70 70 75 75 77 77 76 76 78 78 76 76 79 79 76 76 77 77 79 79 80 80 82 82 81 81 80 80 83 83 82 82 84 84 83 83 80 80 85 85 86 86 82 82 85 85 82 82 83 83 86 86 81 81 82 82 87 87 88 88 80 80 87 87 80 80 81 81 88 88 84 84 80 80 89 89 90 90 59 59 61 61 91 91 60 60 91 91 92 92 60 60 61 61 59 59 90 90 90 90 91 91 61 61 93 93 95 95 94 94 95 95 96 96 94 94 97 97 93 93 94 94 94 94 98 98 97 97 99 99 101 101 100 100 101 101 103 103 102 102 102 102 104 104 101 101 103 103 105 105 102 102 105 105 106 106 102 102 106 106 107 107 102 102 107 107 108 108 102 102 108 108 109 109 102 102 104 104 110 110 101 101 110 110 111 111 101 101 111 111 112 112 101 101 112 112 100 100 101 101 30 30 55 55 53 53 95 95 93 93 113 113 114 114 113 113 115 115 114 114 115 115 116 116 116 116 117 117 114 114 95 95 113 113 114 114 81 81 86 86 118 118 81 81 119 119 87 87 119 119 120 120 87 87 121 121 118 118 86 86 119 119 81 81 118 118 122 122 124 124 123 123 125 125 126 126 124 124 124 124 127 127 125 125 127 127 128 128 125 125 128 128 129 129 125 125 129 129 130 130 125 125 131 131 125 125 130 130 126 126 132 132 124 124 132 132 133 133 124 124 133 133 134 134 124 124 134 134 135 135 124 124 135 135 123 123 124 124 136 136 138 138 137 137 17 17 140 140 139 139 6 6 141 141 17 17 140 140 17 17 141 141 138 138 139 139 140 140 141 141 142 142 140 140 142 142 137 137 140 140 140 140 137 137 138 138 143 143 139 139 138 138 17 17 139 139 18 18 18 18 8 8 17 17 144 144 145 145 143 143 145 145 144 144 146 146 146 146 19 19 145 145 18 18 145 145 19 19 19 19 146 146 147 147 148 148 13 13 147 147 148 148 14 14 13 13 149 149 14 14 148 148 4 4 1 1 13 13 13 13 1 1 147 147 18 18 139 139 145 145 143 143 151 151 150 150 152 152 150 150 151 151 150 150 144 144 143 143 147 147 146 146 153 153 153 153 148 148 147 147 151 151 154 154 152 152 152 152 154 154 155 155 143 143 145 145 139 139 1 1 19 19 147 147 19 19 2 2 18 18 52 52 30 30 53 53 30 30 52 52 26 26 142 142 157 157 156 156 157 157 158 158 156 156 159 159 158 158 160 160 160 160 158 158 157 157 161 161 157 157 142 142 157 157 161 161 160 160 162 162 159 159 163 163 158 158 162 162 156 156 159 159 162 162 158 158 164 164 156 156 162 162 137 137 142 142 156 156 137 137 156 156 136 136 156 156 164 164 136 136 165 165 70 70 72 72 77 77 75 75 166 166 167 167 166 166 168 168 167 167 169 169 166 166 169 169 77 77 166 166 170 170 171 171 55 55 34 34 173 173 172 172 174 174 35 35 172 172 35 35 174 174 55 55 22 22 14 14 34 34 175 175 177 177 176 176 178 178 171 171 177 177 176 176 177 177 171 171 171 171 178 178 55 55 24 24 35 35 30 30 35 35 55 55 30 30 155 155 175 175 176 176 173 173 34 34 14 14 149 149 173 173 14 14 172 172 173 173 179 179 179 179 174 174 172 172 55 55 174 174 170 170 21 21 172 172 35 35 21 21 34 34 172 172 180 180 65 65 68 68 181 181 65 65 180 180</p>
				</triangles>
			</mesh>
		</geometry>
	</library_geometries>
	<library_visual_scenes>
		<visual_scene id="VisualSceneNode" name="base1d_med">
			<node id="J3.dae" name="J3.dae">
				<instance_geometry url="#base2_M1KShape0">
					<bind_material>
						<technique_common>
							<instance_material symbol="blinn20.material" target="#blinn20.material"/>
						</technique_common>
					</bind_material>
				</instance_geometry>
			</node>
		</visual_scene>
	</library_visual_scenes>
	<scene>
		<instance_visual_scene url="#VisualSceneNode"/>
	</scene>
</COLLADA>
