<?xml version="1.0" encoding="UTF-8"?>
<COLLADA xmlns="http://www.collada.org/2008/03/COLLADASchema" version="1.5.0">
	<asset>
		<contributor>
			<author>DENSO WAVE</author>
			<comments/>
		</contributor>
		<unit/>
		<up_axis>Y_UP</up_axis>
	</asset>
	<library_materials>
		<material id="blinn20.material" name="blinn20">
			<instance_effect url="#blinn20.effect"/>
		</material>
		<material id="blinn21.material" name="blinn21">
			<instance_effect url="#blinn21.effect"/>
		</material>
	</library_materials>
	<library_effects>
		<effect id="blinn20.effect">
			<profile_COMMON>
				<technique sid="common">
					<phong>
						<emission>
							<color>0.04 0.04 0.04 1</color>
						</emission>
						<diffuse>
							<color>0.4 0.4 0.4 1</color>
						</diffuse>
						<specular>
							<color>0.2 0.2 0.2 1</color>
						</specular>
					</phong>
				</technique>
			</profile_COMMON>
		</effect>
		<effect id="blinn21.effect">
			<profile_COMMON>
				<technique sid="common">
					<phong>
						<emission>
							<color>0.04 0.04 0.04 1</color>
						</emission>
						<diffuse>
							<color>1 1 1 1</color>
						</diffuse>
						<specular>
							<color>0.2 0.2 0.2 1</color>
						</specular>
					</phong>
				</technique>
			</profile_COMMON>
		</effect>
	</library_effects>
	<library_geometries>
		<geometry id="base2_M1KShape0" name="base2_M1KShape0">
			<mesh>
				<source id="base2_M1KShape0.positions">
					<float_array id="base2_M1KShape0.positions-array" count="285" digits="2490374">-0.0533 0.0201815 1.14162 -0.05985 0.0201815 1.14162 -0.05985 0.0196 1.1445 -0.0533 0.0196 1.1445 -0.0533 0.0217674 1.13927 -0.05985 0.0217674 1.13927 -0.0533 0.0241196 1.13768 -0.05985 0.0241196 1.13768 -0.0533 0.027 1.1371 -0.05985 0.027 1.1371 -0.0533 0.0298804 1.13768 -0.05985 0.0298804 1.13768 -0.0533 0.0322326 1.13927 -0.05985 0.0322326 1.13927 -0.0533 0.0338185 1.14162 -0.05985 0.0338185 1.14162 -0.0533 0.0344 1.1445 -0.05985 0.0344 1.1445 -0.0528965 0.01612 1.15538 -0.0529646 0.0153 1.1534 -0.0533 0.0161201 1.15538 -0.052811 0.0181 1.1562 -0.0533 0.0181 1.1562 -0.0533 0.0153 1.1534 -0.0533 0.0378799 1.13362 -0.0533 0.0387 1.1356 -0.0533 0.0322326 1.13927 -0.0533 0.0338185 1.14162 -0.0533 0.0344 1.1445 -0.0533 0.0387 1.1534 -0.0533 0.0378799 1.15538 -0.0533 0.0322326 1.14973 -0.0533 0.0338185 1.14738 -0.0533 0.0359 1.1562 -0.0533 0.0298804 1.15132 -0.0533 0.027 1.1519 -0.0533 0.0181 1.1562 -0.0533 0.0161201 1.15538 -0.0533 0.0217674 1.14973 -0.0533 0.0241196 1.15132 -0.0533 0.0153 1.1534 -0.0533 0.0153 1.13651 -0.0533 0.0196 1.1445 -0.0533 0.0201815 1.14738 -0.0533 0.0201815 1.14162 -0.0532985 0.0176729 1.1328 -0.0533 0.0217674 1.13927 -0.0533 0.0241196 1.13768 -0.0533 0.027 1.1371 -0.0533 0.0359 1.1328 -0.0533 0.0298804 1.13768 -0.051664 0.0387 1.1356 -0.0512385 0.0387 1.1534 -0.0533 0.0387 1.1356 -0.0533 0.0387 1.1534 -0.0533 0.0153 1.13651 -0.0518162 0.0378828 1.13362 -0.0533 0.0378799 1.13362 -0.0520795 0.0359 1.1328 -0.0533 0.0359 1.1328 -0.0515533 0.0359 1.1562 -0.0533 0.0359 1.1562 -0.0532985 0.0176729 1.1328 -0.0513074 0.0378834 1.15538 -0.0533 0.0378799 1.15538 -0.05985 0.0322326 1.14973 -0.05985 0.0298804 1.15132 -0.05985 0.0338185 1.14738 -0.05985 0.0201815 1.14162 -0.05985 0.0344 1.1445 -0.05985 0.0196 1.1445 -0.05985 0.0338185 1.14162 -0.05985 0.0322326 1.13927 -0.05985 0.0298804 1.13768 -0.05985 0.027 1.1371 -0.05985 0.0241196 1.13768 -0.05985 0.0217674 1.13927 -0.05985 0.0201815 1.14738 -0.05985 0.0217674 1.14973 -0.05985 0.0241196 1.15132 -0.05985 0.027 1.1519 -0.0533 0.0338185 1.14738 -0.05985 0.0338185 1.14738 -0.0533 0.0322326 1.14973 -0.05985 0.0322326 1.14973 -0.0533 0.0298804 1.15132 -0.05985 0.0298804 1.15132 -0.0533 0.027 1.1519 -0.05985 0.027 1.1519 -0.0533 0.0241196 1.15132 -0.05985 0.0241196 1.15132 -0.0533 0.0217674 1.14973 -0.05985 0.0217674 1.14973 -0.0533 0.0201815 1.14738 -0.05985 0.0201815 1.14738</float_array>
					<technique_common>
						<accessor count="95" source="#base2_M1KShape0.positions-array" stride="3">
							<param name="X" type="float"/>
							<param name="Y" type="float"/>
							<param name="Z" type="float"/>
						</accessor>
					</technique_common>
				</source>
				<source id="base2_M1KShape0.normals">
					<float_array id="base2_M1KShape0.normals-array" count="285" digits="2490374">0 -0.921004 -0.389552 0 -0.921004 -0.389552 0 -1 0 0 -1 0 0 -0.707107 -0.707107 0 -0.707107 -0.707107 0 -0.389552 -0.921004 0 -0.389552 -0.921004 0 0 -1 0 0 -1 0 0.389552 -0.921004 0 0.389552 -0.921004 0 0.707107 -0.707107 0 0.707107 -0.707107 0 0.921004 -0.389552 0 0.921004 -0.389552 0 1 -0 0 1 -0 0 -0.707262 0.706951 0 -1 -0.000379 0 -0.707211 0.707003 0 0.000374 1 0 0.000374 1 0 -1 -0.000379 -1 0 0 -1 0 0 -1 0 0 -1 0 0 -1 0 0 -1 0 0 -1 0 0 -1 0 0 -1 0 0 -1 0 0 -1 0 0 -1 0 0 -1 0 0 -1 0 0 -1 0 0 -1 0 0 -1 0 0 -1 0 0 -1 0 0 -1 0 0 -1 0 0 -0.999859 0.014795 0.007945 -1 0 0 -1 0 0 -1 0 0 -1 0 0 -1 0 0 0 1 -0 0 1 -1.7e-05 0 1 -0 0 1 -0 0 -1 0 0 0.708245 -0.705967 0 0.707211 -0.707003 0 -0.000374 -1 0 -0.000374 -1 0 0 1 0 0 1 0 -0.000256 -1 0 0.708436 0.705775 0 0.707211 0.707003 -1 0 0 -1 0 0 -1 0 0 -1 0 0 -1 0 0 -1 0 0 -1 0 0 -1 0 0 -1 0 0 -1 0 0 -1 0 0 -1 0 0 -1 0 0 -1 0 0 -1 0 0 -1 0 0 0 0.921004 0.389552 0 0.921004 0.389552 0 0.707107 0.707107 0 0.707107 0.707107 0 0.389552 0.921004 0 0.389552 0.921004 0 0 1 0 0 1 0 -0.389552 0.921004 0 -0.389552 0.921004 0 -0.707107 0.707107 0 -0.707107 0.707107 0 -0.921004 0.389552 0 -0.921004 0.389552</float_array>
					<technique_common>
						<accessor count="95" source="#base2_M1KShape0.normals-array" stride="3">
							<param name="X" type="float"/>
							<param name="Y" type="float"/>
							<param name="Z" type="float"/>
						</accessor>
					</technique_common>
				</source>
				<vertices id="base2_M1KShape0.vertices">
					<input semantic="POSITION" source="#base2_M1KShape0.positions"/>
				</vertices>
				<triangles count="91" material="blinn20.material">
					<input offset="0" semantic="VERTEX" source="#base2_M1KShape0.vertices" set="0"/>
					<input offset="1" semantic="NORMAL" source="#base2_M1KShape0.normals" set="0"/>
					<p>0 0 2 2 1 1 3 3 2 2 0 0 4 4 1 1 5 5 0 0 1 1 4 4 6 6 5 5 7 7 4 4 5 5 6 6 8 8 7 7 9 9 6 6 7 7 8 8 10 10 9 9 11 11 8 8 9 9 10 10 12 12 11 11 13 13 10 10 11 11 12 12 14 14 13 13 15 15 12 12 13 13 14 14 16 16 15 15 17 17 14 14 15 15 16 16 18 18 20 20 19 19 21 21 22 22 18 18 23 23 19 19 20 20 20 20 18 18 22 22 24 24 26 26 25 25 27 27 28 28 25 25 25 25 28 28 29 29 30 30 29 29 31 31 32 32 29 29 28 28 30 30 31 31 33 33 32 32 31 31 29 29 34 34 35 35 33 33 34 34 33 33 31 31 33 33 35 35 36 36 37 37 36 36 38 38 39 39 36 36 35 35 37 37 38 38 40 40 39 39 38 38 36 36 41 41 40 40 42 42 43 43 40 40 38 38 42 42 44 44 41 41 43 43 42 42 40 40 45 45 41 41 46 46 44 44 46 46 41 41 47 47 48 48 45 45 47 47 45 45 46 46 45 45 48 48 49 49 24 24 49 49 26 26 50 50 49 49 48 48 27 27 25 25 26 26 50 50 26 26 49 49 51 51 53 53 52 52 54 54 52 52 53 53 55 55 19 19 23 23 51 51 56 56 53 53 56 56 58 58 57 57 57 57 53 53 56 56 59 59 57 57 58 58 21 21 60 60 22 22 61 61 22 22 60 60 59 59 58 58 62 62 63 63 64 64 60 60 61 61 60 60 64 64 54 54 64 64 52 52 52 52 64 64 63 63 65 65 67 67 66 66 67 67 69 69 68 68 68 68 70 70 67 67 69 69 71 71 68 68 71 71 72 72 68 68 72 72 73 73 68 68 73 73 74 74 68 68 74 74 75 75 68 68 76 76 68 68 75 75 70 70 77 77 67 67 77 77 78 78 67 67 78 78 79 79 67 67 79 79 80 80 67 67 80 80 66 66 67 67 81 81 17 17 82 82 16 16 17 17 81 81 83 83 82 82 84 84 81 81 82 82 83 83 85 85 84 84 86 86 83 83 84 84 85 85 87 87 86 86 88 88 85 85 86 86 87 87 89 89 88 88 90 90 87 87 88 88 89 89 91 91 90 90 92 92 89 89 90 90 91 91 93 93 92 92 94 94 91 91 92 92 93 93 3 3 94 94 2 2 93 93 94 94 3 3</p>
				</triangles>
			</mesh>
		</geometry>
		<geometry id="base2_M1KShape1" name="base2_M1KShape1">
			<mesh>
				<source id="base2_M1KShape1.positions">
					<float_array id="base2_M1KShape1.positions-array" count="2535" digits="2490374">0.0367212 -0.0298685 1.22892 0.0390878 -0.0304651 1.23358 0.0359801 -0.0295 1.22917 0.0369632 -0.0296286 1.22668 0.0366998 -0.0295 1.22626 0.0382449 -0.0295 1.23412 0.0153567 0.0369351 1.0985 0.0153567 0.0369351 1.1285 0 0.04 1.1285 0 0.04 1.0985 0.0282235 0.0283461 1.0985 0.0282235 0.0283461 1.1285 0.0369856 0.0152356 1.0985 0.0369856 0.0152356 1.1285 0.04 0 1.0985 0.04 0 1.1285 0.0369856 -0.0152356 1.0985 0.0369856 -0.0152356 1.1285 0.0282235 -0.0283461 1.0985 0.0282235 -0.0283461 1.1285 0.0153567 -0.0369351 1.0985 0.0153567 -0.0369351 1.1285 0 -0.04 1.0985 0 -0.04 1.1285 0.0282235 -0.0283461 1.0985 0.0369856 -0.0152356 1.0985 0.0153567 -0.0369351 1.0985 -0.0153567 0.0369351 1.0985 0 -0.04 1.0985 0 0.04 1.0985 -0.0153567 -0.0369351 1.0985 -0.0282235 -0.0283461 1.0985 -0.0369856 -0.0152356 1.0985 -0.04 0 1.0985 -0.0369856 0.0152356 1.0985 -0.0282235 0.0283461 1.0985 0.0153567 0.0369351 1.0985 0.0282235 0.0283461 1.0985 0.0369856 0.0152356 1.0985 0.04 0 1.0985 -0.0153567 -0.0369351 1.0985 -0.0153567 -0.0369351 1.1285 -0.0282235 -0.0283461 1.0985 -0.0282235 -0.0283461 1.1285 -0.0369856 -0.0152356 1.0985 -0.0369856 -0.0152356 1.1285 -0.04 0 1.0985 -0.04 0 1.1285 -0.0369856 0.0152356 1.0985 -0.0369856 0.0152356 1.1285 -0.0282235 0.0283461 1.0985 -0.0282235 0.0283461 1.1285 -0.0153567 0.0369351 1.0985 -0.0153567 0.0369351 1.1285 0.0482615 -0.0295 1.25193 0.0434636 -0.0295 1.24231 0.0489081 -0.0297807 1.25169 0.0509604 -0.0295 1.26233 0.0491974 -0.0304651 1.25158 0.0443065 -0.0304651 1.24177 0.0519487 -0.0304651 1.26218 -0.00973113 0.0455 1.29304 -0.00973113 0.0255 1.29304 0 0.0255 1.295 0 0.0455 1.295 -0.0176777 0.0455 1.28768 -0.0176777 0.0255 1.28768 -0.0230354 0.0455 1.27973 -0.0230354 0.0255 1.27973 -0.025 0.0455 1.27 -0.025 0.0255 1.27 -0.0230354 0.0455 1.26027 -0.0230354 0.0255 1.26027 -0.0176777 0.0455 1.25232 -0.0176777 0.0255 1.25232 -0.00973113 0.0455 1.24696 -0.00973113 0.0255 1.24696 0 0.0455 1.245 0 0.0255 1.245 0.0176777 0.0455 1.28768 0.0230354 0.0455 1.27973 0.0097311 0.0455 1.29304 -0.00973113 0.0455 1.24696 0 0.0455 1.295 0 0.0455 1.245 -0.00973113 0.0455 1.29304 -0.0176777 0.0455 1.28768 -0.0230354 0.0455 1.27973 -0.025 0.0455 1.27 -0.0230354 0.0455 1.26027 -0.0176777 0.0455 1.25232 0.0097311 0.0455 1.24696 0.0176777 0.0455 1.25232 0.0230354 0.0455 1.26027 0.025 0.0455 1.27 0.0097311 0.0455 1.24696 0.0097311 0.0255 1.24696 0.0176777 0.0455 1.25232 0.0176777 0.0255 1.25232 0.0230354 0.0455 1.26027 0.0230354 0.0255 1.26027 0.025 0.0455 1.27 0.025 0.0255 1.27 0.0230354 0.0455 1.27973 0.0230354 0.0255 1.27973 0.0176777 0.0455 1.28768 0.0176777 0.0255 1.28768 0.0097311 0.0455 1.29304 0.0097311 0.0255 1.29304 -0.0490129 -0.0317329 1.25123 -0.0490669 -0.0304651 1.25123 -0.0491265 -0.0306103 1.25163 -0.0489517 -0.0315772 1.25083 -0.0467415 -0.0295 1.27383 -0.0477319 -0.0306116 1.27391 -0.0481335 -0.0295 1.25159 -0.04184 0.0537861 1.23219 -0.0434809 0.0548787 1.18144 -0.0401354 0.0545857 1.24416 0.0535652 0.0430001 1.17835 0.0526456 0.0450302 1.18225 0.055548 0.0430018 1.1285 -0.0471777 0.0446933 1.23424 -0.0491475 0.0448354 1.18126 -0.0465237 0.0463528 1.23398 -0.0484781 0.0466434 1.18128 -0.0414401 0.0444446 1.28765 -0.0408752 0.0458494 1.28696 0.0003571 0.0444054 1.31512 0.0003782 0.0457715 1.31439 0.0420165 0.0445353 1.28633 0.0414545 0.0460229 1.28562 0.0510175 0.0448461 1.23421 0.0501418 0.0466394 1.23391 0.0517178 0.0470129 1.18228 -0.0457725 0.0479624 1.23369 -0.0476953 0.0484062 1.18131 -0.040251 0.0472018 1.28619 0.0004017 0.047079 1.31355 0.0408264 0.0474423 1.28482 0.0491451 0.0483577 1.23359 0.050651 0.0489257 1.1823 -0.0449269 0.0495147 1.23336 -0.0468026 0.0501153 1.18134 -0.0395683 0.0484967 1.28534 0.0004274 0.0483167 1.31262 0.0401355 0.0487812 1.28395 0.0480322 0.0499891 1.23322 0.049451 0.0507575 1.18233 -0.0439857 0.0510103 1.233 -0.045798 0.0517718 1.18137 -0.038824 0.0497322 1.28441 0.0004553 0.0494813 1.31159 0.0393806 0.0500358 1.28301 0.0468034 0.0515298 1.23283 0.0481168 0.0525068 1.18236 -0.0429564 0.0524351 1.23261 -0.0446899 0.0533609 1.18141 -0.0380267 0.0508898 1.28341 0.0004852 0.0505604 1.31047 0.0385679 0.0511915 1.28199 0.04547 0.0529629 1.23241 0.0466614 0.054156 1.1824 -0.037183 0.0519612 1.28234 0.0005167 0.0515489 1.30927 0.0377002 0.0522425 1.28091 0.0440331 0.0542842 1.23196 0.0450893 0.0556997 1.18243 -0.0429391 0.0565909 1.1285 -0.0478898 0.0501982 1.1285 0.0510953 0.0508069 1.1285 0.0449638 0.0577828 1.1285 0.0429593 0.0565619 1.20341 0.0424363 0.0552781 1.23605 0.0414855 0.0541973 1.25796 -0.0511885 0.0429798 1.1285 -0.0475792 0.0429927 1.23813 -0.0455899 0.043 1.27373 -0.0441957 0.0430006 1.2818 -0.0392688 0.043 1.29346 -0.0284913 0.0429999 1.30579 -0.0138527 0.042999 1.3136 0.0036986 0.0429993 1.31559 0.0207185 0.0429988 1.31078 0.0346026 0.0430002 1.29992 0.0417591 0.0430002 1.28867 0.047658 0.0430003 1.27209 0.0506257 0.0430001 1.257 0.0514033 0.0429968 1.24763 0.0519732 0.0430001 1.22692 0.0525417 0.043 1.20821 0.0311992 0.0527163 1.29169 -0.0321712 0.0526544 1.29022 -0.000871159 0.0524412 1.30799 0.0527544 -0.0328766 1.22612 0.0414746 -0.0328892 1.23336 0.0522003 -0.0339991 1.23673 0.0535203 -0.0296286 1.21613 0.0462284 -0.034 1.24055 0.0375695 -0.0295 1.29807 0.0305855 -0.0295 1.30555 0.0428136 -0.0295 1.28914 -0.0358999 -0.0295 1.22858 -0.0367039 -0.0295 1.22626 -0.0212242 -0.0295 1.21824 -0.0493853 -0.0295 1.21818 -0.0499745 -0.0295 1.19993 -0.0383132 -0.0295 1.23423 -0.0154356 -0.0295 1.21904 -0.0434636 -0.0295 1.24231 0.0477335 -0.0295 1.27598 -0.0184166 -0.0295 1.21928 0.0033922 -0.0295 1.21686 0.0075977 -0.0295 1.21578 -0.0061194 -0.0295 1.21711 0.0532567 -0.0295 1.21571 0.0540912 -0.0295 1.18616 -0.0406612 -0.0295 1.29337 -0.0268384 -0.0295 1.30846 -0.00790519 -0.0295 1.31623 0.0125333 -0.0295 1.31519 0.0221455 -0.0295 1.31134 -0.0484622 0.0255 1.25247 -0.0494568 0.0265366 1.25223 -0.0481055 0.0265734 1.27394 -0.0471115 0.0255 1.27386 0.0429593 0.0565619 1.20341 0.0234133 0.0582733 1.17679 0.0449638 0.0577828 1.1285 -0.0401354 0.0545857 1.24416 -0.0264795 0.0557042 1.24023 -0.0321712 0.0526544 1.29022 -0.022587 0.0578334 1.17409 -0.0211332 0.0581416 1.14939 0.000408901 0.0585463 1.17543 0.0018621 0.0588478 1.15073 -0.00348237 0.0564355 1.24158 0.0248655 0.0585774 1.15209 0.0195241 0.0561554 1.24293 0.0009528 0.0589451 1.1285 -0.000871159 0.0524412 1.30799 0.0311992 0.0527163 1.29169 0.0414855 0.0541973 1.25796 0.0424363 0.0552781 1.23605 -0.0429391 0.0565909 1.1285 -0.00623422 -0.0284738 1.21611 0.0034558 -0.0284738 1.21587 -0.0157252 -0.0284738 1.21808 0.0037537 3.5e-08 1.21663 0.0071362 6.6e-08 1.21577 0.0070607 -0.0284738 1.21494 0.0484442 -0.0298336 1.2762 0.0486838 -0.0306107 1.27627 0.0519403 -0.0306083 1.2625 0.0437208 -0.0306116 1.28955 0.0540834 0.0257429 1.20921 0.0336511 0.0255 1.22145 0.034002 0.0257429 1.222 0.0537324 0.0255 1.20866 -0.0489639 0.0315791 1.25048 -0.0490274 0.0317348 1.25089 -0.0444612 0.0317186 1.24168 -0.0450761 0.0333365 1.2413 -0.0485714 0.0330653 1.24817 -0.0464537 0.034 1.24041 -0.0478976 0.034 1.24273 0.0550869 -0.0305872 1.18619 0.0542517 -0.0305971 1.21574 0.0539602 0.0255 1.20005 0.0248642 0.0255 1.21859 0.0097311 0.0255 1.24696 0.008575 0.0255 1.21926 0 0.0255 1.245 0.0129104 0.0255 1.21797 0.0181915 0.0255 1.2174 0.0048811 0.0255 1.21961 -0.0338006 0.0255 1.22714 -0.0176777 0.0255 1.25232 -0.0329393 0.0254999 1.22546 -0.0062811 0.0255 1.21976 -0.00973113 0.0255 1.24696 -0.0191926 0.0254999 1.22282 -0.0434636 0.0255 1.24231 -0.0230354 0.0255 1.26027 -0.0274765 0.0255 1.22315 -0.0235486 0.0255 1.22252 -0.0409828 0.0255 1.29355 -0.025 0.0255 1.27 -0.0270505 0.0255 1.30876 -0.0230354 0.0255 1.27973 -0.0176777 0.0255 1.28768 -0.00973113 0.0255 1.29304 -0.00796745 0.0255 1.31659 0.0223209 0.0255 1.31167 0.0097311 0.0255 1.29304 0.0126327 0.0255 1.31555 0 0.0255 1.295 0.0308276 0.0255 1.30583 0.0176777 0.0255 1.28768 0.0378668 0.0255 1.29829 0.0230354 0.0255 1.27973 0.0479197 0.0255 1.27662 0.025 0.0255 1.27 0.0431525 0.0255 1.28929 0.0484615 0.0255 1.25247 0.0230354 0.0255 1.26027 0.0511199 0.0255 1.26348 0.0337849 0.0255 1.22712 0.0176777 0.0255 1.25232 0.0434636 0.0255 1.24231 0.0326657 0.0255 1.22306 0.0443471 -0.0318459 1.24175 0.0521144 -0.0339258 1.25865 0.051948 -0.0315879 1.26181 0.0518742 -0.0329806 1.25891 0.052691 -0.0351468 1.25143 0.0517044 -0.034 1.25136 0.0176939 0.0252708 1.21597 0.0542308 0.0253982 1.19449 0.0545554 0.0249434 1.19036 0.0548228 0.0238669 1.18794 0.0129501 0.0245929 1.21577 0.0550933 0.0219424 1.18663 0.0098034 0.0236355 1.21639 0.0554893 0.0185959 1.18575 0.0073787 0.0191903 1.21647 0.0081614 0.0221898 1.21662 0.0555945 0.0139879 1.18533 0.0071689 0.0146799 1.21622 0.0556879 0.00789271 1.18504 0.0071579 0.00845251 1.21597 0.0556595 0 1.18486 0.0529933 -0.0351443 1.24419 0.053172 -0.0351418 1.23678 0.0536066 -0.0339827 1.22597 0.0557223 0.0191016 1.18523 0.0560461 0.00808851 1.18439 0.0560316 0.0052447 1.18452 0.055895 0.0143619 1.18474 0.0555149 0.0233789 1.18641 0.0551987 0.0230255 1.18703 0.0550533 0.0253267 1.19061 0.0552599 0.0258827 1.1905 0.0546962 0.0256249 1.19541 0.0550098 0.026021 1.19534 0.0551032 0.0263548 1.19545 0.0561218 2.2311e-05 1.18405 0.055404 0.024809 1.18761 0.0555467 0.0227435 1.18605 0.0549578 0.026563 1.20008 0.0552012 -0.0298844 1.18432 0.0553173 -0.0285114 1.18367 0.0548813 -0.0284752 1.18448 0.0510953 0.0508069 1.1285 0.0449638 0.0577828 1.1285 0.0282235 0.0283461 1.1285 0.0009528 0.0589451 1.1285 0.0153567 0.0369351 1.1285 -0.0429391 0.0565909 1.1285 -0.0153567 0.0369351 1.1285 0 0.04 1.1285 -0.0478898 0.0501982 1.1285 -0.0282235 0.0283461 1.1285 -0.0527797 0.0294925 1.1285 -0.0369856 0.0152356 1.1285 -0.0536453 -0.00568636 1.1285 -0.04 0 1.1285 -0.0534858 0.0138546 1.1285 -0.0511885 0.0429798 1.1285 -0.052096 -0.0365 1.1285 -0.0369856 -0.0152356 1.1285 -0.0483898 -0.04447 1.1285 -0.0282235 -0.0283461 1.1285 -0.0429394 -0.0513916 1.1285 0.0009549 -0.053856 1.1285 -0.0153567 -0.0369351 1.1285 0.044965 -0.0528021 1.1285 0.0153567 -0.0369351 1.1285 0 -0.04 1.1285 0.0515571 -0.0451398 1.1285 0.0282235 -0.0283461 1.1285 0.0565105 -0.0364985 1.1285 0.0369856 -0.0152356 1.1285 0.057484 -0.0218582 1.1285 0.0579596 -0.00166199 1.1285 0.0574404 0.0228644 1.1285 0.0369856 0.0152356 1.1285 0.04 0 1.1285 0.055548 0.0430018 1.1285 0.053631 -0.0384861 1.18179 0.0565105 -0.0364985 1.1285 0.0525399 -0.0404077 1.18182 -0.0419015 -0.0450403 1.23306 -0.0407192 -0.0461714 1.22961 -0.0435666 -0.0476223 1.18201 -0.0492336 -0.0399736 1.18185 -0.0500648 -0.038258 1.18182 -0.0473338 -0.0392445 1.23516 -0.0481819 -0.0378975 1.23554 -0.048297 -0.0416361 1.18188 -0.0464028 -0.0405341 1.23477 -0.047259 -0.0432376 1.18191 -0.0453918 -0.0417621 1.23437 -0.0461208 -0.0447744 1.18194 -0.0443013 -0.0429264 1.23394 -0.0448886 -0.0462376 1.18198 -0.0431365 -0.0440206 1.23351 -0.0415199 -0.0384384 1.28753 -0.0422261 -0.0375021 1.28848 -0.0407677 -0.0393085 1.28656 -0.0399686 -0.040114 1.28554 -0.0391206 -0.0408567 1.28448 -0.0382278 -0.0415309 1.28339 -0.037294 -0.0421315 1.28228 0.0003997 -0.038225 1.31508 0.0003678 -0.0373936 1.3161 0.000431401 -0.0389882 1.314 0.0004628 -0.0396787 1.31288 0.0004938 -0.0402937 1.31171 0.0005242 -0.0408295 1.3105 0.000554101 -0.041284 1.30926 0.0418834 -0.0386415 1.28684 0.0425605 -0.0376068 1.28781 0.0411454 -0.0395964 1.28583 0.0403491 -0.0404655 1.28478 0.0394954 -0.041245 1.28369 0.038588 -0.0419286 1.28257 0.0376302 -0.0425118 1.28143 0.0510043 -0.0395909 1.23511 0.0520584 -0.0380824 1.23552 0.0498368 -0.0410132 1.23469 0.0485616 -0.0423402 1.23425 0.047181 -0.043566 1.23379 0.0457018 -0.0446813 1.23332 0.0441305 -0.0456795 1.23284 0.0513155 -0.0422501 1.18186 0.0499643 -0.0440021 1.18189 0.0484893 -0.0456567 1.18193 0.0469007 -0.0472024 1.18196 0.0452064 -0.0486324 1.182 0.0548609 -0.0364999 1.17342 0.0539048 -0.0365 1.20312 -0.0369947 -0.0428057 1.27869 -0.0422199 -0.0490535 1.17948 -0.0022314 -0.0416529 1.30793 0.0360917 -0.0428774 1.2819 0.0425012 -0.0466402 1.23114 0.0434417 -0.0500025 1.18098 0.044965 -0.0528021 1.1285 0.053328 -0.0365 1.22316 0.052712 -0.0364973 1.24701 0.0519718 -0.0364999 1.25671 0.0496478 -0.0365 1.2696 0.0429623 -0.0365 1.28921 0.0338553 -0.0364995 1.30269 0.020776 -0.0364997 1.31223 0.0052422 -0.0364998 1.31677 -0.010912 -0.0364999 1.31578 -0.0248951 -0.0364999 1.30994 -0.0362927 -0.0364999 1.29996 -0.0439433 -0.0365001 1.28684 -0.0469038 -0.0365 1.27384 -0.0492986 -0.0365004 1.22652 -0.052096 -0.0365 1.1285 -0.0483898 -0.04447 1.1285 -0.0429394 -0.0513916 1.1285 0.0515571 -0.0451398 1.1285 0.044965 -0.0528021 1.1285 0.0209683 -0.0486665 1.21827 0.0434417 -0.0500025 1.18098 -0.0422199 -0.0490535 1.17948 -0.0250309 -0.048219 1.21557 -0.0429394 -0.0513916 1.1285 -0.0022314 -0.0416529 1.30793 -0.00203622 -0.0489438 1.21692 -0.0369947 -0.0428057 1.27869 -0.0407192 -0.0461714 1.22961 0.0009549 -0.053856 1.1285 0.0425012 -0.0466402 1.23114 0.0360917 -0.0428774 1.2819 0.0496478 -0.0365 1.2696 0.0533531 0.0347171 1.23023 0.0531321 0.035145 1.23681 0.0533888 0.035772 1.22281 0.0568191 -0.018611 1.15091 0.056022 -0.0330263 1.15088 0.056079 -0.0178291 1.17479 0.0553275 -0.0318405 1.17476 0.0571216 -0.00658539 1.15092 0.056359 -0.00612483 1.17479 0.0571394 0.00522502 1.15092 0.0563691 0.0053534 1.1748 0.0569126 0.0159305 1.15091 0.0561494 0.0157529 1.17479 0.0563955 0.0275394 1.15089 0.0556533 0.0270431 1.17477 0.0553453 0.0381547 1.15085 0.0546027 0.0373609 1.17475 0.0539488 0.0365669 1.19875 0.0521014 0.0265725 1.26365 0.048835 0.0340535 1.27418 0.0519636 0.0317333 1.2615 0.0536861 0.0334376 1.22372 0.0530392 0.0351167 1.24086 0.0542255 0.0305179 1.21558 0.0514033 0.0429968 1.24763 0.0526966 0.0351491 1.25099 0.0506257 0.0430001 1.257 0.0488719 0.0265733 1.27692 0.0521603 0.033865 1.25844 0.047658 0.0430003 1.27209 0.0417591 0.0430002 1.28867 0.044063 0.0265734 1.2897 0.0548609 -0.0364999 1.17342 0.0547116 -0.0306468 1.19878 0.055548 0.0430018 1.1285 0.0539048 -0.0365 1.20312 0.057484 -0.0218582 1.1285 0.0565105 -0.0364985 1.1285 0.0579596 -0.00166199 1.1285 0.0574404 0.0228644 1.1285 0.05473 0.0265643 1.20868 0.0558913 -0.0154289 1.18371 0.053328 -0.0365 1.22316 0.052712 -0.0364973 1.24701 0.0519718 -0.0364999 1.25671 0.0429623 -0.0365 1.28921 -0.0443065 0.0264651 1.24177 -0.0468652 0.0257807 1.24695 -0.0485291 0.0334096 1.23162 -0.0480291 0.034 1.2394 -0.043116 0.0334571 1.23536 -0.0497585 0.0291215 1.21751 -0.0491333 0.0317351 1.22425 -0.0339831 0.0257137 1.22198 -0.0503219 0.0257137 1.21157 -0.0398732 0.0318618 1.23053 -0.036803 0.029264 1.22603 -0.0338042 0.026161 1.22502 -0.0346435 0.0264651 1.22661 -0.0275889 0.0261612 1.30954 -0.0416179 0.0258193 1.29392 -0.0417988 0.0261612 1.29402 -0.0274695 0.0258193 1.30937 -0.0413356 0.0255862 1.29376 -0.0272832 0.0255862 1.3091 -0.00812583 0.0261612 1.31752 -0.00809065 0.0258193 1.31732 -0.00803584 0.0255862 1.31699 0.0128845 0.0261612 1.31646 0.0128288 0.0258193 1.31626 0.0127417 0.0255862 1.31594 0.0227655 0.0261612 1.3125 0.022667 0.0258193 1.31231 0.0225132 0.0255862 1.31203 0.0314416 0.0261612 1.30655 0.0313055 0.0258193 1.30639 0.0310932 0.0255862 1.30614 0.0386209 0.0261612 1.29886 0.0384538 0.0258193 1.29873 0.038193 0.0255862 1.29854 -0.0418476 0.0265734 1.29405 -0.0276214 0.0265734 1.30958 -0.00813558 0.0265734 1.31758 0.0128994 0.0265734 1.31651 0.022792 0.0265734 1.31255 0.0314781 0.0265734 1.30659 0.0386658 0.0265734 1.29889 -0.0485618 -0.0330616 1.24851 -0.0488379 -0.0337947 1.24893 -0.0478853 -0.034 1.24304 -0.048873 -0.0351513 1.24308 -0.0490169 -0.0351505 1.23944 -0.0480291 -0.034 1.2394 -0.0463045 -0.034 1.2405 -0.0506824 0.02542 1.20665 -0.0503736 0.0252452 1.20639 -0.0508128 0.0244577 1.20263 -0.0511366 0.0247176 1.20248 -0.0510066 0.0257359 1.20651 -0.051315 0.0251793 1.20225 -0.0512719 0.0256273 1.20305 -0.051276 0.0212716 1.2001 -0.0515634 0.0215178 1.19969 -0.0514434 0.0178576 1.19944 -0.0518334 0.0153868 1.1986 -0.0515926 0.0133332 1.19903 -0.0519981 0.00478864 1.19823 -0.0520206 0.00763886 1.19812 -0.0516484 0.00745681 1.19876 -0.0514087 0.0242731 1.20087 -0.0520883 2.3426e-05 1.19776 -0.0516259 -1e-09 1.19858 -0.0508819 0.0233898 1.2013 -0.0505134 0.0245993 1.2032 -0.0499832 0.0254703 1.21103 -0.0509677 0.0265365 1.21105 -0.0443065 -0.0304651 1.24177 -0.0391561 -0.0304651 1.23369 -0.0176012 0.0249583 1.22107 -0.00644981 0.0249583 1.21842 -0.0178171 0.0236271 1.22048 0.005013 0.0249583 1.21825 0.00514838 0.0235973 1.2176 -0.00652877 0.0236267 1.21778 -0.0496488 -0.0296286 1.2186 -0.0503792 -0.0306043 1.21822 -0.0278377 0.0254232 1.22264 -0.0235883 0.0247189 1.22067 -0.0276917 0.0253436 1.22203 -0.0231658 0.0250732 1.22129 -0.0201653 0.0230363 1.22045 -0.0192432 0.023445 1.22072 -0.0206425 0.0228962 1.2202 -0.0180524 0.018943 1.2201 -0.016795 0.0158957 1.21967 -0.0191272 0.0188621 1.21995 -0.019819 0.0184584 1.21965 -0.017461 0.0122053 1.21964 -0.018083 0.0143171 1.21978 -0.0185731 0.0124278 1.21962 -0.0197384 0.0139248 1.21935 -0.0195148 0.00901111 1.21921 -0.0167572 0.00471379 1.21924 -0.0174675 0.00473483 1.21938 -0.0187718 0.00470825 1.21931 -0.0215827 0.0235352 1.22008 -0.0205261 0.0216619 1.2198 -0.0202785 3e-09 1.21855 -0.0201849 0.00790301 1.21882 -0.0163369 0 1.21906 -0.0203579 0.0243147 1.22095 -0.050969 -0.0305999 1.19996 -0.0516989 -0.0199934 1.19739 -0.0513397 -0.0172189 1.19822 -0.0507764 -0.0284739 1.19823 -0.0512354 -0.028531 1.19742 -0.0510936 -0.0299024 1.19809 0.0443065 0.0264651 1.24177 0.0346278 0.0264651 1.22658 -0.0493392 0.026957 1.2545 -0.0513074 0.0378834 1.15538 -0.0512385 0.0387 1.1534 -0.0511273 0.0385844 1.15822 -0.0521982 -0.0292481 1.15825 -0.0524869 -0.0296179 1.14339 -0.0527944 -0.0176116 1.15827 -0.0530962 -0.0178216 1.14342 -0.0518727 -0.0288783 1.1731 -0.0524552 -0.0174009 1.17312 -0.0515072 -0.028507 1.18802 -0.0520769 -0.0171835 1.18804 -0.0530641 -0.00525618 1.15828 -0.0533729 -0.00533038 1.14343 -0.0527182 -0.00518251 1.17312 -0.0523328 -0.00511032 1.18805 -0.0530498 0.00663613 1.15828 -0.0533573 0.00671995 1.14343 -0.0527051 0.00655231 1.17312 -0.0523197 0.00646802 1.18805 -0.0527623 0.0182557 1.15827 -0.0524253 0.0180266 1.17311 -0.0520481 0.0177955 1.18804 -0.0518656 0.02898 1.1731 -0.0521902 0.0293549 1.15825 -0.0515003 0.028605 1.18802 -0.0509659 0.0281227 1.20739 -0.0507954 0.0380947 1.17313 -0.0504289 0.0376066 1.18798 -0.0499005 0.0369696 1.20734 -0.0493156 0.0363337 1.22669 -0.0483518 0.0354215 1.25444 -0.0515533 0.0359 1.1562 -0.052811 0.0181 1.1562 -0.0528965 0.01612 1.15538 -0.0529646 0.0153 1.1534 -0.0533 0.0153 1.13651 -0.0534858 0.0138546 1.1285 -0.0536453 -0.00568636 1.1285 -0.0520795 0.0359 1.1328 -0.0527797 0.0294925 1.1285 -0.0518162 0.0378828 1.13362 -0.0532985 0.0176729 1.1328 -0.051664 0.0387 1.1356 -0.052096 -0.0365 1.1285 -0.0492986 -0.0365004 1.22652 -0.0469038 -0.0365 1.27384 -0.0505554 0.0295787 1.21609 -0.0500806 0.0321146 1.22194 -0.0494739 0.0343791 1.23054 -0.0490169 0.0351505 1.23944 -0.0488508 0.0337993 1.2486 -0.0488853 0.0351513 1.24277 -0.0496092 -0.0339779 1.22847 0.0334556 0.0259519 1.22381 0.0041346 0.0169066 1.21716 0.00390244 0.0145729 1.21704 0.0144087 0.0249948 1.21605 0.0142663 0.0251363 1.21644 0.0195683 0.025434 1.21692 0.00955501 0.0243712 1.21711 0.0100484 0.0240449 1.21662 0.00743195 0.0217248 1.2169 0.00634767 0.0218044 1.21732 0.00652703 0.0167698 1.21672 0.00507621 0.0167958 1.21713 0.00551882 0.0222758 1.21751 0.00654542 0.010936 1.2164 0.00565282 0.0113128 1.21674 0.00472209 0.0112662 1.2169 0.00618047 0.00544134 1.21638 0.00501403 0.0055883 1.2167 0.0039749 0.00564411 1.21674 0.0172796 0.0254226 1.21683 0.012115 0.0250403 1.21686 0.0083096 0.0242588 1.21742 -0.0206871 -0.0284738 1.2174 0.0463813 0.034 1.24045 0.0521593 0.0339991 1.23675 0.0430661 0.0334591 1.2354 0.0525216 0.0334194 1.22913 0.0398458 0.0318695 1.23057 0.0530251 0.0317637 1.22185 0.0535726 0.0291618 1.21515 0.0367985 0.0292809 1.22607 -0.0327254 0.025483 1.22278 -0.0336445 0.0254703 1.22144 -0.0334436 0.0257983 1.22287 -0.0492727 0.0336276 1.23058 -0.0498942 0.0314708 1.22217 -0.0503772 0.0290282 1.21642 -0.0418541 0.0328367 1.23631 -0.0357484 0.0287714 1.22708 -0.0387182 0.0312966 1.23153 -0.0393704 0.0304409 1.23377 -0.0438926 0.0307135 1.28911 -0.0433883 0.0348384 1.28889 0.0219814 0.0389383 1.31111 0.0341231 0.0389383 1.30175 0.0346474 0.0348384 1.30223 0.0350478 0.0307135 1.30261 0.0223176 0.0348384 1.31174 0.0225772 0.0307135 1.31222 0.0075808 0.0348384 1.31672 0.0076688 0.0307135 1.31726 0.0074664 0.0389383 1.31601 -0.00797728 0.0348384 1.31665 -0.00807007 0.0307135 1.31719 -0.00785713 0.0389383 1.31595 -0.0226728 0.0348384 1.31154 -0.0229366 0.0307135 1.31203 -0.0223313 0.0389383 1.31092 -0.0349178 0.0348384 1.30195 -0.035324 0.0307135 1.30232 -0.0343917 0.0389383 1.30147 -0.0427342 0.0389383 1.28861 0.0346026 0.0430002 1.29992 -0.0392688 0.043 1.29346 -0.0284913 0.0429999 1.30579 -0.0441957 0.0430006 1.2818 -0.0215624 0.0254608 1.22228 -0.0466525 -0.0297807 1.24652 -0.0443445 -0.0317558 1.24175 -0.0449511 -0.0333473 1.24138 0.05171 0.034 1.25092 0.0444637 0.0318044 1.24167 0.0393561 0.0304873 1.23374 -0.0369674 -0.0296286 1.22667 -0.0367326 -0.0298701 1.22894 0.0498859 0.0333278 1.25079 0.0519689 0.0315786 1.26118 0.051915 0.0331379 1.25789 0.0491927 0.0316897 1.25105 0.0450538 0.0333615 1.24131 0.0101574 0.0249584 1.21737 0.0418362 0.0328554 1.23631 0.0357509 0.0287883 1.2271 0.0387089 0.0313119 1.23154 0.0383308 -0.0301878 1.29864 0.0383655 -0.0306116 1.29867 0.0312054 -0.0301878 1.30627 -0.0410218 -0.0295903 1.29358 0.0308568 -0.0295903 1.30587 0.0379026 -0.0295903 1.29832 0.0310716 -0.0298335 1.30612 0.0381665 -0.0298335 1.29852 0.022342 -0.0295903 1.31171 0.0224976 -0.0298335 1.312 0.0126447 -0.0295903 1.31559 0.0127327 -0.0298335 1.31591 -0.0079751 -0.0295903 1.31664 -0.00803063 -0.0298335 1.31696 -0.0270763 -0.0295903 1.3088 -0.0272649 -0.0298335 1.30907 -0.0413074 -0.0298335 1.29374 0.0225945 -0.0301878 1.31218 0.0127876 -0.0301878 1.31611 -0.0080652 -0.0301878 1.31716 -0.0273822 -0.0301878 1.30924 -0.0414852 -0.0301878 1.29384 -0.0415225 -0.0306116 1.29386 -0.0274066 -0.0306116 1.30927 0.0127992 -0.0306116 1.31615 -0.00807227 -0.0306116 1.31721 0.0226149 -0.0306116 1.31222 0.0312337 -0.0306116 1.30631 -0.0182809 -0.0284665 1.21829 -0.00640724 1.8e-08 1.21688 -0.0487569 -0.0328725 1.22865 0.0521112 0.0264651 1.26335 0.0494013 0.0264651 1.25213 0.0347927 -0.0320834 1.30267 0.0344798 -0.0350342 1.30238 0.0224121 -0.0335628 1.3119 0.0223085 -0.0350342 1.3117 0.0225045 -0.0320884 1.31207 0.00776845 -0.0350381 1.31666 0.0078533 -0.0320884 1.31707 -0.00797239 -0.0350342 1.31662 -0.00801958 -0.033291 1.31688 -0.0228607 -0.0350386 1.31142 -0.0230469 -0.0320884 1.31178 -0.0352052 -0.0320884 1.3022 -0.0349087 -0.0350394 1.30192 -0.0436605 -0.0320884 1.28925 -0.0432861 -0.0350385 1.28908 -0.0362927 -0.0364999 1.29996 -0.0248951 -0.0364999 1.30994 -0.0439433 -0.0365001 1.28684 -0.010912 -0.0364999 1.31578 0.0052422 -0.0364998 1.31677 0.020776 -0.0364997 1.31223 0.0338553 -0.0364995 1.30269 -0.0183222 -0.0141394 1.21877 0.0491103 0.0257807 1.25224 0.053142 0.0339569 1.23026 0.0540435 0.0299441 1.2159 0.0534913 0.0327418 1.22388 0.0557641 -0.0153405 1.18418 0.0403271 -0.0323081 1.23429 0.0449269 -0.0333735 1.24139 0.0498342 -0.0333333 1.25106 0.0491448 -0.031709 1.25131 -0.0403418 -0.0322962 1.23429 -0.0415146 -0.0328893 1.23333</float_array>
					<technique_common>
						<accessor count="845" source="#base2_M1KShape1.positions-array" stride="3">
							<param name="X" type="float"/>
							<param name="Y" type="float"/>
							<param name="Z" type="float"/>
						</accessor>
					</technique_common>
				</source>
				<source id="base2_M1KShape1.normals">
					<float_array id="base2_M1KShape1.normals-array" count="2535" digits="2490374">0.757028 0.640206 -0.130555 0.84288 0.03489 -0.53697 0.001207 0.999999 -0.000744 0.263464 0.871444 0.41373 0.002396 0.999993 -0.002725 -2e-06 1 -3e-06 0.384023 0.923324 -0 0.384023 0.923324 -0 0 1 -0 0 1 -0 0.705532 0.708678 -0 0.705532 0.708678 -0 0.924571 0.38101 0 0.924571 0.38101 0 1 0 0 1 0 0 0.924571 -0.38101 -0 0.924571 -0.38101 -0 0.705532 -0.708678 0 0.705532 -0.708678 0 0.384023 -0.923324 0 0.384023 -0.923324 0 -0 -1 0 -0 -1 0 0 0 -1 0 0 -1 0 0 -1 0 0 -1 0 0 -1 0 0 -1 0 0 -1 0 0 -1 0 0 -1 0 0 -1 0 0 -1 0 0 -1 0 0 -1 0 0 -1 0 0 -1 0 0 -1 -0.384023 -0.923324 0 -0.384023 -0.923324 0 -0.705532 -0.708678 0 -0.705532 -0.708678 0 -0.924571 -0.38101 0 -0.924571 -0.38101 0 -1 0 0 -1 0 0 -0.924571 0.38101 0 -0.924571 0.38101 0 -0.705532 0.708678 -0 -0.705532 0.708678 -0 -0.384023 0.923324 -0 -0.384023 0.923324 -0 0 1 -0 0 1 -0 0.649447 0.720465 -0.243206 0 1 -0 0.935946 0.034141 -0.350485 0.842878 0.034899 -0.536971 0.988261 0.034899 -0.148735 0.389552 0 -0.921004 0.389552 0 -0.921004 0 0 -1 0 0 -1 0.707107 0 -0.707107 0.707107 0 -0.707107 0.921004 0 -0.389552 0.921004 0 -0.389552 1 0 0 1 0 0 0.921004 -0 0.389552 0.921004 -0 0.389552 0.707107 -0 0.707107 0.707107 -0 0.707107 0.389552 -0 0.921004 0.389552 -0 0.921004 0 0 1 0 0 1 -0 -1 0 -0 -1 0 -0 -1 0 -0 -1 0 -0 -1 0 -0 -1 0 -0 -1 0 -0 -1 0 -0 -1 0 -0 -1 0 -0 -1 0 -0 -1 0 -0 -1 0 -0 -1 0 -0 -1 0 -0 -1 0 -0.389552 0 0.921004 -0.389552 0 0.921004 -0.707107 0 0.707107 -0.707107 0 0.707107 -0.921004 0 0.389552 -0.921004 0 0.389552 -1 0 0 -1 0 0 -0.921004 -0 -0.389552 -0.921004 -0 -0.389552 -0.707107 -0 -0.707107 -0.707107 -0 -0.707107 -0.389552 0 -0.921004 -0.389552 0 -0.921004 -0.991759 -0.120844 0.042555 -0.93344 0.034899 -0.357033 -0.992971 -0.110258 0.043024 -0.93056 0.034899 -0.364472 0 1 -0 -0.990432 -0.111641 0.081125 0 1 -0 -0.740268 0.67043 0.05027 -0.76206 0.646966 0.026443 -0.67828 0.732445 0.05882 0.944347 0.327151 0.034378 0.919902 0.390855 0.031832 0.913935 0.403888 0.039974 -0.938407 0.343096 0.04095 -0.947991 0.316831 0.030519 -0.915273 0.400575 0.042608 -0.926065 0.376208 0.029522 -0.815759 0.462466 0.347365 -0.791322 0.515378 0.32893 0.007195 0.438442 0.898731 0.007332 0.506007 0.862498 0.827969 0.441377 0.34591 0.801577 0.498962 0.329411 0.911559 0.410206 0.028117 0.879801 0.474376 0.030284 0.889861 0.455235 0.030154 -0.888279 0.457176 0.044157 -0.900436 0.434047 0.028615 -0.763707 0.566528 0.309513 0.007347 0.570706 0.821121 0.770534 0.556127 0.311448 0.842814 0.537236 0.032288 0.855336 0.517266 0.028903 -0.857234 0.512902 0.045629 -0.871026 0.490448 0.027826 -0.732791 0.615894 0.289295 0.007292 0.632921 0.774182 0.733928 0.613299 0.291913 0.800132 0.598847 0.03422 0.816221 0.577054 0.028155 -0.822417 0.566931 0.047112 -0.838031 0.544945 0.027176 -0.696287 0.665762 0.268225 0.007252 0.69186 0.721996 0.691356 0.669839 0.270818 0.752236 0.65789 0.036344 0.772893 0.633916 0.028047 -0.783396 0.619617 0.048643 -0.801646 0.597203 0.0267 -0.656528 0.712593 0.24735 0.007275 0.746191 0.665693 0.642687 0.724708 0.248501 0.698503 0.714558 0.038733 0.725678 0.687439 0.028628 -0.612954 0.756986 0.226405 0.007402 0.795798 0.605516 0.587292 0.777417 0.225191 0.639219 0.76791 0.041404 0.674859 0.737339 0.029923 -0.715914 0.69818 0.003527 -0.855809 0.517198 0.009827 0.813796 0.580618 0.024872 0.681435 0.731369 0.027295 0.601074 0.798329 0.037154 0.570316 0.820159 0.045606 0.543203 0.832968 0.105331 -0.951158 0.307913 0.022111 -0.956156 0.290176 0.03954 -0.923125 0.376101 0.079925 -0.880618 0.412538 0.233074 -0.78603 0.40205 0.469589 -0.575109 0.385472 0.721569 -0.281206 0.370601 0.8852 0.075866 0.368054 0.926704 0.419621 0.375194 0.826527 0.69849 0.382204 0.605006 0.842504 0.381735 0.380086 0.888517 0.391535 0.239243 0.917106 0.381604 0.115305 0.945699 0.32353 0.031324 0.941709 0.335351 0.026921 0.946553 0.32112 0.030328 0.438838 0.835549 0.330574 -0.480889 0.815362 0.322383 -0.012455 0.8402 0.542134 0.136964 0.966965 0.214989 0.136214 0.967331 0.213812 -0.001381 0.999999 0.000128 0.263556 0.871432 0.413697 1e-06 1 2e-06 0 1 -0 0 1 -0 0 1 -0 0 1 -0 0 1 -0 0 1 -0 0 1 -0 0 1 -0 0 1 -0 0 1 -0 0 1 -0 0 1 -0 0 1 -0 0 1 -0 0 1 -0 0 1 -0 0 1 -0 0 1 -0 0 1 -0 0 1 -0 0 1 -0 0 1 -0 0 1 -0 -2.3e-05 -1 -0.000227 -0.981179 0.007761 -0.192943 -0.993977 0.073364 0.081412 -0 -1 0 0.070954 0.996928 0.033177 0.032107 0.99929 0.01974 0.066296 0.997774 0.007241 -0.081933 0.995668 0.043963 -0.056198 0.997489 0.043088 -0.063874 0.995853 0.064785 -0.053243 0.998471 0.014875 -0.052197 0.998623 0.005172 -0.010571 0.999796 0.017227 -0.009903 0.999924 0.00736 -0.012461 0.998891 0.045393 0.03238 0.999426 0.009989 0.03127 0.998353 0.048098 -0.013595 0.999904 0.002743 -0.001779 0.99715 0.075419 0.058784 0.995745 0.070975 0.074641 0.995573 0.057123 0.073772 0.996142 0.047536 -0.093426 0.995626 -0.000829 0.11488 -0.025739 0.993046 -0.063684 -0.026187 0.997626 0.289789 -0.026177 0.956733 -0.070268 -0.026175 0.997185 0.537189 -0.026176 0.843056 0.53715 -0.026176 0.843081 0.712679 0.667247 0.216494 0.950928 -0.110814 0.288887 0.979902 -0.10827 0.16754 0.907199 -0.111641 0.405618 0.351005 -0.757143 0.550936 -1.6e-05 -1 -2.6e-05 0.350996 -0.757158 0.550921 -0 -1 0 -0.928335 -0.03489 -0.370105 -0.991778 0.120831 0.042138 -0.842878 -0.034897 -0.536972 -0.581401 -0.71928 -0.380275 -0.711536 -0.622916 -0.325103 -0 -1 0 -0.001454 -0.999999 -0.000854 0.995737 -0.087232 0.029992 0.994935 -0.097081 0.026088 -0 -1 0 -0 -1 0 -0 -1 0 -0 -1 0 -0 -1 0 -0 -1 0 -0 -1 0 -0 -1 0 -0 -1 0 -0 -1 0 3.6e-05 -1 -0.000126 -0 -1 0 -0 -1 0 0.000579 -1 -0.000259 -0 -1 0 -0 -1 0 -0 -1 0 -0 -1 0 -0 -1 0 -0 -1 0 -0 -1 0 -0 -1 0 -0 -1 0 -0 -1 0 -0 -1 0 -0 -1 0 -0 -1 0 -0 -1 0 -0 -1 0 -0 -1 0 -0 -1 0 -0 -1 0 -0 -1 0 -0 -1 0 -0 -1 0 -0 -1 0 -0 -1 0 -0 -1 0 -0 -1 0 -0 -1 0 -0 -1 0 -0 -1 0 -0 -1 0 0.842887 0.034895 -0.536958 0.981489 -0.13501 0.135841 0.999423 -0.031001 -0.01389 0.795089 0.581817 -0.171236 0.986606 -0.146811 0.071094 -7e-06 1 2.7e-05 0.060985 -0.993538 0.095727 0.033057 -0.998186 0.050322 0.14827 -0.962266 0.228166 0.398721 -0.670307 0.625867 0.243242 -0.891656 0.381815 0.518074 -0.265109 0.813214 0.429948 -0.599731 0.674884 0.540026 -0.094865 0.836285 0.534016 -0.110381 0.838238 0.51307 -0.296911 0.805359 0.539102 -0.04291 0.841147 0.536705 -0.047002 0.84246 0.53815 -0.025493 0.842463 0.53711 -0.026508 0.843096 0.537214 -0.017747 0.843259 0.989149 -0.144835 0.024639 0.98957 -0.141971 0.024415 0.99231 -0.120755 0.02717 0.998503 0.037447 0.039864 0.999536 0.016331 0.02573 0.930002 0.00018 0.367555 0.999187 0.028705 0.028292 0.997431 0.028294 0.065811 0.688216 -0.34469 0.638395 0.776184 -0.60869 0.164423 0.999229 0.011183 0.037623 0.591132 -0.805244 0.046318 0.914396 -0.402582 0.042515 0.998056 0.055804 0.027739 0.999752 0.000195 0.022256 0.998273 0.051964 0.027393 0.998623 0.04724 0.022817 0.99765 0.062978 0.027 0.996547 -0.077367 0.030124 0.997453 -0.064737 0.029943 0.536705 -0.027243 0.84333 0 0 -1 0 0 -1 0 0 -1 0 0 -1 0 0 -1 0 0 -1 0 0 -1 0 0 -1 0 0 -1 0 0 -1 0 0 -1 0 0 -1 0 0 -1 0 0 -1 0 0 -1 0 0 -1 0 0 -1 0 0 -1 0 0 -1 0 0 -1 0 0 -1 0 0 -1 0 0 -1 0 0 -1 0 0 -1 0 0 -1 0 0 -1 0 0 -1 0 0 -1 0 0 -1 0 0 -1 0 0 -1 0 0 -1 0 0 -1 0 0 -1 0 0 -1 0.886167 -0.462328 0.031015 0.910342 -0.412214 0.036828 0.851564 -0.523237 0.032592 -0.594694 -0.800985 0.069012 -0.550481 -0.831552 0.074112 -0.701263 -0.711189 0.049395 -0.885804 -0.462973 0.031724 -0.912794 -0.407367 0.029299 -0.822441 -0.567258 0.042533 -0.857614 -0.51287 0.038236 -0.855426 -0.51677 0.034567 -0.78365 -0.619407 0.047194 -0.821576 -0.568845 0.037795 -0.741312 -0.669129 0.052176 -0.784419 -0.618852 0.041341 -0.695444 -0.716279 0.057463 -0.744222 -0.666401 0.045202 -0.646422 -0.760369 0.063067 -0.596055 -0.759178 0.261471 -0.636407 -0.717613 0.282873 -0.552731 -0.797942 0.240371 -0.507062 -0.833387 0.219897 -0.458448 -0.865898 0.200115 -0.406333 -0.895607 0.181056 -0.351254 -0.921951 0.163178 0.00426 -0.795883 0.605435 0.004702 -0.75444 0.656352 0.003732 -0.833973 0.551793 0.003158 -0.868751 0.495239 0.002711 -0.8999 0.436089 0.002432 -0.926969 0.37513 0.002335 -0.949839 0.312731 0.630417 -0.724917 0.277614 0.67739 -0.67224 0.298725 0.578202 -0.774834 0.255568 0.5204 -0.821598 0.232725 0.45681 -0.864574 0.209371 0.387782 -0.902803 0.185937 0.314397 -0.935181 0.16307 0.792162 -0.609464 0.032134 0.837645 -0.545546 0.027016 0.741254 -0.670165 0.037703 0.684801 -0.727414 0.043774 0.622941 -0.780643 0.050409 0.556365 -0.828938 0.057621 0.486302 -0.87134 0.065391 0.812738 -0.581573 0.035051 0.769537 -0.637442 0.038474 0.722124 -0.690425 0.043017 0.67141 -0.739488 0.048636 0.617435 -0.784678 0.055269 0.917625 -0.396219 0.03122 0.908474 -0.417038 0.02746 -0.310478 -0.941176 0.133386 -0.659269 -0.750045 0.052886 -0.014923 -0.968104 0.250104 0.230063 -0.96245 0.144086 0.416969 -0.905957 0.073336 0.563246 -0.823914 0.062613 0.691995 -0.719585 0.057793 0.893134 -0.449128 0.024403 0.860198 -0.509334 0.025267 0.833312 -0.543611 0.100388 0.792718 -0.578839 0.191162 0.716286 -0.618385 0.323318 0.537275 -0.664748 0.519081 0.317683 -0.694206 0.645875 0.078814 -0.707817 0.701985 -0.162757 -0.711491 0.683587 -0.37384 -0.707594 0.599628 -0.554942 -0.694248 0.458322 -0.694302 -0.668654 0.266171 -0.798543 -0.597783 0.070607 -0.900844 -0.432848 0.033508 -0.949264 -0.313901 0.019094 -0.851757 -0.523441 0.0228 -0.708565 -0.704865 0.033168 0.816031 -0.576858 0.036432 0.063799 -0.996753 0.049123 0.02967 -0.997166 0.069133 0.067288 -0.99585 0.061277 -0.091458 -0.994395 0.053041 -0.056902 -0.996316 0.064153 -0.095894 -0.994542 0.041118 -0.00547 -0.995645 0.093066 -0.013617 -0.997692 0.066517 -0.075026 -0.993841 0.081555 -0.085467 -0.994089 0.066955 -0.016047 -0.998876 0.044595 0.07156 -0.994599 0.075177 0.065523 -0.993828 0.089516 0.958983 -0.163771 0.231367 0.989923 0.139495 0.024367 0.989101 0.145358 0.023446 0.988952 0.145968 0.02583 0.99871 -0.037822 0.033871 0.995083 -0.092572 0.035215 0.998887 -0.036012 0.030452 0.995193 -0.09261 0.031835 0.999341 -0.013116 0.033851 0.999462 -0.012218 0.030454 0.999371 0.010486 0.033888 0.999479 0.010675 0.030475 0.998925 0.031658 0.033861 0.999043 0.031397 0.030456 0.997459 0.062608 0.033999 0.997571 0.062592 0.030581 0.990549 0.132066 0.03703 0.98987 0.13798 0.033454 0.989301 0.142826 0.029737 0.9817 0.070856 0.176763 0.951935 0.144014 0.270332 0.980084 0.119808 0.158371 0.991686 0.126239 0.024965 0.989868 0.140015 0.023625 0.99472 0.099423 0.025454 0.964281 0.262584 0.034819 0.986544 0.149442 0.066313 0.967738 0.220704 0.121543 0.953048 0.07215 0.294099 0.981145 0.141233 0.131936 0.940625 0.225651 0.253587 0.888515 0.229615 0.397264 0.91045 0.073354 0.407063 0.991562 -0.125154 0.033768 0.995416 -0.091341 0.02836 0.988108 0.147797 0.042404 0.989863 -0.138831 0.029938 0.998359 -0.043661 0.037064 0.993678 -0.105212 0.039163 0.999305 -0.003631 0.037113 0.998252 0.046011 0.037095 0.997646 0.063562 0.025753 0.999095 -0.030954 0.029187 0.988702 -0.147418 0.02713 0.987112 -0.157691 0.027282 0.980043 -0.159979 0.117993 0.899978 -0.167711 0.402383 -0.842876 -0.034939 -0.536972 -0.623009 -0.719683 -0.306456 -0.099548 -0.982687 0.156259 4e-06 -1 -6e-06 -0.095637 -0.984031 0.15012 -0.277202 -0.856639 0.435119 -0.192582 -0.933558 0.302293 -0.351526 -0.756283 0.551784 -0.351526 -0.756283 0.551784 -0.187536 -0.93711 0.294372 -0.273545 -0.860701 0.429379 -0.892144 -0.339005 -0.298589 -0.842879 -0.034899 -0.536971 -0.538317 -0.339275 0.771432 -0.635181 -0.680644 0.365059 -0.81558 -0.339284 0.468738 -0.419239 -0.680655 0.600789 -0.353234 -0.913242 0.203015 -0.233141 -0.913248 0.334101 -0.158551 -0.339303 0.927219 -0.123479 -0.68066 0.722118 -0.068669 -0.913247 0.401578 0.251401 -0.339282 0.906469 0.19579 -0.680658 0.705954 0.108879 -0.913249 0.392583 0.444216 -0.339288 0.82919 0.345953 -0.680662 0.645768 0.192385 -0.91325 0.359113 0.613487 -0.339281 0.713107 0.47778 -0.680659 0.555364 0.265693 -0.91325 0.308838 0.753552 -0.339274 0.563074 0.586857 -0.680664 0.438515 0.326346 -0.913254 0.243855 -0.864676 0.073309 0.496952 -0.57072 0.073356 0.817862 -0.168099 0.073302 0.983041 0.266531 0.073344 0.961032 0.470954 0.073337 0.879104 0.650413 0.073346 0.756031 0.798906 0.073374 0.596964 -0.716457 0.617781 -0.324092 -0.989509 -0.139425 0.037858 3e-06 1 1.2e-05 -0.987704 -0.151315 0.0393 -0.987837 -0.150504 0.039062 0 1 -0 0 1 -0 -0.550138 -0.829282 0.098182 -0.074393 -0.992047 0.101531 -0.499173 -0.755197 0.424857 -0.813192 -0.499803 0.298186 -0.870157 -0.486844 0.07622 -0.993945 -0.065497 0.088219 -0.999208 0.017215 0.035863 -0.529169 -0.216583 0.82041 -0.996603 0.0232 0.079019 -0.539195 -0.08491 0.83789 -0.999132 0.031203 0.027597 -0.540618 -0.041922 0.840223 -0.931012 -0.00221 0.364981 -0.999335 0.015227 0.033125 -0.538246 -0.026815 0.842361 -0.998224 0.054874 0.0232 -0.999755 0.00021 0.022119 -0.537197 -0.01944 0.843233 -0.451489 -0.545569 0.706053 -0.231139 -0.903342 0.361315 -0.012787 -0.999717 0.020072 -0.99728 0.066483 0.031828 -0.842892 0.034899 -0.536949 -0.842892 0.034899 -0.536949 0.23167 -0.729132 0.643968 0.084732 -0.730501 0.677635 0.338035 -0.063503 0.938989 -0.065972 -0.729236 0.681075 -0.094455 -0.060479 0.99369 0.123853 -0.061806 0.990374 -0.263512 0.871134 0.41435 -0.993961 -0.104261 0.034218 0.056488 -0.976875 0.206212 -0.197399 -0.927329 0.317953 -0.042442 -0.99694 0.065639 -0.021038 -0.795998 0.604934 -0.267522 -0.337602 0.902473 -0.012147 -0.234627 0.97201 -0.395826 -0.38371 0.834319 0.023037 -0.084561 0.996152 0.311445 -0.046241 0.949139 -0.261588 -0.100798 0.959902 -0.531 -0.098444 0.841634 0.106694 -0.044717 0.993286 -0.033867 -0.05398 0.997968 -0.162739 -0.045797 0.985606 -0.532124 -0.045672 0.845433 -0.38248 -0.034684 0.923312 0.240698 -0.023352 0.970319 0.08361 -0.027357 0.996123 -0.210156 -0.029537 0.977221 -0.434949 -0.588062 0.681911 -0.520011 -0.248974 0.817068 -0.537252 -0.019429 0.843198 -0.53627 -0.027718 0.843591 0.304095 -0.01114 0.952577 -0.058004 -0.405853 0.912096 -0.994531 -0.099931 0.030347 -0.998798 -0.039572 0.028923 -0.538684 -0.026236 0.842099 -0.537121 -0.026177 0.843099 -0.996077 -0.083372 0.029658 -0.994919 -0.096225 0.029603 0.842885 -0.034899 -0.53696 0.842885 -0.034899 -0.53696 -0.995993 0.075696 0.047636 -0.989768 0.14049 0.024944 -0.990601 0.134463 0.025091 -0.988855 0.146641 0.025734 -0.996517 -0.08028 0.022578 -0.996624 -0.079583 0.020177 -0.999165 -0.034393 0.022048 -0.9992 -0.034895 0.01956 -0.996428 -0.080633 0.02511 -0.999124 -0.033882 0.024564 -0.996364 -0.080551 0.027738 -0.999074 -0.033451 0.027069 -0.999705 -0.010076 0.022084 -0.999756 -0.010187 0.019601 -0.999648 -0.009978 0.024599 -0.999585 -0.009799 0.027106 -0.99967 0.013286 0.022006 -0.999717 0.01351 0.019583 -0.999613 0.013053 0.024565 -0.999546 0.012936 0.027219 -0.999156 0.034709 0.021947 -0.999113 0.03426 0.024489 -0.999065 0.033714 0.027047 -0.996382 0.081192 0.025109 -0.996457 0.081019 0.022565 -0.996283 0.081533 0.0278 -0.996206 0.081201 0.031311 -0.988221 0.150439 0.028068 -0.987658 0.153574 0.030757 -0.987073 0.156741 0.03345 -0.986758 0.158011 0.036626 -0.986566 0.156141 0.048039 -0.991561 0.127359 0.024209 -0.999174 0.034422 0.021597 -0.99929 0.030957 0.021468 -0.999338 0.029616 0.021141 -1 0 0 -0.999468 0.0277 0.017216 -0.999793 -0.010922 0.017187 -0.992905 0.117092 0.020732 -0.996999 0.075325 0.017845 -0.991315 0.129691 0.021789 -0.999859 0.014795 0.007945 -0.990492 0.135725 0.022468 -0.992745 -0.118559 0.020029 -0.986577 -0.159117 0.03671 -0.982546 -0.167711 0.080477 -0.994843 0.095828 0.033233 -0.992206 0.119649 0.034809 -0.989219 0.141711 0.036939 -0.987847 0.150599 0.03844 -0.989344 0.13992 0.04027 -0.987717 0.151329 0.038919 -0.989864 -0.137259 0.036468 0.834825 -0.549387 -0.035235 -0.043905 -0.050102 0.997779 -0.072968 -0.04323 0.996397 0.131629 -0.934274 0.33137 0.103439 -0.906839 0.408588 -4e-06 -0.991474 0.130307 0.280129 -0.539652 0.793916 0.358369 -0.622546 0.695707 0.432563 -0.213378 0.875991 0.24175 -0.152248 0.95832 0.40396 -0.066969 0.912322 0.132988 -0.056798 0.989489 0.070948 -0.111328 0.991248 0.42327 -0.031856 0.905444 0.25933 -0.036791 0.965088 0.086334 -0.036962 0.99558 0.358558 -0.024165 0.933195 0.144956 -0.024806 0.989127 -0.043355 -0.023648 0.99878 0.002035 -0.961265 0.275617 0.172741 -0.770013 0.6142 0.238782 -0.379562 0.893821 -0.537098 -0.027354 0.843076 -0 -1 0 0.00111 -0.999999 0.000284 0.095468 -0.984088 0.149855 0.09881 -0.982945 0.155101 0.187206 -0.937338 0.293855 0.19149 -0.934336 0.30058 0.276176 -0.857785 0.433511 0.273088 -0.861203 0.428664 -0.005708 -0.999928 0.010579 -0.010273 -0.999712 0.021701 -0.71692 -0.662883 0.2159 -0.791596 -0.59259 0.149044 -0.819312 -0.514926 0.252149 -0.827401 -0.471033 0.305835 -0.646939 -0.712464 -0.271781 -0.774074 -0.62833 -0.07753 -0.712019 -0.680962 -0.171227 -0.842869 -0.034792 -0.536993 -0.910959 0.113697 0.396519 -0.906331 0.151844 0.394344 0.462524 0.190776 0.865838 0.718885 0.18985 0.668701 0.723804 0.151844 0.673091 0.727439 0.113697 0.676687 0.465654 0.151829 0.871845 0.468178 0.112722 0.876415 0.158433 0.151847 0.975624 0.159248 0.11293 0.980758 0.157322 0.1906 0.96898 -0.166596 0.151866 0.97426 -0.167476 0.112751 0.979408 -0.165455 0.190802 0.967584 -0.473621 0.151874 0.867535 -0.476087 0.11295 0.872115 -0.470377 0.190619 0.861632 -0.728885 0.151876 0.667578 -0.732787 0.112757 0.671051 -0.723937 0.19081 0.662953 -0.900229 0.18985 0.391848 0.736611 0.227786 0.636802 -0.835804 0.228436 0.499249 -0.606291 0.229257 0.76148 -0.94063 0.228393 0.251102 -0.020956 -0.980799 0.193892 -0.620239 0.719611 -0.312192 -0.842881 0.034896 -0.536967 -0.580397 0.719231 -0.381898 -0 -1 0 0.84288 -0.034953 -0.536965 0.84288 -0.034953 -0.536965 -0.263535 0.871429 0.413716 -0.757195 0.639131 -0.134783 0.64599 -0.720434 -0.252332 0.985295 -0.034936 -0.167253 0.737653 -0.651899 -0.175772 0.932373 -0.0406 -0.359212 0.582296 -0.719264 -0.378935 0.208494 -0.729199 0.651766 0.647721 -0.712144 -0.270754 0.77468 -0.627661 -0.076888 0.712771 -0.680387 -0.170386 0.760834 0.312928 0.568514 0.796058 -0.111642 0.594834 0.619417 0.312925 0.72 -0.361141 0.90912 0.207554 0.271652 0.90912 0.315764 0.33367 0.909121 0.249326 0.486049 0.666752 0.564976 0.597016 0.666755 0.446105 0.196697 0.909121 0.367164 0.351939 0.666755 0.656945 0.111319 0.90912 0.401384 0.199177 0.666752 0.718172 -0.07021 0.90912 0.410575 -0.125622 0.666752 0.734616 -0.23837 0.90912 0.341586 -0.426501 0.666752 0.611179 -0.646167 0.666752 0.371363 0.448509 0.312928 0.837207 0.253829 0.312925 0.915231 -0.160092 0.312925 0.936188 -0.543528 0.312925 0.77888 -0.823469 0.312925 0.473262 -0.861585 -0.111652 0.495182 -0.568683 -0.11165 0.814944 0.265581 -0.111645 0.957602 -0.167498 -0.111648 0.97953 0.469274 -0.111645 0.875967 0.648093 -0.111643 0.753333 -0.136122 -0.031569 0.990189 0.11967 -0.029833 0.992365 -0.133787 0.967363 0.215199 0.991353 -0.034901 -0.126498 0.939802 -0.034899 -0.339933 0.722982 -0.12669 0.679151 0.720116 -0.152982 0.676779 0.467189 -0.139885 0.873021 0.466286 -0.152421 0.871404 0.46796 -0.127264 0.874538 0.162622 -0.153196 0.974723 0.163566 -0.126572 0.978379 -0.166543 -0.153852 0.973957 -0.166969 -0.137269 0.97636 -0.477826 -0.153161 0.865 -0.479365 -0.12654 0.868445 -0.731966 -0.127196 0.669364 -0.72947 -0.152503 0.666796 -0.907486 -0.126596 0.400552 -0.904101 -0.152879 0.399035 -0.760612 -0.164855 0.627927 -0.521936 -0.165939 0.836688 -0.920717 -0.166352 0.352997 -0.228092 -0.167639 0.959099 0.109779 -0.166623 0.97989 0.435621 -0.164895 0.884898 0.709257 -0.165914 0.685148 -0.13202 -0.03267 0.990709 0.652011 -0.720595 -0.235848 0.786656 -0.607055 0.112502 0.825429 -0.488716 0.282531 0.808896 -0.555274 0.193283 0.869067 -0.032323 0.493637 0.678722 0.697886 -0.228674 0.582749 0.719368 -0.378039 0.64686 0.720463 -0.250011 0.933908 0.040808 -0.355177 -0.67751 0.698619 -0.230025 -0.143474 0.967354 0.208904</float_array>
					<technique_common>
						<accessor count="845" source="#base2_M1KShape1.normals-array" stride="3">
							<param name="X" type="float"/>
							<param name="Y" type="float"/>
							<param name="Z" type="float"/>
						</accessor>
					</technique_common>
				</source>
				<vertices id="base2_M1KShape1.vertices">
					<input semantic="POSITION" source="#base2_M1KShape1.positions"/>
				</vertices>
				<triangles count="1419" material="blinn21.material">
					<input offset="0" semantic="VERTEX" source="#base2_M1KShape1.vertices" set="0"/>
					<input offset="1" semantic="NORMAL" source="#base2_M1KShape1.normals" set="0"/>
					<p>0 0 2 2 1 1 3 3 4 4 0 0 5 5 1 1 2 2 2 2 0 0 4 4 6 6 8 8 7 7 9 9 8 8 6 6 10 10 7 7 11 11 6 6 7 7 10 10 12 12 11 11 13 13 10 10 11 11 12 12 14 14 13 13 15 15 12 12 13 13 14 14 16 16 15 15 17 17 14 14 15 15 16 16 18 18 17 17 19 19 16 16 17 17 18 18 20 20 19 19 21 21 18 18 19 19 20 20 22 22 21 21 23 23 20 20 21 21 22 22 24 24 26 26 25 25 26 26 28 28 27 27 27 27 29 29 26 26 28 28 30 30 27 27 30 30 31 31 27 27 31 31 32 32 27 27 32 32 33 33 27 27 33 33 34 34 27 27 35 35 27 27 34 34 29 29 36 36 26 26 36 36 37 37 26 26 37 37 38 38 26 26 38 38 39 39 26 26 39 39 25 25 26 26 40 40 23 23 41 41 22 22 23 23 40 40 42 42 41 41 43 43 40 40 41 41 42 42 44 44 43 43 45 45 42 42 43 43 44 44 46 46 45 45 47 47 44 44 45 45 46 46 48 48 47 47 49 49 46 46 47 47 48 48 50 50 49 49 51 51 48 48 49 49 50 50 52 52 51 51 53 53 50 50 51 51 52 52 9 9 53 53 8 8 52 52 53 53 9 9 54 54 56 56 55 55 57 57 56 56 54 54 58 58 59 59 56 56 60 60 58 58 56 56 59 59 55 55 56 56 60 60 56 56 57 57 61 61 63 63 62 62 64 64 63 63 61 61 65 65 62 62 66 66 61 61 62 62 65 65 67 67 66 66 68 68 65 65 66 66 67 67 69 69 68 68 70 70 67 67 68 68 69 69 71 71 70 70 72 72 69 69 70 70 71 71 73 73 72 72 74 74 71 71 72 72 73 73 75 75 74 74 76 76 73 73 74 74 75 75 77 77 76 76 78 78 75 75 76 76 77 77 79 79 81 81 80 80 81 81 83 83 82 82 82 82 84 84 81 81 83 83 85 85 82 82 85 85 86 86 82 82 86 86 87 87 82 82 87 87 88 88 82 82 88 88 89 89 82 82 90 90 82 82 89 89 84 84 91 91 81 81 91 91 92 92 81 81 92 92 93 93 81 81 93 93 94 94 81 81 94 94 80 80 81 81 95 95 78 78 96 96 77 77 78 78 95 95 97 97 96 96 98 98 95 95 96 96 97 97 99 99 98 98 100 100 97 97 98 98 99 99 101 101 100 100 102 102 99 99 100 100 101 101 103 103 102 102 104 104 101 101 102 102 103 103 105 105 104 104 106 106 103 103 104 104 105 105 107 107 106 106 108 108 105 105 106 106 107 107 64 64 108 108 63 63 107 107 108 108 64 64 109 109 111 111 110 110 112 112 109 109 110 110 111 111 114 114 113 113 115 115 111 111 113 113 116 116 118 118 117 117 119 119 121 121 120 120 122 122 124 124 123 123 125 125 123 123 124 124 126 126 127 127 122 122 124 124 122 122 127 127 128 128 129 129 126 126 127 127 126 126 129 129 130 130 131 131 128 128 129 129 128 128 131 131 132 132 133 133 130 130 131 131 130 130 133 133 120 120 134 134 132 132 133 133 132 132 134 134 124 124 135 135 125 125 136 136 125 125 135 135 127 127 137 137 124 124 135 135 124 124 137 137 129 129 138 138 127 127 137 137 127 127 138 138 131 131 139 139 129 129 138 138 129 129 139 139 133 133 140 140 131 131 139 139 131 131 140 140 134 134 141 141 133 133 140 140 133 133 141 141 135 135 142 142 136 136 143 143 136 136 142 142 137 137 144 144 135 135 142 142 135 135 144 144 138 138 145 145 137 137 144 144 137 137 145 145 139 139 146 146 138 138 145 145 138 138 146 146 140 140 147 147 139 139 146 146 139 139 147 147 141 141 148 148 140 140 147 147 140 140 148 148 142 142 149 149 143 143 150 150 143 143 149 149 144 144 151 151 142 142 149 149 142 142 151 151 145 145 152 152 144 144 151 151 144 144 152 152 146 146 153 153 145 145 152 152 145 145 153 153 147 147 154 154 146 146 153 153 146 146 154 154 148 148 155 155 147 147 154 154 147 147 155 155 149 149 156 156 150 150 157 157 150 150 156 156 151 151 158 158 149 149 156 156 149 149 158 158 152 152 159 159 151 151 158 158 151 151 159 159 153 153 160 160 152 152 159 159 152 152 160 160 154 154 161 161 153 153 160 160 153 153 161 161 155 155 162 162 154 154 161 161 154 154 162 162 156 156 116 116 157 157 117 117 157 157 116 116 158 158 163 163 156 156 116 116 156 156 163 163 159 159 164 164 158 158 163 163 158 158 164 164 160 160 165 165 159 159 164 164 159 159 165 165 161 161 166 166 160 160 165 165 160 160 166 166 162 162 167 167 161 161 166 166 161 161 167 167 168 168 169 169 117 117 120 120 121 121 134 134 170 170 171 171 148 148 148 148 141 141 170 170 170 170 141 141 121 121 141 141 134 134 121 121 171 171 172 172 167 167 148 148 171 171 155 155 167 167 162 162 171 171 162 162 155 155 171 171 173 173 166 166 172 172 167 167 172 172 166 166 165 165 166 166 174 174 169 169 175 175 136 136 117 117 169 169 157 157 143 143 150 150 169 169 150 150 157 157 169 169 122 122 123 123 176 176 143 143 169 169 136 136 136 136 175 175 125 125 123 123 125 125 175 175 126 126 122 122 177 177 175 175 176 176 123 123 177 177 178 178 126 126 176 176 177 177 122 122 178 178 179 179 126 126 179 179 180 180 126 126 126 126 180 180 128 128 181 181 182 182 128 128 181 181 128 128 180 180 182 182 183 183 128 128 128 128 183 183 130 130 184 184 185 185 130 130 184 184 130 130 183 183 185 185 186 186 130 130 132 132 130 130 187 187 187 187 188 188 132 132 186 186 187 187 130 130 188 188 189 189 132 132 120 120 132 132 190 190 119 119 120 120 190 190 189 189 190 190 132 132 174 174 191 191 165 165 173 173 174 174 166 166 165 165 191 191 164 164 163 163 164 164 192 192 193 193 164 164 191 191 116 116 163 163 118 118 193 193 192 192 164 164 168 168 117 117 118 118 192 192 118 118 163 163 3 3 195 195 194 194 196 196 194 194 195 195 197 197 3 3 194 194 198 198 196 196 195 195 199 199 201 201 200 200 202 202 204 204 203 203 205 205 203 203 206 206 207 207 208 208 202 202 206 206 203 203 204 204 201 201 210 210 209 209 204 204 202 202 211 211 211 211 202 202 208 208 209 209 115 115 201 201 210 210 57 57 209 209 57 57 54 54 209 209 54 54 55 55 209 209 5 5 212 212 55 55 213 213 212 212 2 2 55 55 214 214 209 209 214 214 55 55 212 212 214 214 208 208 209 209 207 207 209 209 208 208 2 2 4 4 213 213 5 5 2 2 212 212 215 215 216 216 4 4 213 213 4 4 216 216 115 115 113 113 201 201 113 113 217 217 201 201 217 217 218 218 201 201 218 218 219 219 201 201 219 219 220 220 201 201 220 220 221 221 201 201 221 221 200 200 201 201 222 222 224 224 223 223 225 225 224 224 222 222 226 226 228 228 227 227 229 229 231 231 230 230 232 232 234 234 233 233 235 235 233 233 234 234 230 230 236 236 232 232 234 234 232 232 236 236 234 234 227 227 235 235 237 237 235 235 227 227 236 236 238 238 234 234 227 227 234 234 238 238 235 235 237 237 239 239 230 230 231 231 236 236 236 236 240 240 238 238 240 240 236 236 231 231 241 241 242 242 238 238 241 241 238 238 240 240 242 242 243 243 238 238 243 243 226 226 238 238 227 227 238 238 226 226 237 237 227 227 228 228 235 235 239 239 233 233 228 228 239 239 237 237 233 233 244 244 232 232 244 244 233 233 239 239 244 244 229 229 232 232 230 230 232 232 229 229 214 214 246 246 245 245 212 212 246 246 214 214 208 208 245 245 247 247 214 214 245 245 208 208 246 246 249 249 248 248 250 250 249 249 246 246 210 210 251 251 57 57 201 201 251 251 210 210 252 252 253 253 251 251 254 254 252 252 251 251 253 253 57 57 251 251 254 254 251 251 201 201 255 255 257 257 256 256 258 258 255 255 256 256 223 223 260 260 259 259 261 261 263 263 262 262 264 264 262 262 265 265 265 265 262 262 263 263 259 259 263 263 261 261 266 266 216 216 215 215 267 267 266 266 215 215 268 268 256 256 269 269 270 270 272 272 271 271 273 273 274 274 271 271 275 275 271 271 272 272 270 270 271 271 274 274 276 276 278 278 277 277 272 272 280 280 279 279 275 275 272 272 279 279 281 281 279 279 280 280 277 277 283 283 282 282 278 278 284 284 277 277 284 284 285 285 277 277 285 285 281 281 277 277 280 280 277 277 281 281 222 222 283 283 225 225 276 276 277 277 282 282 222 222 282 282 283 283 225 225 287 287 286 286 287 287 225 225 283 283 286 286 289 289 288 288 289 289 286 286 287 287 290 290 291 291 288 288 290 290 288 288 289 289 288 288 291 291 292 292 293 293 295 295 294 294 296 296 292 292 291 291 297 297 293 293 298 298 292 292 296 296 295 295 294 294 295 295 296 296 298 298 300 300 299 299 294 294 298 298 293 293 301 301 303 303 302 302 297 297 298 298 299 299 303 303 299 299 300 300 304 304 306 306 305 305 300 300 302 302 303 303 307 307 309 309 308 308 301 301 302 302 306 306 305 305 306 306 302 302 274 274 269 269 270 270 304 304 305 305 309 309 308 308 309 309 305 305 310 310 269 269 256 256 269 269 310 310 270 270 307 307 308 308 310 310 270 270 310 310 308 308 258 258 256 256 268 268 311 311 1 1 59 59 312 312 314 314 313 313 315 315 316 316 312 312 314 314 312 312 316 316 317 317 318 318 269 269 318 318 317 317 319 319 268 268 269 269 318 318 319 319 321 321 320 320 321 321 319 319 317 317 320 320 323 323 322 322 323 323 320 320 321 321 324 324 322 322 325 325 326 326 322 322 323 323 327 327 324 324 328 328 326 326 325 325 322 322 329 329 327 327 330 330 325 325 328 328 324 324 330 330 249 249 329 329 328 328 330 330 327 327 331 331 329 329 249 249 196 196 316 316 332 332 332 332 333 333 196 196 315 315 332 332 316 316 4 4 3 3 215 215 197 197 215 215 3 3 334 334 197 197 194 194 267 267 197 197 334 334 333 333 194 194 196 196 334 334 194 194 333 333 197 197 267 267 215 215 335 335 337 337 336 336 337 337 327 327 329 329 327 327 337 337 335 335 336 336 338 338 335 335 335 335 324 324 327 327 335 335 339 339 324 324 340 340 324 324 339 339 319 319 340 340 341 341 339 339 341 341 340 340 341 341 339 339 342 342 341 341 343 343 319 319 318 318 319 319 343 343 343 343 341 341 344 344 342 342 344 344 341 341 344 344 342 342 345 345 346 346 336 336 337 337 342 342 339 339 347 347 348 348 339 339 335 335 348 348 347 347 339 339 340 340 319 319 320 320 320 320 322 322 340 340 340 340 322 322 324 324 329 329 331 331 337 337 346 346 337 337 331 331 349 349 268 268 345 345 343 343 344 344 268 268 318 318 343 343 268 268 345 345 268 268 344 344 266 266 350 350 216 216 351 351 352 352 350 350 352 352 216 216 350 350 353 353 355 355 354 354 354 354 357 357 356 356 358 358 356 356 359 359 360 360 356 356 357 357 361 361 358 358 362 362 360 360 359 359 356 356 362 362 364 364 363 363 359 359 362 362 358 358 365 365 367 367 366 366 368 368 361 361 363 363 367 367 363 363 364 364 362 362 363 363 361 361 369 369 365 365 370 370 364 364 366 366 367 367 371 371 369 369 372 372 366 366 370 370 365 365 371 371 372 372 373 373 370 370 372 372 369 369 373 373 375 375 374 374 375 375 373 373 372 372 376 376 374 374 377 377 378 378 374 374 375 375 379 379 376 376 380 380 378 378 377 377 374 374 380 380 382 382 381 381 377 377 380 380 376 376 383 383 382 382 384 384 379 379 380 380 381 381 383 383 381 381 382 382 385 385 384 384 386 386 387 387 384 384 382 382 353 353 388 388 355 355 387 387 386 386 384 384 357 357 354 354 355 355 388 388 385 385 355 355 386 386 355 355 385 385 389 389 391 391 390 390 392 392 394 394 393 393 395 395 397 397 396 396 398 398 396 396 397 397 399 399 400 400 395 395 397 397 395 395 400 400 401 401 402 402 399 399 400 400 399 399 402 402 403 403 404 404 401 401 402 402 401 401 404 404 405 405 406 406 403 403 404 404 403 403 406 406 394 394 392 392 405 405 406 406 405 405 392 392 397 397 407 407 398 398 408 408 398 398 407 407 400 400 409 409 397 397 407 407 397 397 409 409 402 402 410 410 400 400 409 409 400 400 410 410 404 404 411 411 402 402 410 410 402 402 411 411 406 406 412 412 404 404 411 411 404 404 412 412 392 392 413 413 406 406 412 412 406 406 413 413 407 407 414 414 408 408 415 415 408 408 414 414 409 409 416 416 407 407 414 414 407 407 416 416 410 410 417 417 409 409 416 416 409 409 417 417 411 411 418 418 410 410 417 417 410 410 418 418 412 412 419 419 411 411 418 418 411 411 419 419 413 413 420 420 412 412 419 419 412 412 420 420 414 414 421 421 415 415 422 422 415 415 421 421 416 416 423 423 414 414 421 421 414 414 423 423 417 417 424 424 416 416 423 423 416 416 424 424 418 418 425 425 417 417 424 424 417 417 425 425 419 419 426 426 418 418 425 425 418 418 426 426 420 420 427 427 419 419 426 426 419 419 427 427 421 421 428 428 422 422 429 429 422 422 428 428 423 423 430 430 421 421 428 428 421 421 430 430 424 424 431 431 423 423 430 430 423 423 431 431 425 425 432 432 424 424 431 431 424 424 432 432 426 426 433 433 425 425 432 432 425 425 433 433 427 427 434 434 426 426 433 433 426 426 434 434 428 428 391 391 429 429 389 389 429 429 391 391 430 430 435 435 428 428 391 391 428 428 435 435 431 431 436 436 430 430 435 435 430 430 436 436 432 432 437 437 431 431 436 436 431 431 437 437 433 433 438 438 432 432 437 437 432 432 438 438 434 434 439 439 433 433 438 438 433 433 439 439 440 440 441 441 389 389 413 413 392 392 442 442 443 443 393 393 394 394 420 420 413 413 444 444 393 393 442 442 392 392 427 427 420 420 445 445 442 442 444 444 413 413 434 434 427 427 446 446 444 444 445 445 420 420 447 447 439 439 446 446 445 445 446 446 427 427 434 434 446 446 439 439 447 447 448 448 439 439 389 389 441 441 429 429 449 449 450 450 429 429 449 449 429 429 441 441 450 450 451 451 429 429 429 429 451 451 422 422 452 452 453 453 422 422 452 452 422 422 451 451 453 453 454 454 422 422 415 415 422 422 455 455 455 455 456 456 415 415 454 454 455 455 422 422 456 456 457 457 415 415 457 457 458 458 415 415 415 415 458 458 408 408 459 459 460 460 408 408 459 459 408 408 458 458 460 460 461 461 408 408 408 408 461 461 398 398 398 398 462 462 396 396 462 462 398 398 461 461 463 463 464 464 396 396 463 463 396 396 462 462 464 464 465 465 403 403 396 396 464 464 395 395 401 401 399 399 464 464 399 399 395 395 464 464 443 443 394 394 465 465 401 401 464 464 403 403 403 403 465 465 405 405 394 394 405 405 465 465 448 448 466 466 439 439 466 466 390 390 435 435 439 439 466 466 438 438 436 436 437 437 466 466 437 437 438 438 466 466 440 440 389 389 390 390 436 436 466 466 435 435 435 435 390 390 391 391 467 467 469 469 468 468 470 470 472 472 471 471 473 473 475 475 474 474 476 476 470 470 471 471 472 472 477 477 471 471 474 474 471 471 477 477 474 474 477 477 468 468 478 478 479 479 468 468 476 476 471 471 475 475 468 468 473 473 474 474 471 471 474 474 475 475 473 473 468 468 479 479 478 478 468 468 469 469 467 467 468 468 477 477 253 253 252 252 480 480 481 481 483 483 482 482 484 484 486 486 485 485 487 487 485 485 486 486 488 488 489 489 484 484 486 486 484 484 489 489 490 490 491 491 488 488 489 489 488 488 491 491 492 492 493 493 490 490 491 491 490 490 493 493 494 494 495 495 492 492 493 493 492 492 495 495 496 496 497 497 494 494 495 495 494 494 497 497 497 497 498 498 495 495 345 345 495 495 498 498 498 498 483 483 345 345 499 499 501 501 500 500 502 502 483 483 481 481 503 503 482 482 483 483 502 502 504 504 483 483 505 505 507 507 506 506 508 508 499 499 500 500 500 500 501 501 509 509 497 497 496 496 119 119 500 500 509 509 510 510 507 507 509 509 506 506 510 510 511 511 500 500 507 507 510 510 509 509 511 511 512 512 500 500 508 508 500 500 512 512 487 487 514 514 513 513 497 497 119 119 498 498 515 515 119 119 496 496 498 498 190 190 483 483 190 190 498 498 119 119 483 483 189 189 503 503 189 189 483 483 190 190 188 188 503 503 189 189 505 505 506 506 503 503 487 487 513 513 485 485 516 516 513 513 514 514 484 484 485 485 517 517 518 518 485 485 513 513 484 484 517 517 488 488 518 518 517 517 485 485 488 488 519 519 490 490 519 519 488 488 517 517 520 520 515 515 494 494 494 494 492 492 520 520 519 519 520 520 490 490 492 492 490 490 520 520 496 496 494 494 515 515 504 504 521 521 483 483 521 521 349 349 483 483 483 483 349 349 345 345 345 345 342 342 495 495 342 342 347 347 495 495 347 347 348 348 495 495 493 493 495 495 335 335 335 335 338 338 493 493 348 348 335 335 495 495 491 491 493 493 336 336 336 336 346 346 491 491 338 338 336 336 493 493 491 491 346 346 489 489 487 487 486 486 351 351 486 486 489 489 522 522 522 522 489 489 346 346 351 351 350 350 487 487 522 522 351 351 486 486 350 350 266 266 487 487 487 487 266 266 514 514 516 516 267 267 523 523 516 516 514 514 267 267 267 267 514 514 266 266 523 523 334 334 524 524 334 334 523 523 267 267 333 333 524 524 334 334 525 525 524 524 315 315 333 333 332 332 524 524 480 480 525 525 312 312 332 332 315 315 524 524 312 312 313 313 480 480 315 315 312 312 525 525 313 313 253 253 480 480 526 526 480 480 252 252 254 254 526 526 252 252 259 259 261 261 527 527 223 223 259 259 527 527 527 527 528 528 223 223 282 282 222 222 528 528 222 222 223 223 528 528 282 282 528 528 527 527 529 529 531 531 530 530 532 532 534 534 533 533 535 535 534 534 532 532 529 529 533 533 536 536 537 537 533 533 534 534 536 536 531 531 529 529 537 537 536 536 533 533 264 264 530 530 531 531 276 276 539 539 538 538 278 278 276 276 538 538 540 540 542 542 541 541 540 540 541 541 543 543 543 543 541 541 544 544 543 543 544 544 545 545 546 546 540 540 543 543 546 546 543 543 547 547 547 547 543 543 545 545 547 547 545 545 548 548 549 549 546 546 547 547 549 549 547 547 550 550 550 550 547 547 548 548 550 550 548 548 551 551 552 552 549 549 550 550 552 552 550 550 553 553 553 553 550 550 551 551 553 553 551 551 554 554 555 555 552 552 553 553 555 555 553 553 556 556 556 556 553 553 554 554 556 556 554 554 557 557 558 558 555 555 556 556 558 558 556 556 559 559 559 559 556 556 557 557 559 559 557 557 560 560 541 541 542 542 224 224 225 225 541 541 224 224 541 541 225 225 544 544 559 559 512 512 558 558 303 303 512 512 559 559 560 560 303 303 559 559 561 561 224 224 542 542 540 540 561 561 542 542 562 562 561 561 540 540 546 546 562 562 540 540 563 563 562 562 546 546 549 549 563 563 546 546 564 564 563 563 549 549 552 552 564 564 549 549 565 565 564 564 552 552 555 555 565 565 552 552 566 566 565 565 555 555 558 558 566 566 555 555 567 567 566 566 558 558 512 512 567 567 558 558 286 286 544 544 225 225 288 288 544 544 286 286 545 545 544 544 288 288 292 292 545 545 288 288 548 548 545 545 292 292 295 295 548 548 292 292 551 551 548 548 295 295 293 293 551 551 295 295 554 554 551 551 293 293 297 297 554 554 293 293 557 557 554 554 297 297 299 299 557 557 297 297 560 560 557 557 299 299 303 303 560 560 299 299 115 115 110 110 111 111 112 112 568 568 109 109 568 568 570 570 569 569 569 569 109 109 568 568 571 571 569 569 570 570 572 572 571 571 570 570 573 573 572 572 570 570 573 573 570 570 574 574 575 575 577 577 576 576 577 577 575 575 578 578 579 579 578 578 575 575 578 578 579 579 580 580 579 579 581 581 580 580 582 582 577 577 583 583 578 578 583 583 577 577 578 578 580 580 583 583 583 583 584 584 582 582 584 584 583 583 585 585 586 586 584 584 585 585 585 585 587 587 586 586 587 587 585 585 588 588 586 586 587 587 589 589 581 581 590 590 580 580 590 590 583 583 580 580 591 591 587 587 588 588 591 591 592 592 587 587 577 577 582 582 593 593 593 593 594 594 577 577 577 577 594 594 576 576 595 595 596 596 576 576 581 581 579 579 596 596 579 579 575 575 596 596 576 576 596 596 575 575 589 589 587 587 592 592 207 207 597 597 209 209 598 598 597 597 207 207 599 599 600 600 281 281 601 601 600 600 599 599 602 602 275 275 600 600 603 603 602 602 600 600 279 279 281 281 600 600 275 275 279 279 600 600 604 604 600 600 601 601 603 603 600 600 604 604 205 205 606 606 605 605 607 607 609 609 608 608 608 608 610 610 607 607 611 611 612 612 610 610 608 608 613 613 610 610 611 611 610 610 613 613 612 612 614 614 601 601 615 615 601 601 614 614 611 611 616 616 612 612 614 614 612 612 616 616 613 613 617 617 611 611 616 616 611 611 617 617 614 614 618 618 615 615 618 618 614 614 619 619 616 616 620 620 614 614 619 619 614 614 620 620 620 620 616 616 621 621 617 617 621 621 616 616 618 618 619 619 620 620 621 621 622 622 620 620 618 618 624 624 623 623 620 620 625 625 618 618 624 624 618 618 625 625 622 622 625 625 620 620 613 613 608 608 626 626 626 626 627 627 613 613 613 613 627 627 617 617 628 628 622 622 629 629 629 629 622 622 621 621 630 630 623 623 628 628 618 618 623 623 615 615 615 615 623 623 630 630 612 612 631 631 610 610 612 612 601 601 631 631 609 609 607 607 278 278 623 623 624 624 628 628 622 622 628 628 625 625 625 625 628 628 624 624 632 632 606 606 205 205 206 206 632 632 205 205 633 633 634 634 591 591 592 592 591 591 634 634 635 635 634 634 636 636 636 636 634 634 633 633 635 635 637 637 206 206 632 632 206 206 637 637 636 636 637 637 635 635 638 638 309 309 307 307 639 639 638 638 307 307 223 223 640 640 260 260 641 641 643 643 642 642 644 644 646 646 645 645 647 647 645 645 646 646 648 648 649 649 644 644 646 646 644 644 649 649 650 650 651 651 648 648 649 649 648 648 651 651 646 646 652 652 647 647 653 653 647 647 652 652 649 649 654 654 646 646 652 652 646 646 654 654 651 651 655 655 649 649 654 654 649 649 655 655 652 652 656 656 653 653 657 657 653 653 656 656 654 654 658 658 652 652 656 656 652 652 658 658 655 655 659 659 654 654 658 658 654 654 659 659 656 656 660 660 657 657 658 658 661 661 656 656 660 660 656 656 661 661 659 659 662 662 658 658 661 661 658 658 662 662 661 661 663 663 660 660 664 664 660 660 663 663 662 662 665 665 661 661 663 663 661 661 665 665 665 665 662 662 666 666 663 663 667 667 664 664 643 643 664 664 667 667 665 665 668 668 663 663 667 667 663 663 668 668 666 666 669 669 665 665 668 668 665 665 669 669 669 669 666 666 670 670 640 640 224 224 671 671 641 641 672 672 643 643 672 672 673 673 664 664 673 673 674 674 660 660 643 643 672 672 664 664 660 660 664 664 673 673 675 675 657 657 674 674 676 676 657 657 675 675 660 660 674 674 657 657 671 671 260 260 640 640 223 223 224 224 640 640 670 670 671 671 176 176 177 177 671 671 224 224 670 670 176 176 669 669 177 177 176 176 671 671 642 642 643 643 175 175 643 643 667 667 175 175 175 175 669 669 176 176 669 669 175 175 668 668 667 667 668 668 175 175 677 677 678 678 657 657 175 175 680 680 679 679 679 679 681 681 175 175 677 677 682 682 680 680 679 679 680 680 682 682 642 642 175 175 683 683 681 681 683 683 175 175 678 678 684 684 647 647 657 657 676 676 677 677 653 653 657 657 678 678 682 682 677 677 676 676 606 606 632 632 685 685 653 653 678 678 647 647 645 645 647 647 684 684 111 111 109 109 686 686 632 632 637 637 650 650 684 684 685 685 650 650 650 650 648 648 684 684 632 632 650 650 685 685 645 645 684 684 644 644 648 648 644 644 684 684 637 637 636 636 650 650 651 651 650 650 633 633 651 651 633 633 655 655 636 636 633 633 650 650 655 655 591 591 659 659 591 591 655 655 633 633 662 662 659 659 585 585 588 588 659 659 591 591 588 588 585 585 659 659 585 585 583 583 662 662 583 583 590 590 662 662 662 662 590 590 666 666 581 581 666 666 590 590 581 581 596 596 666 666 596 596 687 687 666 666 666 666 687 687 670 670 688 688 689 689 670 670 688 688 670 670 687 687 689 689 690 690 670 670 670 670 690 690 671 671 260 260 671 671 691 691 692 692 671 671 690 690 692 692 691 691 671 671 114 114 111 111 686 686 109 109 569 569 686 686 569 569 571 571 686 686 686 686 571 571 685 685 606 606 685 685 693 693 572 572 685 685 571 571 572 572 693 693 685 685 307 307 310 310 639 639 310 310 256 256 694 694 694 694 639 639 310 310 257 257 694 694 256 256 695 695 603 603 696 696 697 697 699 699 698 698 698 698 700 700 697 697 701 701 697 697 700 700 700 700 702 702 701 701 702 702 700 700 703 703 703 703 704 704 702 702 704 704 703 703 705 705 706 706 705 705 703 703 603 603 695 695 706 706 705 705 706 706 695 695 707 707 704 704 708 708 705 705 708 708 704 704 708 708 705 705 709 709 695 695 696 696 705 705 709 709 705 705 696 696 708 708 710 710 707 707 710 710 708 708 711 711 709 709 711 711 708 708 696 696 712 712 709 709 711 711 709 709 712 712 317 317 269 269 699 699 248 248 712 712 696 696 249 249 330 330 707 707 269 269 713 713 699 699 713 713 714 714 698 698 698 698 699 699 713 713 698 698 714 714 700 700 715 715 603 603 703 703 703 703 700 700 715 715 715 715 700 700 714 714 703 703 603 603 706 706 248 248 249 249 712 712 328 328 325 325 704 704 704 704 707 707 328 328 328 328 707 707 330 330 704 704 325 325 702 702 702 702 326 326 701 701 326 326 702 702 325 325 697 697 701 701 321 321 323 323 701 701 326 326 321 321 317 317 697 697 323 323 321 321 701 701 699 699 697 697 317 317 707 707 710 710 249 249 712 712 249 249 711 711 711 711 249 249 710 710 635 635 206 206 716 716 204 204 716 716 206 206 717 717 719 719 718 718 719 719 721 721 720 720 720 720 718 718 719 719 720 720 721 721 722 722 723 723 722 722 257 257 724 724 722 722 721 721 255 255 723 723 257 257 724 724 257 257 722 722 725 725 727 727 726 726 278 278 538 538 725 725 534 534 726 726 727 727 727 727 725 725 538 538 689 689 728 728 690 690 688 688 728 728 689 689 729 729 728 728 688 688 687 687 729 729 688 688 730 730 729 729 687 687 596 596 730 730 687 687 529 529 530 530 728 728 533 533 529 529 728 728 729 729 533 533 728 728 532 532 533 533 729 729 730 730 532 532 729 729 532 532 730 730 535 535 530 530 690 690 728 728 535 535 730 730 596 596 276 276 527 527 539 539 282 282 527 527 276 276 595 595 535 535 596 596 531 531 731 731 264 264 537 537 732 732 536 536 537 537 534 534 732 732 531 531 536 536 731 731 731 731 536 536 733 733 733 733 536 536 732 732 534 534 727 727 732 732 727 727 538 538 732 732 538 538 539 539 732 732 733 733 732 732 734 734 733 733 734 734 731 731 539 539 734 734 732 732 261 261 262 262 731 731 261 261 731 731 734 734 262 262 264 264 731 731 726 726 534 534 535 535 595 595 726 726 535 535 735 735 736 736 224 224 737 737 738 738 183 183 739 739 741 741 740 740 742 742 740 740 741 741 738 738 737 737 739 739 741 741 739 739 737 737 741 741 743 743 742 742 744 744 742 742 743 743 737 737 745 745 741 741 743 743 741 741 745 745 743 743 746 746 744 744 747 747 744 744 746 746 745 745 748 748 743 743 746 746 743 743 748 748 746 746 749 749 747 747 750 750 747 747 749 749 748 748 751 751 746 746 749 749 746 746 751 751 749 749 752 752 750 750 753 753 750 750 752 752 751 751 754 754 749 749 752 752 749 749 754 754 752 752 736 736 753 753 735 735 753 753 736 736 754 754 755 755 752 752 736 736 752 752 755 755 735 735 561 561 753 753 737 737 183 183 745 745 756 756 183 183 738 738 745 745 182 182 748 748 182 182 745 745 183 183 748 748 181 181 751 751 181 181 748 748 182 182 755 755 754 754 757 757 754 754 751 751 758 758 758 758 751 751 181 181 759 759 755 755 757 757 758 758 757 757 754 754 759 759 177 177 755 755 747 747 750 750 563 563 750 750 753 753 562 562 562 562 753 753 561 561 747 747 563 563 744 744 562 562 563 563 750 750 744 744 564 564 742 742 564 564 744 744 563 563 740 740 742 742 566 566 565 565 742 742 564 564 566 566 567 567 740 740 565 565 566 566 742 742 567 567 512 512 740 740 512 512 511 511 740 740 756 756 738 738 511 511 740 740 511 511 739 739 738 738 739 739 511 511 177 177 224 224 755 755 561 561 735 735 224 224 755 755 224 224 736 736 760 760 599 599 281 281 285 285 284 284 610 610 631 631 601 601 760 760 281 281 285 285 760 760 278 278 607 607 284 284 610 610 631 631 285 285 607 607 610 610 284 284 760 760 285 285 631 631 601 601 599 599 760 760 209 209 761 761 115 115 597 597 110 110 761 761 110 110 115 115 761 761 597 597 761 761 209 209 762 762 112 112 597 597 110 110 597 597 112 112 570 570 568 568 763 763 762 762 763 763 568 568 574 574 570 570 763 763 112 112 762 762 568 568 762 762 597 597 598 598 764 764 718 718 503 503 482 482 503 503 718 718 506 506 764 764 503 503 638 638 639 639 765 765 766 766 765 765 639 639 205 205 605 605 767 767 203 203 205 205 767 767 207 207 202 202 598 598 202 202 203 203 768 768 768 768 598 598 202 202 767 767 768 768 203 203 764 764 769 769 717 717 770 770 772 772 771 771 772 772 765 765 769 769 764 764 771 771 769 769 769 769 771 771 772 772 765 765 773 773 769 769 773 773 717 717 769 769 774 774 714 714 271 271 271 271 275 275 774 774 715 715 714 714 774 774 714 714 713 713 273 273 715 715 774 774 602 602 603 603 715 715 602 602 275 275 602 602 774 774 269 269 274 274 713 713 273 273 271 271 714 714 274 274 273 273 713 713 717 717 773 773 775 775 776 776 724 724 777 777 639 639 694 694 776 776 724 724 721 721 777 777 721 721 719 719 777 777 775 775 777 777 719 719 777 777 775 775 766 766 694 694 257 257 776 776 724 724 776 776 257 257 719 719 717 717 775 775 639 639 776 776 766 766 765 765 766 766 775 775 777 777 766 766 776 776 765 765 775 775 773 773 778 778 780 780 779 779 217 217 113 113 781 781 782 782 784 784 783 783 785 785 783 783 784 784 786 786 787 787 782 782 784 784 782 782 787 787 788 788 789 789 786 786 787 787 786 786 789 789 790 790 791 791 788 788 789 789 788 788 791 791 792 792 793 793 790 790 791 791 790 790 793 793 781 781 794 794 792 792 793 793 792 792 794 794 784 784 780 780 785 785 778 778 785 785 780 780 787 787 795 795 784 784 780 780 784 784 795 795 789 789 796 796 787 787 795 795 787 787 796 796 791 791 797 797 789 789 796 796 789 789 797 797 793 793 798 798 791 791 797 797 791 791 798 798 794 794 799 799 793 793 798 798 793 793 799 799 779 779 254 254 778 778 113 113 114 114 781 781 114 114 800 800 799 799 781 781 114 114 794 794 799 799 794 794 114 114 801 801 798 798 800 800 799 799 800 800 798 798 798 798 801 801 797 797 254 254 201 201 778 778 201 201 199 199 783 783 778 778 201 201 785 785 783 783 785 785 201 201 782 782 783 783 200 200 786 786 782 782 221 221 199 199 200 200 783 783 786 786 221 221 788 788 200 200 221 221 782 782 788 788 220 220 790 790 220 220 788 788 221 221 790 790 219 219 792 792 219 219 790 790 220 220 217 217 781 781 218 218 218 218 792 792 219 219 792 792 218 218 781 781 796 796 797 797 802 802 803 803 797 797 801 801 795 795 796 796 804 804 803 803 802 802 797 797 780 780 795 795 805 805 802 802 804 804 796 796 805 805 779 779 780 780 804 804 805 805 795 795 247 247 806 806 211 211 208 208 247 247 211 211 204 204 211 211 806 806 716 716 204 204 806 806 245 245 248 248 807 807 246 246 248 248 245 245 247 247 807 807 630 630 245 245 807 807 247 247 609 609 726 726 576 576 608 608 609 609 594 594 726 726 609 609 725 725 626 626 608 608 593 593 576 576 594 594 609 609 626 626 593 593 627 627 594 594 593 593 608 608 627 627 582 582 617 617 582 582 627 627 593 593 617 617 584 584 621 621 584 584 617 617 582 582 621 621 586 586 629 629 586 586 621 621 584 584 592 592 628 628 589 589 589 589 629 629 586 586 629 629 589 589 628 628 595 595 576 576 726 726 278 278 725 725 609 609 572 572 573 573 808 808 693 693 572 572 808 808 693 693 808 808 605 605 606 606 693 693 605 605 508 508 303 303 301 301 512 512 303 303 508 508 499 499 301 301 306 306 508 508 301 301 499 499 809 809 501 501 499 499 770 770 501 501 809 809 306 306 809 809 499 499 770 770 771 771 501 501 771 771 764 764 509 509 509 509 501 501 771 771 506 506 509 509 764 764 809 809 810 810 770 770 810 810 638 638 772 772 772 772 770 770 810 810 765 765 772 772 638 638 592 592 634 634 628 628 716 716 628 628 634 634 635 635 716 716 634 634 779 779 805 805 811 811 811 811 813 813 812 812 814 814 812 812 813 813 813 813 811 811 815 815 813 813 816 816 814 814 815 815 817 817 813 813 816 816 813 813 817 817 818 818 816 816 819 819 817 817 819 819 816 816 819 819 820 820 818 818 820 820 819 819 821 821 821 821 822 822 820 820 823 823 820 820 822 822 822 822 824 824 823 823 825 825 823 823 824 824 823 823 825 825 826 826 811 811 805 805 815 815 817 817 815 815 802 802 804 804 815 815 805 805 819 819 817 817 803 803 804 804 802 802 815 815 819 819 803 803 821 821 802 802 803 803 817 817 821 821 801 801 822 822 801 801 821 821 803 803 801 801 800 800 822 822 824 824 822 822 800 800 800 800 114 114 824 824 820 820 823 823 827 827 828 828 826 826 825 825 818 818 820 820 829 829 826 826 827 827 823 823 816 816 818 818 830 830 827 827 829 829 820 820 814 814 816 816 831 831 829 829 830 830 818 818 812 812 814 814 832 832 830 830 831 831 816 816 832 832 526 526 812 812 831 831 832 832 814 814 526 526 254 254 812 812 779 779 811 811 254 254 812 812 254 254 811 811 114 114 686 686 824 824 828 828 825 825 686 686 824 824 686 686 825 825 628 628 833 833 630 630 806 806 247 247 833 833 716 716 806 806 833 833 247 247 630 630 833 833 716 716 833 833 628 628 304 304 834 834 306 306 309 309 834 834 304 304 810 810 809 809 834 834 638 638 810 810 834 834 809 809 306 306 834 834 638 638 834 834 309 309 248 248 696 696 604 604 604 604 601 601 807 807 807 807 248 248 604 604 630 630 807 807 615 615 601 601 615 615 807 807 603 603 604 604 696 696 764 764 717 717 718 718 718 718 835 835 482 482 255 255 521 521 836 836 481 481 482 482 835 835 837 837 481 481 835 835 502 502 481 481 837 837 836 836 502 502 837 837 504 504 502 502 836 836 521 521 504 504 836 836 720 720 835 835 718 718 837 837 835 835 720 720 722 722 837 837 720 720 836 836 837 837 722 722 723 723 836 836 722 722 255 255 836 836 723 723 255 255 258 258 521 521 57 57 253 253 60 60 213 213 250 250 246 246 212 212 213 213 246 246 530 530 264 264 265 265 349 349 521 521 258 258 268 268 349 349 258 258 734 734 539 539 261 261 527 527 261 261 539 539 331 331 838 838 346 346 352 352 351 351 838 838 522 522 346 346 838 838 351 351 522 522 838 838 352 352 838 838 331 331 250 250 352 352 249 249 331 331 249 249 352 352 316 316 196 196 198 198 60 60 253 253 313 313 1 1 839 839 0 0 311 311 840 840 839 839 195 195 3 3 839 839 1 1 311 311 839 839 840 840 198 198 839 839 195 195 839 839 198 198 3 3 0 0 839 839 316 316 841 841 314 314 198 198 840 840 841 841 842 842 313 313 841 841 316 316 198 198 841 841 311 311 842 842 840 840 841 841 840 840 842 842 313 313 314 314 841 841 59 59 5 5 55 55 1 1 5 5 59 59 842 842 59 59 58 58 311 311 59 59 842 842 313 313 58 58 60 60 842 842 58 58 313 313 598 598 843 843 762 762 844 844 843 843 767 767 844 844 574 574 843 843 598 598 768 768 843 843 767 767 843 843 768 768 574 574 763 763 843 843 763 763 762 762 843 843 573 573 844 844 808 808 605 605 808 808 767 767 767 767 808 808 844 844 574 574 844 844 573 573 352 352 250 250 216 216 213 213 216 216 250 250 263 263 691 691 265 265 259 259 260 260 263 263 692 692 265 265 691 691 691 691 263 263 260 260 265 265 692 692 690 690 530 530 265 265 690 690</p>
				</triangles>
			</mesh>
		</geometry>
	</library_geometries>
	<library_visual_scenes>
		<visual_scene id="VisualSceneNode" name="base1d_med">
			<node id="J4.dae" name="J4.dae">
				<instance_geometry url="#base2_M1KShape0">
					<bind_material>
						<technique_common>
							<instance_material symbol="blinn20.material" target="#blinn20.material"/>
						</technique_common>
					</bind_material>
				</instance_geometry>
				<instance_geometry url="#base2_M1KShape1">
					<bind_material>
						<technique_common>
							<instance_material symbol="blinn21.material" target="#blinn21.material"/>
						</technique_common>
					</bind_material>
				</instance_geometry>
			</node>
		</visual_scene>
	</library_visual_scenes>
	<scene>
		<instance_visual_scene url="#VisualSceneNode"/>
	</scene>
</COLLADA>
