<?xml version="1.0" encoding="UTF-8"?>
<COLLADA xmlns="http://www.collada.org/2008/03/COLLADASchema" version="1.5.0">
	<asset>
		<contributor>
			<author>DENSO WAVE</author>
			<comments/>
		</contributor>
		<unit/>
		<up_axis>Y_UP</up_axis>
	</asset>
	<library_materials>
		<material id="blinn20.material" name="blinn20">
			<instance_effect url="#blinn20.effect"/>
		</material>
	</library_materials>
	<library_effects>
		<effect id="blinn20.effect">
			<profile_COMMON>
				<technique sid="common">
					<phong>
						<emission>
							<color>0.04 0.04 0.04 1</color>
						</emission>
						<diffuse>
							<color>0.4 0.4 0.4 1</color>
						</diffuse>
						<specular>
							<color>0.2 0.2 0.2 1</color>
						</specular>
					</phong>
				</technique>
			</profile_COMMON>
		</effect>
	</library_effects>
	<library_geometries>
		<geometry id="base2_M1KShape0" name="base2_M1KShape0">
			<mesh>
				<source id="base2_M1KShape0.positions">
					<float_array id="base2_M1KShape0.positions-array" count="1944" digits="2490374">-0.0124948 -0.0295775 0.067 -0.0126505 -0.029946 0.0665998 -0.022981 -0.022981 0.0666 2.79397e-09 -0.0325 0.0666 0.0124947 -0.0295775 0.067 0.0126505 -0.029946 0.0665998 0.022981 -0.022981 0.0666 0.0295775 -0.0124948 0.067 0.029946 -0.0126505 0.0665998 -0.0226981 -0.0226981 0.067 -0.029946 -0.0126505 0.0666 -0.0295774 -0.0124948 0.067 6.51926e-09 -0.0321 0.067 0.0226981 -0.0226981 0.067 -0.0321 0 0.067 -0.0325 0 0.0666 0.0325 0 0.0666 0.0321 0 0.067 -0.0185477 0.0185539 0.0724908 -0.0102073 0.0241747 0.0724975 -0.024171 0.0102162 0.0724999 0.024171 -0.0102162 0.0724999 -0.0262344 4.947e-06 0.0724996 0.0262344 -4.947e-06 0.0724996 -0.0241747 -0.0102071 0.0724995 -0.018554 -0.0185472 0.0724995 -0.0102161 -0.024171 0.0724993 -4.94067e-06 -0.0262345 0.0724988 0.0102072 -0.0241747 0.0724975 0.0185477 -0.0185539 0.0724908 0.0241746 0.0102072 0.0724995 0.0185541 0.0185472 0.0724995 0.0102162 0.024171 0.0724993 4.88851e-06 0.0262345 0.0724988 0.0241756 -0.0102128 0.0674001 0.024171 -0.0102162 0.0724999 0.0262344 -4.947e-06 0.0724996 0.0262375 0 0.0674001 0.0185527 -0.0185527 0.0674001 0.0185477 -0.0185539 0.0724908 0.0102128 -0.0241756 0.0674001 0.0102072 -0.0241747 0.0724975 0 -0.0262375 0.0674001 -4.94067e-06 -0.0262345 0.0724988 -0.0102128 -0.0241756 0.0674001 -0.0102161 -0.024171 0.0724993 -0.0185527 -0.0185527 0.0674001 -0.018554 -0.0185472 0.0724995 -0.0241756 -0.0102128 0.0674001 -0.0241747 -0.0102071 0.0724995 -0.0262375 0 0.0674001 -0.0262344 4.947e-06 0.0724996 -0.0245442 0.0103685 0.067 -0.0241756 0.0102128 0.0674001 -0.0266375 0 0.067 -0.0188356 0.0188356 0.067 -0.0185527 0.0185527 0.0674001 -0.0103685 0.0245442 0.067 -0.0102128 0.0241756 0.0674001 0 0.0266375 0.067 0 0.0262375 0.0674001 0.0103685 0.0245442 0.067 0.0102128 0.0241756 0.0674001 0.0188356 0.0188356 0.067 0.0185527 0.0185527 0.0674001 0.0245442 0.0103685 0.067 0.0241756 0.0102128 0.0674001 0.0266375 0 0.067 -0.024171 0.0102162 0.0724999 -0.0185477 0.0185539 0.0724908 -0.0102073 0.0241747 0.0724975 4.88851e-06 0.0262345 0.0724988 0.0102162 0.024171 0.0724993 0.0185541 0.0185472 0.0724995 0.0241746 0.0102072 0.0724995 0.0245442 -0.0103685 0.067 0.0188356 -0.0188356 0.067 0.0103685 -0.0245442 0.067 0 -0.0266375 0.067 -0.0103685 -0.0245442 0.067 -0.0188356 -0.0188356 0.067 -0.0245442 -0.0103685 0.067 -2.79397e-09 -0.0325 0.0584 5.7742e-08 -0.0321 0.058 -0.0124948 -0.0295775 0.058 0.0126505 -0.029946 0.0584002 0.0124948 -0.0295774 0.058 0.0226981 -0.0226981 0.058 -0.0126505 -0.029946 0.0584 -0.0226981 -0.0226981 0.058 0.029946 -0.0126505 0.0584002 0.0295774 -0.0124948 0.058 -0.029946 -0.0126505 0.0584 -0.0295774 -0.0124948 0.058 -0.0325 0 0.0584 -0.022981 -0.022981 0.0584 0.022981 -0.022981 0.0584 -0.0321 0 0.058 0.0325 0 0.0584 0.0321 0 0.058 0.0307272 -0.0226604 0.05601 0.0307272 -0.0221606 0.0565001 0.0332194 -0.0212978 0.05601 0.0327986 -0.021028 0.0565001 0.0365562 0.0148581 0.05601 0.0365929 0.0148731 0.0545 0.0387014 0.00778042 0.0546731 0.0378977 -0.0110664 0.0552601 0.0332527 -0.0213192 0.0545 0.0395 0 0.0545 0.0394803 2.45e-07 0.0552601 0.037906 -0.0111078 0.0545 0.0390448 0.00571548 0.05601 0.0392934 -0.00362645 0.05601 0.0373392 -0.0127651 0.05601 0.0307272 -0.0227 0.0545 0.0385409 0.0089237 0.02649 0.0396029 0 0.02486 0.0387983 0.00865906 0.0296899 0.0392341 0.0084768 0.0509399 0.0393694 0.00850837 0.0472901 0.0408104 0 0.0508801 0.039072 0.00861646 0.0337678 0.0360721 0.0161686 0.0431 0.0393037 0.00859457 0.0416967 0.0410958 -2.407e-06 0.0470456 0.0408668 -4.167e-06 0.037376 0.0401368 -1.094e-05 0.0296057 0.0360655 0.0161211 0.0298901 0.0360646 0.016112 0.0545 0.0221241 -0.023806 0.0426073 0.0220787 -0.0238345 0.0545588 0.0241713 -0.023 0.0545 0.0241713 -0.023 0.0429399 0.0236291 -0.0232196 0.0417501 0.022346 -0.0246608 0.0403159 0.0156667 -0.0284978 0.0456871 0.017441 -0.0281256 0.0428901 0.0223962 -0.0275493 0.0391384 0.0315943 -0.023 0.0544997 0.0316149 -0.023 0.0378001 0.0390038 0.00987506 0.0242 0.0400997 3.234e-06 0.0225401 0.0365033 0.0176568 0.02748 0.0323995 -0.0226143 0.0544171 0.0324154 -0.0225817 0.03417 0 0.0235471 -0.0494499 0 -0.00200661 -0.05 0.0165232 0.0107724 -0.0470699 0.0365116 -0.0177632 0.02746 0.0410227 -0.0275551 0.0190699 0.0327836 -0.0247104 0.0313901 0.0417086 -0.00200661 0.01939 0.041607 0.0107724 0.01934 0.045678 -0.00200661 0.00538003 0.0455668 0.0107724 0.00536001 0.041514 -0.0147843 0.0193001 0.0454649 -0.0147843 0.00534999 0.0453262 -0.00200661 -0.00937998 0.0452153 0.0107724 -0.00935996 0.0451137 -0.0147843 -0.00934994 0.0408538 -0.00200661 -0.02552 0.040751 0.0107724 -0.0254699 0.0406569 -0.0147843 -0.0254301 0.0311804 -0.00200661 -0.0388499 0.0311061 0.0107724 -0.0387599 0.031038 -0.0147843 -0.03869 0.0165604 -0.00200661 -0.04717 0.0164892 -0.0147843 -0.04697 0.0283223 0.0235471 -0.04046 0.033462 -0.0277361 0.0303603 0.0312402 -0.0261871 0.03282 0.0449274 -0.0275551 0.00529003 0.044578 -0.0275551 -0.00926995 0.04016 -0.0275551 -0.0252199 0.0306774 -0.0275551 -0.03828 0.0162825 -0.0275773 -0.0464702 0 -0.0275551 -0.04924 0.0290523 -0.0267857 0.03473 0.0382274 0.0235471 -0.02946 0.0147262 0.0235471 -0.0472 0.0436057 0.0235471 -0.0154101 0.0454432 0.0235471 -0.000449896 0.0432151 0.0235471 0.01406 0.0364123 0.0235471 0.02719 0.033909 0.0202334 0.03047 0.0260401 0.02354 0.0371628 0.0397887 -0.00528714 0.02303 0.0387305 -0.0111105 0.02459 0.033635 -0.0281171 0.0299553 0.041946 -0.0277743 0.0169321 0.0412587 -0.0284988 0.0168159 0.0331913 -0.0284994 0.0296183 0.0445327 -0.028499 0.00193667 0.0451888 -0.0277644 0.00190461 0.0438258 -0.0278229 -0.0134419 0.0431703 -0.0284804 -0.012852 0.0388081 -0.0277393 -0.0279499 0.0385919 -0.0282334 -0.027807 0.0381164 -0.0284818 -0.0275799 0.0287494 -0.0282193 -0.0395368 0.0289042 -0.0277393 -0.0397199 0.0284213 -0.0284818 -0.0390999 0.0151873 -0.0281615 -0.0466069 0.0150604 -0.0284974 -0.0460171 0.0422672 -0.0285 -0.0158 0.037146 -0.0285001 -0.0289204 0.0173029 -0.0285006 0.0418516 0 -0.0285 -0.0482399 0.0348262 0.0165253 0.05601 0.0348398 0.0165625 0.0545 0.0285851 0.0160639 0.05601 0.0287824 0.0176568 0.056227 0.0290209 0.0163088 0.0565001 0.0303577 0.0181517 0.05601 0.0301868 0.017682 0.0565001 -0.0207666 0.025 0.0575 -0.0262357 0.0191785 0.0545717 -0.0207666 0.025 0.0547 -0.0262133 0.0192132 0.0575 -0.030045 0.0123878 0.0546973 -0.0300488 0.0123823 0.0575 -0.0321374 0.00483661 0.0546978 -0.0321392 0.00483234 0.0575 -0.0323386 -0.00308646 0.0545388 -0.0323507 -0.00311175 0.0575 -0.030623 -0.0108344 0.0545119 -0.0306289 -0.0108699 0.0575 -0.0271443 -0.0178389 0.0545106 -0.0271376 -0.017883 0.0575 -0.0220804 -0.0238228 0.0545096 -0.0220704 -0.0238575 0.0575 -0.0156521 -0.0284676 0.0545934 -0.0156205 -0.0285 0.0575 0.024129 0.0217725 0.0413101 0.024129 0.0217724 0.0545 0.0216421 0.024246 0.04285 0.0216421 0.024246 0.0545 0.0287147 0.0177502 0.0545 0.0303713 0.0181889 0.0545 0.0285506 0.0160445 0.0545 -0.0210484 0.0245 0.0545 -0.0204521 0.025 0.0545 -0.0262357 0.0191785 0.0545717 -0.0300499 0.0118444 0.0545 -0.030045 0.0123878 0.0546973 -0.0321374 0.00483661 0.0546978 -0.0320088 0.00433062 0.0545 -0.0323386 -0.00308646 0.0545388 -0.0207666 0.025 0.0547 -0.0300499 0.0118444 0.0545 -0.0296616 0.0132831 0.0545 -0.0262357 0.0191785 0.0545717 -0.0210484 0.0245 0.0545 -0.0216421 0.024246 0.0545 -0.0317749 0.00682778 0.0545 -0.0320088 0.00433062 0.0545 -0.0325 0 0.0545 -0.0323386 -0.00308646 0.0545388 -0.031996 -0.0122862 0.0545 -0.0220804 -0.0238228 0.0545096 -0.0304873 -0.0244898 0.0545 -0.0271443 -0.0178389 0.0545106 -0.030623 -0.0108344 0.0545119 -0.029468 -0.0262879 0.0545 -0.0275276 -0.027 0.0545 -0.0189803 -0.027 0.0545 -0.0173763 -0.0274648 0.0545 -0.0156521 -0.0284676 0.0545934 -0.0291945 -0.0264943 0.03622 -0.0304873 -0.0244898 0.0358001 -0.029468 -0.0262879 0.0545 -0.0275276 -0.027 0.03712 -0.0304873 -0.0244898 0.0545 -0.0275276 -0.027 0.0545 0.0245087 0.0236904 0.03836 0.0239264 0.0244999 0.0378211 0.021169 0.0245002 0.0411088 0.0357955 0.0153637 0.0565012 -0.0225957 0.0245001 0.0392073 -0.0209762 0.0245 0.0435799 -0.0224853 0.024053 0.0410501 -0.0216421 0.024246 0.0435799 -0.0261229 0.0235471 0.03719 -0.019975 0.025 0.058 -0.0207666 0.025 0.0575 -0.0204521 0.025 0.0545 0.019975 0.025 0.058 0.0204521 0.025 0.0545 0.0207666 0.025 0.0575 0.0207666 0.025 0.0547 -0.0207666 0.025 0.0547 -0.0210484 0.0245 0.0545 0.0210483 0.0245001 0.0545 -0.0204521 0.025 0.0545 0.0204521 0.025 0.0545 -0.0326926 -0.0192751 0.03183 -0.0338233 0 0.03118 -0.031676 -0.0157012 0.03509 -0.0319019 -0.0250527 0.0322601 -0.0325 -1.4e-08 0.03457 -0.0273491 -0.0277681 0.0360868 -0.030437 -0.0275551 0.03347 -0.0295635 -0.0267947 0.0348266 0.0273323 0.0196143 0.0402801 0.0273323 0.0196143 0.0545 -0.0269668 -0.0285 0.0352086 -0.0297645 -0.0285 0.03273 -0.0168292 -0.0284999 0.0411763 -0.0189803 -0.027 0.04214 0.0355137 0.0166365 0.0331501 0.0355058 0.0166394 0.0544999 0.0263609 0.0208703 0.03821 0.0341816 0.0179565 0.03148 0.019975 0.025 0.058 0.0207666 0.025 0.0575 0.0255647 0.0192479 0.058 0.0145516 -0.0285 0.058 0.0211819 -0.0239867 0.058 0.0156205 -0.0285 0.0575 0.026413 -0.0180652 0.058 0.0220704 -0.0238575 0.0575 0.0300348 -0.011043 0.058 0.0271376 -0.017883 0.0575 0.0306289 -0.0108699 0.0575 0.0318368 -0.00322747 0.058 0.0323507 -0.00311175 0.0575 0.0316399 0.00479076 0.058 0.0321392 0.00483234 0.0575 0.0295011 0.012397 0.058 0.0300488 0.0123823 0.0575 0.0262133 0.0192132 0.0575 0.0320975 0.00671026 0.05601 0.0326474 -0.00305117 0.05601 0.033145 -0.00309769 0.0565001 0.0302982 -0.0125417 0.05601 0.0251464 -0.0220871 0.0564944 0.0251135 -0.0210825 0.05601 0.0307601 -0.0127329 0.0565001 0.0325868 0.00681257 0.0565001 0.0351895 0.0180701 0.02952 0.0247581 -0.0216601 0.0545006 0.025849 -0.0227 0.0545 0.025849 -0.0226604 0.05601 0.0387957 -0.00358049 0.0565001 0.0385502 0.0056431 0.0565001 0.0368663 -0.0126034 0.0565001 0.0355058 0.0166394 0.0544999 0.0360646 0.016112 0.0545 0.0348398 0.0165625 0.0545 0.0320587 0.00670217 0.0545 0.0326079 -0.00304746 0.0545 0.0321326 0.00478812 0.0545626 0.0262231 0.0191777 0.0545474 0.0285506 0.0160445 0.0545 0.0300499 0.0118444 0.0545 0.0302616 -0.0125265 0.0545 0.0306041 -0.0108996 0.0545721 0.0323356 -0.00314981 0.0545828 0.0247581 -0.0216601 0.0545006 0.0268525 -0.0179813 0.0545028 0.0220787 -0.0238345 0.0545588 0.0241713 -0.023 0.0545 0.025849 -0.0227 0.0545 0.0315943 -0.023 0.0544997 0.0323995 -0.0226143 0.0544171 0.0332527 -0.0213192 0.0545 0.0307272 -0.0227 0.0545 0.0273323 0.0196143 0.0545 0.0287147 0.0177502 0.0545 0.024129 0.0217724 0.0545 0.0303713 0.0181889 0.0545 0.0216421 0.024246 0.0545 0.0210483 0.0245001 0.0545 0.0365929 0.0148731 0.0545 0.0156615 -0.0284991 0.0545884 0.0410958 -2.407e-06 0.0470456 0.0399996 -0.00615842 0.05092 0.0353783 -0.0179151 0.0341848 0.0377987 -0.0125339 0.0322227 0.0357794 -0.0168772 0.0304201 0.0382448 -0.0121347 0.05111 0.038368 -0.0121908 0.0476501 0.0358442 -0.0174276 0.0510798 0.0356329 -0.0177745 0.0401044 0.0382028 -0.0123628 0.0387563 0.0402047 -0.00620394 0.04722 0.0400365 -0.00634151 0.0382439 0.0394962 -0.00648006 0.0308137 0.0378237 -0.0116457 0.02764 0.0391993 -0.00553697 0.0255001 0.0298495 -0.0240968 0.0356899 0.0312193 -0.0240884 0.03397 0.0298495 -0.0240968 0.0356899 -0.0156092 -0.0284991 0.0430698 -0.0384488 -0.0284999 0.0221666 -0.0436286 -0.0284993 0.00902605 -0.0443291 -0.0284995 -0.00484788 -0.0407425 -0.0285001 -0.0209098 -0.0264133 -0.0285002 -0.0405757 -0.0136962 -0.0284996 -0.0464364 0.0156205 -0.0285 0.0575 0.0145516 -0.0285 0.058 -0.0145516 -0.0285 0.058 -0.0156521 -0.0284676 0.0545934 -0.0156205 -0.0285 0.0575 -0.0388761 -0.0277094 0.0231224 -0.0389528 -0.0282957 0.0222967 -0.013876 -0.0281863 -0.0469898 -0.0146126 -0.0277063 -0.0470221 -0.0265335 -0.0282155 -0.0411428 -0.0267094 -0.0277393 -0.0413101 -0.0365324 -0.0282053 -0.0312524 -0.0367355 -0.0277393 -0.0313699 -0.0360871 -0.0284818 -0.0309306 -0.0422189 -0.0282569 -0.0185776 -0.0425142 -0.0277393 -0.0185601 -0.0450375 -0.0278379 -0.00467682 -0.0442546 -0.0277827 0.00932693 -0.0438954 -0.0275551 0.01095 -0.0452076 -0.0275551 -0.00205004 -0.0434064 -0.0275551 -0.01536 -0.0380494 -0.0275551 -0.0293599 -0.0281975 -0.0275551 -0.04029 -0.0370882 -0.00200661 0.0272 -0.0324308 0.00730098 0.0327309 -0.0285213 -0.0147843 -0.04073 -0.0148257 -0.0147843 -0.04752 -0.0148896 -0.00200661 -0.04773 -0.0148562 0.0107724 -0.0476199 -0.0286492 -0.00200661 -0.0409 -0.0285825 0.0107724 -0.04081 -0.0387017 -0.00200661 -0.02974 -0.0386051 0.0107724 -0.02968 -0.0385166 -0.0147843 -0.0296299 -0.044141 -0.00200661 -0.01554 -0.0440321 0.0107724 -0.01551 -0.0439324 -0.0147843 -0.0154899 -0.045993 -0.00200661 -0.000589967 -0.045881 0.0107724 -0.000589967 -0.0457784 -0.0147843 -0.000589967 -0.0438211 -0.00200661 0.01398 -0.0437143 0.0107724 0.01394 -0.0436166 -0.0147843 0.0139101 -0.0369979 0.0107724 0.02714 -0.0369151 -0.0147843 0.0270799 -0.0427539 0.0235471 0.0154101 -0.0361274 0.0235471 0.02757 -0.0297302 0.0176546 0.0346899 -0.0454096 0.0235471 0.00174999 -0.0321361 0.0115532 0.03273 -0.0442659 0.0235471 -0.01237 -0.0394367 0.0235471 -0.0272499 -0.0296406 0.0235471 -0.03943 -0.0156123 0.0235993 -0.0469121 -0.0262408 0.020373 0.0380601 -0.0268549 0.0183048 0.03995 -0.0299388 0.0143883 0.0351 -0.0319986 0.00568662 0.03512 -0.0302893 0.0117817 0.03689 -0.0262133 0.0192132 0.0575 -0.0207666 0.025 0.0575 -0.0255646 0.019248 0.058 -0.029501 0.0123971 0.058 -0.019975 0.025 0.058 -0.0316399 0.00479091 0.058 -0.0300488 0.0123823 0.0575 -0.0318368 -0.00322727 0.058 -0.0323507 -0.00311175 0.0575 -0.0321392 0.00483234 0.0575 -0.0300348 -0.0110429 0.058 -0.0306289 -0.0108699 0.0575 -0.0264131 -0.0180652 0.058 -0.0271376 -0.017883 0.0575 -0.0211819 -0.0239867 0.058 -0.0220704 -0.0238575 0.0575 -0.0156205 -0.0285 0.0575 -0.0145516 -0.0285 0.058 -0.0189803 -0.027 0.0545 -0.0173763 -0.0274648 0.0545 -0.0173763 -0.0274648 0.04259 0.0207666 0.025 0.0547 0.0204521 0.025 0.0545 0.0262231 0.0191777 0.0545474 0.0210483 0.0245001 0.0545 0.0300499 0.0118444 0.0545 0.0300476 0.012382 0.0546949 0.0321326 0.00478812 0.0545626 0.0271376 -0.017883 0.0547 0.0306041 -0.0108996 0.0545721 0.0268525 -0.0179813 0.0545028 0.0220787 -0.0238345 0.0545588 -0.0216421 0.024246 0.0545 -0.0210484 0.0245 0.0545 -0.0325 0 0.0545 -0.0317749 0.00682778 0.0545 -0.0262357 0.0191785 0.0545717 -0.0296616 0.0132831 0.0545 0.0156205 -0.0285 0.0575 0.0220787 -0.0238345 0.0545588 0.0156615 -0.0284991 0.0545884 0.0220704 -0.0238575 0.0575 0.0271376 -0.017883 0.0547 0.0271376 -0.017883 0.0575 0.0306041 -0.0108996 0.0545721 0.0306289 -0.0108699 0.0575 0.0323356 -0.00314981 0.0545828 0.0323507 -0.00311175 0.0575 0.0321326 0.00478812 0.0545626 0.0321392 0.00483234 0.0575 0.0300476 0.012382 0.0546949 0.0300488 0.0123823 0.0575 0.0262231 0.0191777 0.0545474 0.0262133 0.0192132 0.0575 0.0207666 0.025 0.0547 0.0207666 0.025 0.0575 -0.0145959 0.0242944 -0.0468694 -0.0365884 0.024105 0.0266374 -0.0367204 0.0237325 0.0267299 -0.0434139 0.0238175 0.0133529 -0.0361046 0.0244998 0.0263289 -0.0426903 0.0244997 0.0133094 -0.0454201 0.0237649 -0.00125623 -0.044762 0.0244997 -0.00119472 -0.0434665 0.0238142 -0.0159223 -0.0427583 0.0244956 -0.0157495 -0.0380817 0.0237552 -0.0296855 -0.037716 0.024481 -0.0289195 -0.0280093 0.0237325 -0.04065 -0.0278505 0.024236 -0.0404596 -0.028534 0.0245 -0.0390311 -0.0144543 0.0244997 -0.0464085 0 0.0245 -0.0484499 0.0423754 0.0245 0.0134101 0.0356965 0.0245 0.02648 0.0444403 0.0245 -0.00118995 0.0418426 0.0245 -0.0181299 0.0210483 0.0245001 0.0545 0.0364933 0.0245 -0.03035 0.0278671 0.0245 -0.0395501 0.015425 0.0245001 -0.0459303 0.0320587 0.00670217 0.0545 0.0326079 -0.00304746 0.0545 0.0302616 -0.0125265 0.0545 -0.031996 -0.0122862 0.0545 0.0128891 0.0242715 -0.0473919 0.0130072 0.0237325 -0.04767 0.0251617 0.0237633 -0.0425586 0.0247034 0.0244817 -0.04189 0.0347335 0.0243417 -0.0337118 0.0350736 0.0237462 -0.0339781 0.0344485 0.0244816 -0.0334699 0.0413222 0.0237325 -0.0227801 0.041061 0.0242463 -0.022719 0.0405859 0.0244816 -0.0225099 0.0451391 0.0237534 -0.00636065 0.0446828 0.0243475 -0.00639784 0.0443206 0.0244816 -0.00634992 0.0437451 0.0243464 0.0105774 0.0441711 0.0237484 0.0106773 0.0433827 0.0244816 0.0105001 0.0374198 0.0237325 0.02573 0.0372252 0.0242245 0.0255767 0.036773 0.0244816 0.02528 -0.029946 -0.0126505 0.0666 -0.029946 -0.0126505 0.0584 -0.0325 0 0.0584 -0.0325 0 0.0666 -0.022981 -0.022981 0.0666 -0.022981 -0.022981 0.0584 -0.0126505 -0.029946 0.0665998 -0.0126505 -0.029946 0.0584 2.79397e-09 -0.0325 0.0666 -2.79397e-09 -0.0325 0.0584 0.0126505 -0.029946 0.0665998 0.0126505 -0.029946 0.0584002 0.022981 -0.022981 0.0666 0.022981 -0.022981 0.0584 0.029946 -0.0126505 0.0665998 0.029946 -0.0126505 0.0584002 0.0325 0 0.0666 0.0325 0 0.0584 6.51926e-09 0.0321 0.058 -0.0124948 0.0295774 0.058 0.0124947 0.0295775 0.058 -0.0226981 -0.0226981 0.058 -0.0124948 -0.0295775 0.058 0.0124948 -0.0295774 0.058 0.0226981 0.0226981 0.058 5.7742e-08 -0.0321 0.058 0.029946 0.0126505 0.0665998 0.029946 0.0126505 0.0584 0.022981 0.022981 0.0666 0.022981 0.022981 0.0584 0.0126505 0.029946 0.0665998 0.0126505 0.029946 0.0584002 9.31323e-10 0.0325 0.0666 9.31323e-10 0.0325 0.0584 -0.0126505 0.029946 0.0665998 -0.0126505 0.029946 0.0584 -0.022981 0.022981 0.0666 -0.022981 0.022981 0.0584 -0.029946 0.0126505 0.0666 -0.029946 0.0126505 0.0584 9.31323e-10 0.0325 0.0584 6.51926e-09 0.0321 0.058 0.0124947 0.0295775 0.058 -0.0126505 0.029946 0.0584 0.0126505 0.029946 0.0584002 0.0226981 0.0226981 0.058 -0.0124948 0.0295774 0.058 -0.0226981 0.0226981 0.058 -0.029946 0.0126505 0.0584 -0.0295774 0.0124948 0.058 0.029946 0.0126505 0.0584 0.0295774 0.0124948 0.058 0.022981 0.022981 0.0584 -0.022981 0.022981 0.0584 -0.029946 0.0126505 0.0666 -0.022981 0.022981 0.0666 -0.0295774 0.0124948 0.067 -0.0126505 0.029946 0.0665998 -0.0124947 0.0295774 0.067 6.51926e-08 0.0321001 0.067 9.31323e-10 0.0325 0.0666 0.0126505 0.029946 0.0665998 0.0124948 0.0295775 0.067 0.022981 0.022981 0.0666 0.0226982 0.0226981 0.067 0.029946 0.0126505 0.0665998 0.0295775 0.0124948 0.067 -0.0226981 0.0226981 0.067 0.0295775 0.0124948 0.067 0.0226982 0.0226981 0.067 0.0321 0 0.067 0.0295775 -0.0124948 0.067 0.0226981 -0.0226981 0.067 0.0124947 -0.0295775 0.067 6.51926e-09 -0.0321 0.067 -0.0124948 -0.0295775 0.067 -0.0226981 -0.0226981 0.067 -0.0295774 -0.0124948 0.067 -0.0321 0 0.067 -0.0295774 0.0124948 0.067 -0.0226981 0.0226981 0.067 -0.0124947 0.0295774 0.067 6.51926e-08 0.0321001 0.067 0.0124948 0.0295775 0.067</float_array>
					<technique_common>
						<accessor count="648" source="#base2_M1KShape0.positions-array" stride="3">
							<param name="X" type="float"/>
							<param name="Y" type="float"/>
							<param name="Z" type="float"/>
						</accessor>
					</technique_common>
				</source>
				<source id="base2_M1KShape0.normals">
					<float_array id="base2_M1KShape0.normals-array" count="1944" digits="2490374">-0.275348 -0.651137 0.707251 -0.275603 -0.651107 0.707179 -0.500077 -0.499973 0.707071 -8e-05 -0.707145 0.707069 0.275391 -0.65112 0.70725 0.275261 -0.65125 0.707181 0.499997 -0.500052 0.707072 0.65118 -0.275195 0.707271 0.651164 -0.275419 0.707198 -0.500117 -0.499858 0.707125 -0.651154 -0.275602 0.707137 -0.651164 -0.275419 0.707198 -0.00019 -0.707087 0.707126 0.499858 -0.500117 0.707125 -0.707107 0 0.707107 -0.707107 0 0.707107 0.707107 -0 0.707107 0.707107 -0 0.707107 0 0 1 0 0 1 0 0 1 0 0 1 0 0 1 0 0 1 0 0 1 0 0 1 0 0 1 0 0 1 0 0 1 0 0 1 0 0 1 0 0 1 0 0 1 0 0 1 0.921004 -0.389552 -0 0.920931 -0.389725 -0 1 -0.000189 0 1 0 0 0.707107 -0.707107 -0 0.706989 -0.707224 -0 0.389552 -0.921004 -0 0.389383 -0.921076 -0 -0 -1 -0 -0.000189 -1 -0 -0.389552 -0.921004 -0 -0.389721 -0.920933 -0 -0.707107 -0.707107 0 -0.707236 -0.706977 0 -0.921004 -0.389552 0 -0.921077 -0.38938 0 -1 0 -0 -1 0.000189 0 0 0 1 -0.921004 0.389552 0 0 0 1 0 0 1 -0.707107 0.707107 0 0 0 1 -0.389552 0.921004 0 0 0 1 0 1 -0 0 0 1 0.389552 0.921004 -0 0 0 1 0.707107 0.707107 -0 0 0 1 0.921004 0.389552 -0 0 0 1 -0.920931 0.389725 0 -0.706988 0.707226 0 -0.389387 0.921074 0 0.000187 1 -0 0.389723 0.920932 -0 0.707237 0.706976 -0 0.921076 0.389383 -0 0 0 1 0 0 1 0 0 1 0 0 1 0 0 1 0 0 1 0 0 1 7e-05 -0.707141 -0.707073 1e-06 -0.707087 -0.707126 -0.275172 -0.651244 -0.707222 0.275676 -0.651098 -0.707159 0.275406 -0.65115 -0.707217 0.499779 -0.500145 -0.707161 -0.27526 -0.65125 -0.707181 -0.500195 -0.499729 -0.707161 0.651261 -0.275241 -0.707179 0.651262 -0.275018 -0.707264 -0.651164 -0.275419 -0.707198 -0.651214 -0.275181 -0.707245 -0.707107 0 -0.707107 -0.5 -0.5 -0.707107 0.5 -0.5 -0.707107 -0.707107 0 -0.707107 0.707107 -0 -0.707107 0.707107 -0 -0.707107 0 -0.999657 0.026177 0 -0.000108 1 0.841554 -0.539538 0.026177 0 0 1 0.926085 0.376404 0.026194 0.926085 0.376404 0.026194 0.980669 0.19467 0.019782 0.959601 -0.280174 0.025874 0.841553 -0.539541 0.026152 0.99966 0 0.026092 0.99966 -2.5e-05 0.026092 0.959324 -0.281116 0.025923 0.989127 0.144757 0.025944 0.995427 -0.091866 0.026169 0.945931 -0.323343 0.025765 0 -0.999658 0.026162 0.968033 0.246224 -0.04781 0.99594 0.005199 -0.089872 0.963057 0.262047 -0.062074 0.947768 0.278992 0.154595 0.953351 0.301837 -0.004102 0.948992 0.076973 0.305761 0.957684 0.283289 -0.050879 0.877114 0.480282 -0.000412 0.952942 0.302981 -0.010176 0.996864 0.078473 -0.01021 0.995811 0.076073 -0.050721 0.991995 0.032498 -0.122021 0.907749 0.419503 -0.003015 0.913016 0.407921 0.001687 0.680172 -0.733052 -8.4e-05 0.682755 -0.730648 0 -0 -1 -0 1e-06 -1 0 0.16097 -0.945113 0.284343 0.517377 -0.554612 0.651711 0.086314 -0.996267 0.001125 0.602033 -0.626006 0.495654 0.480061 0.002086 0.877233 -0.001276 -0.999999 3.6e-05 -0 -1 -0 0.84892 0.020084 0.528139 0.871765 -5e-06 0.489924 0.798442 0.035301 0.601036 0.795657 -0.605598 0.013497 0.813401 -0.581697 -0.002913 0 0.047092 -0.998891 -0 -0.004014 -0.999992 0.331108 0.021543 -0.943347 0.798714 -0.03553 0.600661 0.905395 -0.055107 0.420979 0.72141 -0.049423 0.690743 0.906777 -0.004014 0.421591 0.906575 0.021545 0.421495 0.993175 -0.004011 0.116566 0.992954 0.021525 0.116533 0.906387 -0.029571 0.421411 0.99275 -0.029543 0.116509 0.989844 -0.004013 -0.142099 0.989623 0.021546 -0.142067 0.98942 -0.02957 -0.142038 0.917681 -0.004013 -0.397297 0.917478 0.02154 -0.397203 0.9173 -0.029562 -0.397098 0.662685 -0.004015 -0.748887 0.662536 0.021546 -0.74872 0.662396 -0.029573 -0.74857 0.331179 -0.004013 -0.943559 0.331035 -0.029567 -0.943155 0.595528 0.047093 -0.801953 0.732768 -0.140978 0.665715 0.688512 -0.052375 0.723332 0.991682 -0.055056 0.116344 0.988348 -0.055107 -0.141882 0.91633 -0.055092 -0.396616 0.661631 -0.05511 -0.747802 0.330007 -0.057367 -0.942234 0 -0.055107 -0.99848 0.640681 -0.053571 0.765936 0.859311 0.047091 -0.509281 0.297452 0.047083 -0.953575 0.970782 0.04709 -0.235297 0.998874 0.047093 -0.00579 0.949816 0.047067 0.309247 0.800344 0.047088 0.597689 0.743171 0.040463 0.667877 0.569239 0.030691 0.821599 0.86545 -0.010577 0.500884 0.844021 -0.022225 0.535849 0.59409 -0.606143 0.528817 0.893771 -0.269951 0.358189 0.012281 -0.999914 0.004632 0.006818 -0.999955 0.00667 0.012029 -0.999927 0.000742 0.963973 -0.262641 0.042148 0.930192 -0.310915 -0.195128 0.232201 -0.971949 -0.037394 0.855179 -0.245221 -0.456657 0.614615 -0.719176 -0.324091 0.168898 -0.981495 -0.090229 0.433744 -0.700419 -0.566815 0.596694 -0.245169 -0.7641 0.117869 -0.981496 -0.150908 0.240077 -0.645732 -0.72484 0.023962 -0.996961 -0.074123 -0.000502 -1 0.000127 -0.001106 -0.999995 0.002824 -0.00483 -0.999983 -0.003308 -0 -1 1e-06 0.341903 0.939371 0.026168 0.341903 0.939371 0.026168 -0.871458 -0.489771 0.026177 -0.710214 0.648792 0.273248 0 0 1 0.341918 0.939365 0.026177 0 0 1 -0.638972 0.76923 -0 -0.80731 0.590128 -0 -0.638972 0.76923 -0 -0.806574 0.591134 -0 -0.924502 0.381178 -0 -0.924578 0.380994 -0 -0.988858 0.14886 -0 -0.988879 0.148724 -0 -0.995477 -0.095004 0 -0.995406 -0.095746 0 -0.942725 -0.333571 0 -0.942399 -0.334491 0 -0.835691 -0.5492 0 -0.835003 -0.550245 0 -0.679811 -0.733387 0 -0.679107 -0.734039 0 -0.481824 -0.876268 0 -0.480631 -0.876923 0 0.742431 0.669922 -0 0.742433 0.66992 -0 0.665911 0.746031 -0 0.665911 0.746031 -0 -0.762068 0.646969 0.026159 0.34195 0.939354 0.026168 -0.871454 -0.48978 0.02615 -0.454247 0.528767 -0.716983 -0.4487 0.548475 -0.70558 -0.561777 0.412336 -0.717207 -0.553177 0.218039 -0.804024 -0.632047 0.270308 -0.726258 -0.704214 0.119921 -0.699787 -0.513599 0.069509 -0.85521 -0.633059 -0.059253 -0.771832 -0.450742 0.542628 -0.708792 0 0 1 0 0 1 0 0 1 0 0 1 0 0 1 0 0 1 0 0 1 0 0 1 0 0 1 0 0 1 0 0 1 0 0 1 0 0 1 0 0 1 0 0 1 0 0 1 0 0 1 0 0 1 0 0 1 -0.556008 -0.831177 0 -0.98662 -0.163039 0 -0.646813 -0.762649 0 0.000234 -1 0 -0.98662 -0.163039 0 0.000234 -1 0 0.64753 0.19042 0.737865 0.000297 1 0.000274 -0.002258 0.999991 -0.003558 0.003332 -0.006073 0.999976 0.000786 1 -0.000538 0.000124 0.999999 -0.001118 -0.744643 0.554412 0.371664 -0.66591 0.746032 1e-06 -0.574206 0.047088 0.817356 0 1 -0 0 1 -0 0 1 -0 0 1 -0 0 1 -0 0 1 -0 0 1 -0 0 1 -0 0 0 -1 0 0 -1 0 0 -1 0 0 -1 -0.715936 -0.038557 0.697101 -0.735304 4.7e-05 0.677737 -0.994491 -0.104822 -0.000382 -0.702936 -0.046929 0.709703 -1 -0 -4e-06 -0.583802 -0.250471 0.772295 -0.671572 -0.052537 0.739075 -0.724356 -0.527747 0.443613 0.342028 0.93969 -0 0.342028 0.93969 -0 0.001328 -0.999999 0.000533 -2e-06 -1 -1.1e-05 -0.001652 -0.999986 0.004988 -0 -1 -0 0.342025 0.939691 0 0.340947 0.940082 2.6e-05 0.590109 0.62377 0.512525 0.678602 0.608391 0.411533 0.441571 0.552354 0.70705 0.452199 0.544724 0.706252 0.570612 0.429501 0.69995 0.321745 -0.629743 0.707039 0.472822 -0.535288 0.699933 0.340274 -0.621308 0.705826 0.589249 -0.403112 0.700204 0.485191 -0.524467 0.69966 0.66612 -0.24503 0.704446 0.595975 -0.392699 0.700429 0.66871 -0.237257 0.704653 0.703512 -0.071319 0.707096 0.703869 -0.067721 0.707094 0.701739 0.106364 0.704449 0.701847 0.105476 0.704475 0.658149 0.276655 0.700216 0.660019 0.271942 0.700301 0.576163 0.422305 0.699782 -0.978527 -0.204448 0.026177 -0.99532 0.093021 0.026176 2.7e-05 -3e-06 1 -0.923698 0.382227 0.026178 -0.075741 -0.050926 0.995826 -0.765635 0.642742 0.026177 0 0 1 4.9e-05 1e-05 1 0.82837 0.33778 0.446887 -0.826227 0.562668 0.027451 6e-06 -0.999658 0.026162 -1.3e-05 -0.999658 0.026162 0 0 1 0 0 1 0 0 1 0 0 1 0 0 1 0 0 1 0 0 1 0 0 1 0 0 1 0 0 1 0 0 1 0 0 1 0 0 1 0 0 1 0 0 1 0 0 1 0 0 1 0 0 1 0 0 1 0 0 1 0 0 1 0 0 1 0 0 1 0 0 1 0 0 1 0 0 1 0 0 1 0 0 1 0 0 1 0 0 1 0 0 1 0.083137 -0.996538 0 0.999342 0.034754 -0.010413 0.952516 -0.196759 0.232378 0.872693 -0.487139 -0.03321 0.930898 -0.359939 -0.062237 0.893507 -0.447719 -0.034529 0.925528 -0.343888 0.158556 0.930667 -0.365846 -0.004035 0.872833 -0.4851 0.053302 0.869317 -0.494141 -0.010644 0.930244 -0.366204 -0.023245 0.97566 -0.219186 -0.006686 0.975422 -0.218121 -0.031217 0.973612 -0.20852 -0.092732 0.946279 -0.318655 -0.054903 0.9847 -0.158225 -0.073012 0.441344 -0.7258 0.527665 0.671224 -0.580917 0.460427 0.601076 -0.707574 0.371547 -0.029838 -0.999555 0.000667 -0.002147 -0.999997 0.001168 -0.007917 -0.999968 0.001235 -0.006628 -0.999978 -0.000753 -7.5e-05 -1 -5e-05 0.001223 -0.999998 -0.001347 -0.002188 -0.999963 -0.00834 1e-06 -1 0 1e-06 -1 0 1e-06 -1 0 -0.297824 -0.954621 0 1e-06 -1 0 -0.85755 -0.066396 0.510097 -0.544994 -0.779587 0.308586 -0.210818 -0.671072 -0.710787 -0.295759 -0.075072 -0.952308 -0.402097 -0.693277 -0.598068 -0.538576 -0.245237 -0.806098 -0.596966 -0.692282 -0.405434 -0.800708 -0.245185 -0.546582 -0.162349 -0.980552 -0.110272 -0.648644 -0.735461 -0.195849 -0.929182 -0.245136 -0.276638 -0.942195 -0.328699 -0.065003 -0.938724 -0.278833 0.202606 -0.968628 -0.055431 0.242254 -0.997985 -0.055197 -0.031278 -0.970418 -0.055572 -0.234947 -0.859528 -0.055609 -0.508054 -0.595221 -0.055689 -0.80163 -0.806331 -0.004017 0.591451 -0.778331 0.044081 0.626305 -0.595841 -0.029571 -0.802558 -0.297688 -0.029573 -0.954205 -0.297818 -0.004015 -0.954614 -0.297752 0.021546 -0.9544 -0.596092 -0.004013 -0.802906 -0.595958 0.021547 -0.802726 -0.860865 -0.004012 -0.508818 -0.860658 0.021531 -0.508728 -0.860471 -0.029553 -0.508641 -0.97188 -0.004013 -0.235441 -0.971663 0.021547 -0.235388 -0.971463 -0.02957 -0.235341 -0.999962 -0.004013 -0.007698 -0.999738 0.021546 -0.007707 -0.999533 -0.029568 -0.007709 -0.95271 -0.004015 0.303854 -0.952498 0.021543 0.303783 -0.952301 -0.02957 0.303725 -0.806148 0.021538 0.591322 -0.805984 -0.029569 0.591198 -0.939741 0.047086 0.338628 -0.794082 0.04708 0.605985 -0.65029 0.035308 0.758865 -0.998183 0.047076 0.037626 -0.70046 0.023104 0.713318 -0.980884 0.047092 -0.18881 -0.892253 0.047064 -0.449076 -0.630727 0.047093 -0.774574 -0.315507 0.051295 -0.947536 -0.804393 0.353642 0.477378 -0.825746 0.56404 -0.001415 -0.850238 0.203306 0.485554 -0.984653 0.17452 -0.001035 -0.931518 0.363694 0.000131 -0.576163 0.422305 0.699782 -0.452199 0.544724 0.706252 -0.570611 0.429502 0.69995 -0.658148 0.276657 0.700216 -0.441571 0.552354 0.70705 -0.701739 0.106368 0.704449 -0.660019 0.271942 0.700301 -0.703512 -0.071315 0.707096 -0.703869 -0.067721 0.707094 -0.701847 0.105476 0.704475 -0.666121 -0.245027 0.704446 -0.66871 -0.237257 0.704653 -0.58925 -0.403111 0.700204 -0.595975 -0.392699 0.700429 -0.472822 -0.535287 0.699933 -0.485191 -0.524467 0.69966 -0.340274 -0.621308 0.705826 -0.321745 -0.629743 0.707039 1e-06 -1 0 -0.534667 -0.845063 0 -0.534667 -0.845063 0 0.450742 0.542628 -0.708792 0.4487 0.548475 -0.70558 0.560254 0.404796 -0.722673 0.454111 0.528671 -0.71714 0.498761 0.196591 -0.84415 0.676778 0.277326 -0.681954 0.647325 0.087351 -0.757192 0.439914 -0.289892 -0.849964 0.642321 -0.237373 -0.728751 0.617533 -0.411401 -0.670375 0.443492 -0.485275 -0.75354 -0.665911 0.746031 0 -0.000544 1 1e-06 -1 -3e-06 0 -0.977679 0.210104 -0 -0.807317 0.590118 6e-06 -0.912664 0.408711 0 0.480631 -0.876923 -0 0.67958 -0.733602 0 0.481539 -0.876425 -0 0.679107 -0.734039 0 0.835003 -0.550245 0 0.835003 -0.550245 0 0.942025 -0.335543 0 0.942399 -0.334491 0 0.99529 -0.096947 0 0.995406 -0.095746 0 0.989073 0.147426 -0 0.988879 0.148724 -0 0.924576 0.380998 -0 0.924578 0.380994 -0 0.8072 0.590278 -0 0.806574 0.591134 -0 0.638972 0.76923 0 0.638972 0.76923 0 -0.18966 0.777941 -0.59903 -0.650878 0.593659 0.47321 -0.785136 0.238364 0.571616 -0.909617 0.3088 0.27792 -0.002894 0.999993 0.002289 -0.005251 0.999985 0.0015 -0.964651 0.263134 -0.014466 -0.008886 0.999961 6.2e-05 -0.924498 0.302836 -0.231502 -0.045229 0.998935 -0.009173 -0.830044 0.253177 -0.496919 -0.125523 0.990197 -0.061272 -0.570041 0.238528 -0.78623 -0.402979 0.709086 -0.578623 0.000722 0.999999 0.001325 -9.9e-05 1 -0.000865 0 1 -0 0 1 -0 0 1 -0 0 1 -0 0 1 -0 0.003179 0.999995 2.6e-05 0 1 -0 0 1 -0 -1.8e-05 1 0.000177 -0.978528 -0.204448 0.026154 -0.99532 0.093024 0.026178 -0.923696 0.382229 0.026206 -0.99664 -0.081906 0 0.168751 0.755295 -0.633287 0.255779 0.240623 -0.936311 0.499773 0.258377 -0.826722 0.108979 0.976009 -0.188495 0.427486 0.83517 -0.346045 0.75126 0.247165 -0.611979 0.149389 0.981332 -0.121124 0.91057 0.238496 -0.337613 0.645318 0.727357 -0.233489 0.180435 0.98131 -0.066882 0.964297 0.248873 -0.090515 0.536929 0.841964 -0.052946 0.191459 0.981318 -0.018911 0.527393 0.840149 0.126519 0.941364 0.250614 0.225889 0.186662 0.981382 0.045246 0.798086 0.248816 0.548771 0.58511 0.700888 0.407924 0.157943 0.981456 0.108616 -0.921004 -0.389552 0 -0.921004 -0.389552 0 -1 0 -0 -1 0 -0 -0.707107 -0.707107 0 -0.707107 -0.707107 0 -0.389552 -0.921004 -0 -0.389552 -0.921004 -0 1e-06 -1 0 1e-06 -1 0 0.389552 -0.921004 -0 0.389552 -0.921004 -0 0.707107 -0.707107 -0 0.707107 -0.707107 -0 0.921004 -0.389552 -0 0.921004 -0.389552 -0 1 0 0 1 0 0 0 0 -1 0 0 -1 0 0 -1 0 0 -1 0 0 -1 0 0 -1 0 0 -1 0 0 -1 0.921004 0.389552 -0 0.921004 0.389552 -0 0.707107 0.707107 -0 0.707107 0.707107 -0 0.389552 0.921004 -0 0.389552 0.921004 -0 0 1 -0 0 1 -0 -0.389552 0.921004 0 -0.389552 0.921004 0 -0.707107 0.707107 0 -0.707107 0.707107 0 -0.921004 0.389552 0 -0.921004 0.389552 0 9.3e-05 0.707142 -0.707071 -0.00019 0.707087 -0.707126 0.275119 0.651248 -0.707238 -0.275579 0.651132 -0.707166 0.275433 0.651179 -0.70718 0.499919 0.500009 -0.707158 -0.275419 0.651164 -0.707198 -0.499911 0.500034 -0.707146 -0.651089 0.275718 -0.707151 -0.651164 0.275419 -0.707198 0.651164 0.275419 -0.707198 0.651208 0.275188 -0.707248 0.5 0.5 -0.707107 -0.5 0.5 -0.707107 -0.651065 0.275788 0.707146 -0.500129 0.499957 0.707045 -0.651066 0.2756 0.707218 -0.275566 0.651151 0.707154 -0.275233 0.651222 0.707218 0.000103 0.70707 0.707144 0.000189 0.707126 0.707088 0.275604 0.651107 0.707179 0.275657 0.651031 0.707228 0.500141 0.499884 0.707089 0.500076 0.499869 0.707145 0.651261 0.275241 0.707179 0.651308 0.274941 0.707252 -0.5 0.5 0.707107 0 0 1 0 0 1 0 0 1 0 0 1 0 0 1 0 0 1 0 0 1 0 0 1 0 0 1 0 0 1 0 0 1 0 0 1 0 0 1 0 0 1 0 0 1 0 0 1</float_array>
					<technique_common>
						<accessor count="648" source="#base2_M1KShape0.normals-array" stride="3">
							<param name="X" type="float"/>
							<param name="Y" type="float"/>
							<param name="Z" type="float"/>
						</accessor>
					</technique_common>
				</source>
				<vertices id="base2_M1KShape0.vertices">
					<input semantic="POSITION" source="#base2_M1KShape0.positions"/>
				</vertices>
				<triangles count="916" material="blinn20.material">
					<input offset="0" semantic="VERTEX" source="#base2_M1KShape0.vertices" set="0"/>
					<input offset="1" semantic="NORMAL" source="#base2_M1KShape0.normals" set="0"/>
					<p>0 0 2 2 1 1 0 0 1 1 3 3 4 4 3 3 5 5 4 4 5 5 6 6 7 7 6 6 8 8 9 9 10 10 2 2 11 11 10 10 9 9 9 9 2 2 0 0 12 12 0 0 3 3 12 12 3 3 4 4 13 13 4 4 6 6 13 13 6 6 7 7 14 14 15 15 10 10 11 11 14 14 10 10 7 7 8 8 16 16 17 17 7 7 16 16 18 18 20 20 19 19 20 20 22 22 21 21 21 21 23 23 20 20 22 22 24 24 21 21 24 24 25 25 21 21 25 25 26 26 21 21 26 26 27 27 21 21 27 27 28 28 21 21 29 29 21 21 28 28 23 23 30 30 20 20 30 30 31 31 20 20 31 31 32 32 20 20 32 32 33 33 20 20 33 33 19 19 20 20 34 34 36 36 35 35 37 37 36 36 34 34 38 38 35 35 39 39 34 34 35 35 38 38 40 40 39 39 41 41 38 38 39 39 40 40 42 42 41 41 43 43 40 40 41 41 42 42 44 44 43 43 45 45 42 42 43 43 44 44 46 46 45 45 47 47 44 44 45 45 46 46 48 48 47 47 49 49 46 46 47 47 48 48 50 50 49 49 51 51 48 48 49 49 50 50 52 52 50 50 53 53 54 54 50 50 52 52 55 55 53 53 56 56 52 52 53 53 55 55 57 57 56 56 58 58 55 55 56 56 57 57 59 59 58 58 60 60 57 57 58 58 59 59 61 61 60 60 62 62 59 59 60 60 61 61 63 63 62 62 64 64 61 61 62 62 63 63 65 65 64 64 66 66 63 63 64 64 65 65 67 67 66 66 37 37 65 65 66 66 67 67 53 53 51 51 68 68 50 50 51 51 53 53 56 56 68 68 69 69 53 53 68 68 56 56 58 58 69 69 70 70 56 56 69 69 58 58 60 60 70 70 71 71 58 58 70 70 60 60 62 62 71 71 72 72 60 60 71 71 62 62 64 64 72 72 73 73 62 62 72 72 64 64 66 66 73 73 74 74 64 64 73 73 66 66 37 37 74 74 36 36 66 66 74 74 37 37 75 75 37 37 34 34 67 67 37 37 75 75 76 76 34 34 38 38 75 75 34 34 76 76 77 77 38 38 40 40 76 76 38 38 77 77 78 78 40 40 42 42 77 77 40 40 78 78 79 79 42 42 44 44 78 78 42 42 79 79 80 80 44 44 46 46 79 79 44 44 80 80 81 81 46 46 48 48 80 80 46 46 81 81 54 54 48 48 50 50 81 81 48 48 54 54 82 82 84 84 83 83 85 85 83 83 86 86 82 82 83 83 85 85 85 85 86 86 87 87 88 88 89 89 84 84 88 88 84 84 82 82 90 90 87 87 91 91 92 92 94 94 93 93 89 89 92 92 93 93 95 95 92 92 89 89 88 88 95 95 89 89 96 96 85 85 87 87 90 90 96 96 87 87 94 94 97 97 93 93 98 98 91 91 99 99 91 91 98 98 90 90 100 100 102 102 101 101 103 103 101 101 102 102 104 104 106 106 105 105 102 102 108 108 107 107 109 109 106 106 110 110 107 107 109 109 110 110 111 111 109 109 107 107 108 108 111 111 107 107 112 112 106 106 104 104 110 110 106 106 112 112 113 113 110 110 112 112 107 107 110 110 113 113 114 114 107 107 113 113 102 102 107 107 114 114 108 108 100 100 115 115 102 102 100 100 108 108 116 116 118 118 117 117 119 119 121 121 120 120 118 118 123 123 122 122 119 119 106 106 121 121 120 120 125 125 124 124 125 125 120 120 121 121 124 124 126 126 122 122 126 126 124 124 125 125 127 127 122 122 126 126 109 109 121 121 106 106 118 118 122 122 127 127 116 116 128 128 118 118 123 123 129 129 124 124 128 128 123 123 118 118 124 124 122 122 123 123 129 129 105 105 119 119 124 124 129 129 120 120 119 119 120 120 129 129 106 106 119 119 105 105 127 127 117 117 118 118 130 130 132 132 131 131 133 133 132 132 130 130 133 133 130 130 134 134 134 134 130 130 135 135 136 136 137 137 130 130 137 137 138 138 135 135 135 135 130 130 137 137 133 133 139 139 132 132 140 140 139 139 133 133 141 141 116 116 142 142 117 117 142 142 116 116 128 128 116 116 143 143 143 143 116 116 141 141 139 139 140 140 144 144 145 145 144 144 140 140 146 146 148 148 147 147 149 149 151 151 150 150 152 152 154 154 153 153 155 155 153 153 154 154 156 156 157 157 152 152 154 154 152 152 157 157 154 154 158 158 155 155 159 159 155 155 158 158 157 157 160 160 154 154 158 158 154 154 160 160 158 158 161 161 159 159 162 162 159 159 161 161 160 160 163 163 158 158 161 161 158 158 163 163 161 161 164 164 162 162 165 165 162 162 164 164 163 163 166 166 161 161 164 164 161 161 166 166 164 164 167 167 165 165 148 148 165 165 167 167 166 166 168 168 164 164 167 167 164 164 168 168 165 165 148 148 169 169 151 151 171 171 170 170 157 157 156 156 172 172 156 156 149 149 150 150 170 170 150 150 151 151 157 157 172 172 160 160 150 150 172 172 156 156 160 160 173 173 163 163 173 173 160 160 172 172 163 163 174 174 166 166 174 174 163 163 173 173 166 166 175 175 168 168 175 175 166 166 174 174 176 176 177 177 168 168 176 176 168 168 175 175 177 177 147 147 168 168 167 167 168 168 147 147 171 171 178 178 170 170 170 170 178 178 138 138 167 167 147 147 148 148 162 162 165 165 179 179 180 180 169 169 148 148 159 159 162 162 181 181 169 169 179 179 165 165 155 155 159 159 182 182 179 179 181 181 162 162 153 153 155 155 183 183 181 181 182 182 159 159 141 141 153 153 143 143 182 182 183 183 155 155 184 184 186 186 185 185 152 152 153 153 142 142 153 153 183 183 143 143 184 184 143 143 183 183 142 142 187 187 152 152 141 141 142 142 153 153 156 156 152 152 188 188 149 149 156 156 188 188 187 187 188 188 152 152 143 143 184 184 185 185 180 180 148 148 146 146 189 189 190 190 170 170 190 190 189 189 191 191 192 192 191 191 189 189 191 191 193 193 190 190 194 194 190 190 193 193 193 193 195 195 194 194 195 195 193 193 196 196 197 197 195 195 198 198 196 196 198 198 195 195 198 198 196 196 199 199 198 198 200 200 197 197 201 201 197 197 200 200 199 199 202 202 198 198 200 200 198 198 202 202 200 200 203 203 201 201 176 176 201 201 203 203 203 203 200 200 204 204 202 202 204 204 200 200 196 196 205 205 199 199 205 205 196 196 193 193 199 199 206 206 202 202 206 206 199 199 205 205 206 206 204 204 202 202 201 201 175 175 197 197 175 175 201 201 176 176 197 197 174 174 195 195 174 174 197 197 175 175 195 195 173 173 194 194 173 173 195 195 174 174 194 194 172 172 190 190 172 172 194 194 173 173 190 190 150 150 170 170 150 150 190 190 172 172 138 138 207 207 170 170 170 170 207 207 189 189 189 189 207 207 192 192 208 208 177 177 204 204 176 176 203 203 177 177 203 203 204 204 177 177 209 209 105 105 210 210 104 104 105 105 209 209 211 211 213 213 212 212 214 214 212 212 215 215 216 216 218 218 217 217 219 219 216 216 217 217 219 219 217 217 220 220 221 221 219 219 220 220 221 221 220 220 222 222 223 223 221 221 222 222 223 223 222 222 224 224 225 225 223 223 224 224 225 225 224 224 226 226 227 227 225 225 226 226 227 227 226 226 228 228 229 229 227 227 228 228 229 229 228 228 230 230 231 231 229 229 230 230 231 231 230 230 232 232 233 233 231 231 232 232 234 234 236 236 235 235 237 237 235 235 236 236 214 214 239 239 238 238 212 212 214 214 238 238 212 212 238 238 240 240 211 211 212 212 240 240 241 241 243 243 242 242 244 244 245 245 243 243 246 246 245 245 244 244 247 247 246 246 244 244 248 248 246 246 247 247 249 249 242 242 243 243 250 250 252 252 251 251 253 253 254 254 252 252 251 251 255 255 250 250 255 255 257 257 256 256 256 256 250 250 255 255 257 257 259 259 258 258 258 258 256 256 257 257 260 260 262 262 261 261 263 263 258 258 259 259 261 261 264 264 260 260 262 262 263 263 261 261 259 259 261 261 263 263 264 264 265 265 260 260 265 265 266 266 260 260 266 266 267 267 260 260 260 260 267 267 268 268 269 269 271 271 270 270 269 269 272 272 271 271 273 273 270 270 271 271 274 274 271 271 272 272 275 275 236 236 234 234 276 276 277 277 275 275 236 236 275 275 277 277 104 104 209 209 278 278 279 279 281 281 280 280 282 282 280 280 281 281 281 281 279 279 283 283 284 284 286 286 285 285 287 287 289 289 288 288 287 287 288 288 284 284 290 290 288 288 289 289 291 291 285 285 286 286 286 286 284 284 288 288 292 292 294 294 293 293 295 295 293 293 294 294 296 296 298 298 297 297 299 299 270 270 296 296 300 300 297 297 298 298 298 298 296 296 270 270 301 301 303 303 302 302 299 299 302 302 303 303 301 301 272 272 303 303 272 272 269 269 303 303 269 269 270 270 303 303 299 299 303 303 270 270 304 304 234 234 305 305 235 235 305 305 234 234 186 186 276 276 275 275 302 302 306 306 301 301 307 307 306 306 302 302 308 308 309 309 301 301 272 272 301 301 309 309 308 308 301 301 306 306 310 310 304 304 311 311 304 304 305 305 311 311 185 185 186 186 312 312 313 313 185 185 312 312 313 313 312 312 304 304 310 310 313 313 304 304 314 314 316 316 315 315 317 317 319 319 318 318 318 318 321 321 320 320 321 321 318 318 319 319 320 320 323 323 322 322 323 323 320 320 321 321 324 324 326 326 325 325 324 324 322 322 323 323 326 326 328 328 327 327 322 322 324 324 325 325 327 327 325 325 326 326 329 329 327 327 330 330 316 316 329 329 331 331 328 328 330 330 327 327 331 331 315 315 316 316 330 330 331 331 329 329 211 211 332 332 213 213 333 333 335 335 334 334 336 336 338 338 337 337 333 333 334 334 332 332 337 337 338 338 335 335 334 334 335 335 338 338 339 339 213 213 332 332 339 339 332 332 334 334 313 313 340 340 185 185 143 143 340 340 128 128 143 143 185 185 340 340 313 313 310 310 340 340 128 128 340 340 310 310 336 336 337 337 341 341 336 336 341 341 342 342 343 343 336 336 342 342 278 278 215 215 339 339 344 344 345 345 334 334 345 345 278 278 339 339 344 344 334 334 346 346 339 339 334 334 345 345 338 338 346 346 334 334 101 101 103 103 338 338 101 101 338 338 336 336 346 346 338 338 103 103 213 213 339 339 215 215 212 212 213 213 215 215 343 343 101 101 336 336 100 100 101 101 343 343 115 115 100 100 342 342 343 343 342 342 100 100 347 347 349 349 348 348 350 350 352 352 351 351 353 353 355 355 354 354 356 356 351 351 357 357 358 358 351 351 352 352 359 359 356 356 360 360 358 358 357 357 351 351 360 360 361 361 359 359 357 357 360 360 356 356 362 362 364 364 363 363 359 359 361 361 362 362 365 365 366 366 364 364 359 359 362 362 363 363 367 367 363 363 364 364 367 367 364 364 366 366 368 368 370 370 369 369 352 352 350 350 355 355 354 354 355 355 350 350 369 369 371 371 368 368 372 372 373 373 370 370 370 370 353 353 369 369 354 354 369 369 353 353 353 353 370 370 373 373 368 368 371 371 347 347 374 374 348 348 349 349 349 349 347 347 371 371 375 375 136 136 130 130 131 131 375 375 130 130 207 207 137 137 136 136 137 137 207 207 138 138 121 121 377 377 376 376 378 378 380 380 379 379 381 381 383 383 382 382 384 384 385 385 383 383 382 382 383 383 385 385 378 378 379 379 384 384 385 385 384 384 379 379 382 382 386 386 381 381 377 377 381 381 386 386 385 385 387 387 382 382 386 386 382 382 387 387 379 379 388 388 385 385 387 387 385 385 388 388 381 381 377 377 111 111 379 379 389 389 388 388 389 389 379 379 380 380 390 390 117 117 388 388 390 390 388 388 389 389 117 117 127 127 388 388 387 387 388 388 126 126 381 381 111 111 383 383 109 109 111 111 377 377 108 108 144 144 383 383 108 108 383 383 111 111 144 144 145 145 384 384 380 380 378 378 145 145 383 383 144 144 384 384 384 384 145 145 378 378 127 127 126 126 388 388 387 387 125 125 386 386 125 125 387 387 126 126 386 386 376 376 377 377 109 109 377 377 121 121 133 133 134 134 140 140 178 178 391 391 135 135 391 391 140 140 134 134 138 138 178 178 135 135 134 134 135 135 391 391 151 151 149 149 145 145 390 390 389 389 187 187 117 117 390 390 142 142 149 149 188 188 380 380 142 142 390 390 187 187 188 188 187 187 389 389 380 380 145 145 149 149 389 389 380 380 188 188 140 140 392 392 145 145 171 171 151 151 392 392 178 178 171 171 392 392 151 151 145 145 392 392 393 393 392 392 140 140 178 178 392 392 393 393 207 207 136 136 308 308 136 136 375 375 394 394 394 394 308 308 136 136 308 308 306 306 206 206 206 206 205 205 308 308 205 205 193 193 308 308 193 193 191 191 308 308 191 191 192 192 308 308 192 192 207 207 308 308 306 306 307 307 206 206 307 307 395 395 206 206 395 395 396 396 206 206 396 396 397 397 206 206 397 397 398 398 206 206 398 398 399 399 206 206 399 399 400 400 206 206 400 400 208 208 206 206 204 204 206 206 208 208 401 401 402 402 375 375 403 403 405 405 404 404 403 403 404 404 394 394 402 402 403 403 375 375 394 394 375 375 403 403 406 406 407 407 302 302 408 408 410 410 409 409 411 411 409 409 410 410 400 400 399 399 408 408 410 410 408 408 399 399 410 410 412 412 411 411 413 413 411 411 412 412 399 399 414 414 410 410 412 412 410 410 414 414 412 412 415 415 413 413 416 416 413 413 415 415 414 414 415 415 412 412 415 415 414 414 398 398 415 415 417 417 416 416 417 417 415 415 397 397 398 398 397 397 415 415 418 418 417 417 396 396 397 397 396 396 417 417 406 406 418 418 407 407 396 396 407 407 418 418 407 407 396 396 395 395 418 418 406 406 419 419 399 399 398 398 414 414 417 417 418 418 420 420 416 416 417 417 421 421 419 419 420 420 418 418 413 413 416 416 422 422 420 420 421 421 417 417 411 411 413 413 423 423 421 421 422 422 416 416 422 422 423 423 413 413 423 423 409 409 411 411 177 177 208 208 409 409 409 409 208 208 408 408 400 400 408 408 208 208 307 307 302 302 395 395 395 395 302 302 407 407 297 297 425 425 424 424 426 426 427 427 423 423 428 428 430 430 429 429 431 431 429 429 430 430 427 427 426 426 428 428 430 430 428 428 426 426 430 430 432 432 431 431 433 433 431 431 432 432 426 426 434 434 430 430 432 432 430 430 434 434 432 432 435 435 433 433 436 436 433 433 435 435 434 434 437 437 432 432 435 435 432 432 437 437 435 435 438 438 436 436 439 439 436 436 438 438 437 437 440 440 435 435 438 438 435 435 440 440 438 438 441 441 439 439 442 442 439 439 441 441 440 440 443 443 438 438 441 441 438 438 443 443 441 441 424 424 442 442 444 444 442 442 424 424 443 443 445 445 441 441 424 424 441 441 445 445 446 446 444 444 447 447 434 434 426 426 422 422 409 409 423 423 427 427 437 437 434 434 421 421 423 423 422 422 426 426 440 440 437 437 420 420 422 422 421 421 434 434 443 443 440 440 419 419 421 421 420 420 437 437 445 445 443 443 406 406 420 420 419 419 440 440 445 445 406 406 299 299 419 419 406 406 443 443 299 299 296 296 445 445 302 302 299 299 406 406 296 296 297 297 445 445 424 424 445 445 297 297 444 444 424 424 425 425 283 283 447 447 448 448 439 439 442 442 449 449 442 442 444 444 446 446 448 448 447 447 450 450 450 450 447 447 444 444 436 436 439 439 451 451 446 446 449 449 442 442 433 433 436 436 452 452 449 449 451 451 439 439 431 431 433 433 453 453 451 451 452 452 436 436 429 429 431 431 454 454 452 452 453 453 433 433 454 454 146 146 429 429 453 453 454 454 431 431 428 428 429 429 147 147 428 428 147 147 427 427 146 146 147 147 429 429 409 409 427 427 177 177 177 177 427 427 147 147 450 450 444 444 425 425 455 455 457 457 456 456 457 457 455 455 448 448 456 456 282 282 455 455 448 448 450 450 457 457 283 283 448 448 455 455 457 457 450 450 425 425 282 282 281 281 455 455 283 283 455 455 281 281 297 297 300 300 425 425 300 300 458 458 425 425 457 457 425 425 459 459 459 459 456 456 457 457 458 458 459 459 425 425 460 460 462 462 461 461 462 462 460 460 463 463 464 464 461 461 462 462 463 463 466 466 465 465 466 466 463 463 460 460 467 467 465 465 468 468 469 469 465 465 466 466 470 470 467 467 471 471 469 469 468 468 465 465 472 472 470 470 473 473 468 468 471 471 467 467 474 474 472 472 475 475 471 471 473 473 470 470 475 475 476 476 474 474 473 473 475 475 472 472 477 477 474 474 476 476 209 209 214 214 215 215 278 278 209 209 215 215 214 214 209 209 239 239 210 210 239 239 209 209 272 272 309 309 274 274 478 478 274 274 309 309 479 479 478 478 480 480 309 309 480 480 478 478 234 234 312 312 275 275 186 186 275 275 312 312 304 304 312 312 234 234 481 481 483 483 482 482 484 484 482 482 483 483 485 485 483 483 486 486 487 487 485 485 486 486 488 488 490 490 489 489 491 491 490 490 488 488 308 308 394 394 480 480 480 480 394 394 479 479 404 404 479 479 394 394 492 492 493 493 282 282 280 280 282 282 493 493 494 494 495 495 458 458 492 492 282 282 496 496 496 496 456 456 497 497 456 456 496 496 282 282 459 459 458 458 495 495 459 459 497 497 456 456 300 300 494 494 458 458 497 497 459 459 495 495 480 480 309 309 308 308 498 498 500 500 499 499 501 501 498 498 499 499 501 501 499 499 502 502 503 503 501 501 502 502 503 503 502 502 504 504 505 505 503 503 504 504 505 505 504 504 506 506 507 507 505 505 506 506 507 507 506 506 508 508 509 509 507 507 508 508 509 509 508 508 510 510 511 511 509 509 510 510 511 511 510 510 512 512 513 513 511 511 512 512 513 513 512 512 514 514 515 515 513 513 514 514 123 123 311 311 129 129 128 128 310 310 123 123 311 311 123 123 310 310 454 454 516 516 146 146 517 517 519 519 518 518 520 520 521 521 517 517 519 519 517 517 521 521 522 522 519 519 523 523 521 521 523 523 519 519 523 523 524 524 522 522 524 524 523 523 525 525 526 526 524 524 527 527 525 525 527 527 524 524 528 528 526 526 529 529 527 527 529 529 526 526 529 529 527 527 530 530 529 529 454 454 528 528 454 454 529 529 516 516 530 530 531 531 529 529 516 516 529 529 531 531 528 528 453 453 526 526 453 453 528 528 454 454 526 526 452 452 524 524 452 452 526 526 453 453 524 524 451 451 522 522 451 451 524 524 452 452 522 522 449 449 519 519 449 449 522 522 451 451 519 519 446 446 518 518 446 446 519 519 449 449 447 447 283 283 518 518 447 447 518 518 446 446 283 283 279 279 518 518 518 518 279 279 517 517 517 517 279 279 520 520 532 532 146 146 531 531 531 531 146 146 516 516 533 533 535 535 534 534 523 523 521 521 536 536 537 537 277 277 493 493 536 536 538 538 523 523 521 521 520 520 536 536 520 520 279 279 536 536 536 536 279 279 535 535 493 493 535 535 280 280 279 279 280 280 535 535 538 538 539 539 523 523 539 539 540 540 523 523 540 540 532 532 523 523 532 532 531 531 523 523 531 531 530 530 523 523 527 527 525 525 530 530 523 523 530 530 525 525 277 277 276 276 493 493 493 493 276 276 535 535 276 276 534 534 535 535 278 278 345 345 104 104 113 113 112 112 344 344 112 112 104 104 345 345 344 344 346 346 113 113 345 345 344 344 112 112 113 113 346 346 114 114 102 102 114 114 103 103 103 103 114 114 346 346 211 211 240 240 541 541 332 332 211 211 541 541 332 332 541 541 542 542 333 333 332 332 542 542 333 333 542 542 543 543 335 335 333 333 543 543 335 335 543 543 341 341 337 337 335 335 341 341 298 298 544 544 300 300 270 270 273 273 298 298 494 494 300 300 544 544 544 544 298 298 273 273 236 236 537 537 237 237 277 277 537 537 236 236 545 545 547 547 546 546 547 547 545 545 548 548 540 540 548 548 545 545 548 548 549 549 547 547 550 550 547 547 549 549 549 549 548 548 551 551 552 552 550 550 553 553 549 549 553 553 550 550 551 551 554 554 549 549 553 553 549 549 554 554 553 553 555 555 552 552 555 555 553 553 556 556 554 554 557 557 553 553 556 556 553 553 557 557 556 556 558 558 555 555 559 559 555 555 558 558 557 557 560 560 556 556 558 558 556 556 560 560 561 561 559 559 562 562 558 558 562 562 559 559 560 560 563 563 558 558 562 562 558 558 563 563 559 559 561 561 183 183 548 548 539 539 551 551 539 539 548 548 540 540 551 551 538 538 554 554 538 538 551 551 539 539 554 554 536 536 557 557 536 536 554 554 538 538 557 557 535 535 560 560 535 535 557 557 536 536 534 534 563 563 533 533 533 533 560 560 535 535 560 560 533 533 563 563 534 534 276 276 563 563 555 555 559 559 182 182 184 184 183 183 561 561 552 552 555 555 181 181 183 183 182 182 559 559 550 550 552 552 179 179 182 182 181 181 555 555 547 547 550 550 169 169 181 181 179 179 552 552 546 546 547 547 180 180 179 179 169 169 550 550 180 180 146 146 546 546 169 169 180 180 547 547 146 146 532 532 546 546 540 540 545 545 532 532 546 546 532 532 545 545 276 276 186 186 563 563 184 184 561 561 186 186 561 561 562 562 186 186 563 563 186 186 562 562 564 564 566 566 565 565 567 567 566 566 564 564 568 568 565 565 569 569 564 564 565 565 568 568 570 570 569 569 571 571 568 568 569 569 570 570 572 572 571 571 573 573 570 570 571 571 572 572 574 574 573 573 575 575 572 572 573 573 574 574 576 576 575 575 577 577 574 574 575 575 576 576 578 578 577 577 579 579 576 576 577 577 578 578 580 580 579 579 581 581 578 578 579 579 580 580 582 582 584 584 583 583 585 585 587 587 586 586 588 588 583 583 584 584 589 589 586 586 587 587 590 590 581 581 591 591 580 580 581 581 590 590 592 592 591 591 593 593 590 590 591 591 592 592 594 594 593 593 595 595 592 592 593 593 594 594 596 596 595 595 597 597 594 594 595 595 596 596 598 598 597 597 599 599 596 596 597 597 598 598 600 600 599 599 601 601 598 598 599 599 600 600 602 602 601 601 603 603 600 600 601 601 602 602 567 567 603 603 566 566 602 602 603 603 567 567 604 604 606 606 605 605 604 604 605 605 607 607 608 608 609 609 606 606 608 608 606 606 604 604 607 607 605 605 610 610 611 611 607 607 610 610 612 612 611 611 613 613 97 97 612 612 613 613 614 614 98 98 615 615 616 616 614 614 615 615 609 609 616 616 615 615 608 608 616 616 609 609 611 611 617 617 607 607 612 612 617 617 611 611 98 98 99 99 615 615 94 94 612 612 97 97 618 618 620 620 619 619 621 621 619 619 622 622 621 621 622 622 623 623 624 624 621 621 623 623 625 625 623 623 626 626 624 624 623 623 625 625 627 627 626 626 628 628 625 625 626 626 627 627 629 629 628 628 630 630 627 627 628 628 629 629 619 619 620 620 631 631 622 622 619 619 631 631 618 618 14 14 620 620 15 15 14 14 618 618 16 16 630 630 17 17 630 630 16 16 629 629 632 632 633 633 65 65 632 632 65 65 634 634 635 635 634 634 75 75 67 67 634 634 65 65 635 635 75 75 636 636 67 67 75 75 634 634 637 637 636 636 77 77 76 76 636 636 75 75 637 637 77 77 638 638 76 76 77 77 636 636 639 639 638 638 79 79 78 78 638 638 77 77 639 639 79 79 640 640 78 78 79 79 638 638 641 641 640 640 81 81 80 80 640 640 79 79 641 641 81 81 642 642 80 80 81 81 640 640 643 643 642 642 52 52 54 54 642 642 81 81 643 643 52 52 644 644 54 54 52 52 642 642 645 645 644 644 57 57 55 55 644 644 52 52 645 645 57 57 646 646 55 55 57 57 644 644 647 647 646 646 61 61 59 59 646 646 57 57 647 647 61 61 633 633 59 59 61 61 646 646 63 63 65 65 633 633 63 63 633 633 61 61</p>
				</triangles>
			</mesh>
		</geometry>
	</library_geometries>
	<library_visual_scenes>
		<visual_scene id="VisualSceneNode" name="base1d_med">
			<node id="J5.dae" name="J5.dae">
				<instance_geometry url="#base2_M1KShape0">
					<bind_material>
						<technique_common>
							<instance_material symbol="blinn20.material" target="#blinn20.material"/>
						</technique_common>
					</bind_material>
				</instance_geometry>
			</node>
		</visual_scene>
	</library_visual_scenes>
	<scene>
		<instance_visual_scene url="#VisualSceneNode"/>
	</scene>
</COLLADA>
