<?xml version="1.0" encoding="UTF-8"?>
<COLLADA xmlns="http://www.collada.org/2008/03/COLLADASchema" version="1.5.0">
	<asset>
		<contributor>
			<author>DENSO WAVE</author>
			<comments/>
		</contributor>
		<unit/>
		<up_axis>Y_UP</up_axis>
	</asset>
	<library_materials>
		<material id="blinn20.material" name="blinn20">
			<instance_effect url="#blinn20.effect"/>
		</material>
	</library_materials>
	<library_effects>
		<effect id="blinn20.effect">
			<profile_COMMON>
				<technique sid="common">
					<phong>
						<emission>
							<color>0.04 0.04 0.04 1</color>
						</emission>
						<diffuse>
							<color>0.4 0.4 0.4 1</color>
						</diffuse>
						<specular>
							<color>0.2 0.2 0.2 1</color>
						</specular>
					</phong>
				</technique>
			</profile_COMMON>
		</effect>
	</library_effects>
	<library_geometries>
		<geometry id="base2_M1KShape0" name="base2_M1KShape0">
			<mesh>
				<source id="base2_M1KShape0.positions">
					<float_array id="base2_M1KShape0.positions-array" count="672" digits="2490374">-0.0179676 -0.00759028 0 -0.00967467 -0.004087 0 -0.0137886 -0.0137886 0 -0.0195 0 0 -0.0179676 0.00759028 0 -0.00967467 0.004087 0 -0.0104998 0 0 -0.0137886 0.0137886 0 -0.00759028 0.0179676 0 -0.004087 0.00967467 0 -0.00742448 0.00742448 0 -0.00176777 0.0139822 0 0 0.0104998 0 0.0017678 0.0175178 0 0.0075903 0.0179676 0 0.0025 0.01575 0 -0.0025 0.01575 0 0 0.01325 0 -0.00176777 0.0175178 0 0 0.0195 0 0 0.01825 0 0.0137886 0.0137886 0 0.004087 0.00967467 0 0.0017678 0.0139822 0 0.0179676 0.00759028 0 0.0096747 0.004087 0 0.0074245 0.00742448 0 0.0195 0 0 0.0179676 -0.00759028 0 0.0096747 -0.004087 0 0.0104998 0 0 0.0137886 -0.0137886 0 0.0075903 -0.0179676 0 0.004087 -0.00967467 0 0.0074245 -0.00742448 0 0 -0.0195 0 -0.00759028 -0.0179676 0 -0.004087 -0.00967467 0 0 -0.0104998 0 -0.00742448 -0.00742448 0 0.0070711 -0.00707107 -0.00400007 0.0038925 -0.00921415 -0.00400007 0.0092142 -0.00389245 -0.00400007 -0.00921415 0.00389245 -0.00400007 0.01 0 -0.00400007 -0.01 0 -0.00400007 0.0092142 0.00389245 -0.00400007 0.0070711 0.00707107 -0.00400007 0.0038925 0.00921415 -0.00400007 0 0.01 -0.00400007 -0.00389245 0.00921415 -0.00400007 -0.00707107 0.00707107 -0.00400007 -0.00921415 -0.00389245 -0.00400007 -0.00707107 -0.00707107 -0.00400007 -0.00389245 -0.00921415 -0.00400007 0 -0.01 -0.00400007 0.01 0 -0.000500083 0.0096747 0.004087 0 0.0104998 0 0 0.0092142 0.00389245 -0.000500083 0.0074245 0.00742448 0 0.0070711 0.00707107 -0.000500083 0.004087 0.00967467 0 0.0038925 0.00921415 -0.000500083 0 0.0104998 0 0 0.01 -0.000500083 -0.004087 0.00967467 0 -0.00389245 0.00921415 -0.000500083 -0.00742448 0.00742448 0 -0.00707107 0.00707107 -0.000500083 -0.00967467 0.004087 0 -0.00921415 0.00389245 -0.000500083 -0.0104998 0 0 -0.01 0 -0.000500083 -0.00921415 -0.00389245 -0.00400007 -0.00921415 -0.00389245 -0.000500083 -0.01 0 -0.000500083 -0.01 0 -0.00400007 -0.00707107 -0.00707107 -0.00400007 -0.00707107 -0.00707107 -0.000500083 -0.00389245 -0.00921415 -0.00400007 -0.00389245 -0.00921415 -0.000500083 0 -0.01 -0.00400007 0 -0.01 -0.000500083 0.0038925 -0.00921415 -0.00400007 0.0038925 -0.00921415 -0.000500083 0.0070711 -0.00707107 -0.00400007 0.0070711 -0.00707107 -0.000500083 0.0092142 -0.00389245 -0.00400007 0.0092142 -0.00389245 -0.000500083 0.01 0 -0.00400007 0.01 0 -0.000500083 0.0096747 -0.004087 0 0.0092142 -0.00389245 -0.000500083 0.0074245 -0.00742448 0 0.0070711 -0.00707107 -0.000500083 0.004087 -0.00967467 0 0.0038925 -0.00921415 -0.000500083 0 -0.0104998 0 0 -0.01 -0.000500083 -0.004087 -0.00967467 0 -0.00389245 -0.00921415 -0.000500083 -0.00742448 -0.00742448 0 -0.00707107 -0.00707107 -0.000500083 -0.00967467 -0.004087 0 -0.00921415 -0.00389245 -0.000500083 -0.00921415 0.00389245 -0.00400007 -0.00921415 0.00389245 -0.000500083 -0.00707107 0.00707107 -0.00400007 -0.00707107 0.00707107 -0.000500083 -0.00389245 0.00921415 -0.00400007 -0.00389245 0.00921415 -0.000500083 0 0.01 -0.00400007 0 0.01 -0.000500083 0.0038925 0.00921415 -0.00400007 0.0038925 0.00921415 -0.000500083 0.0070711 0.00707107 -0.00400007 0.0070711 0.00707107 -0.000500083 0.0092142 0.00389245 -0.00400007 0.0092142 0.00389245 -0.000500083 0.0179676 0.00759028 0 0.0184283 0.0077849 -0.000869989 0.02 0 -0.000869989 0.0195 0 0 0.0137886 0.0137886 0 0.0141421 0.0141421 -0.000869989 0.0075903 0.0179676 0 0.0077849 0.0184283 -0.000869989 0 0.0195 0 0 0.02 -0.000869989 -0.00759028 0.0179676 0 -0.0077849 0.0184283 -0.000869989 -0.0137886 0.0137886 0 -0.0141421 0.0141421 -0.000869989 -0.0179676 0.00759028 0 -0.0184283 0.0077849 -0.000869989 -0.0195 0 0 -0.02 0 -0.000869989 0.0017678 0.0139822 -0.00569999 0 0.01325 -0.00569999 -0.0025 0.01575 -0.00569999 -0.00176777 0.0175178 -0.00569999 0.0025 0.01575 -0.00569999 0.0017678 0.0175178 -0.00569999 0 0.01825 -0.00569999 -0.00176777 0.0139822 -0.00569999 -0.00176777 0.0139822 -0.00569999 -0.00176777 0.0139822 0 -0.0025 0.01575 0 -0.0025 0.01575 -0.00569999 0 0.01325 -0.00569999 0 0.01325 0 0.0017678 0.0139822 -0.00569999 0.0017678 0.0139822 0 0.0025 0.01575 -0.00569999 0.0025 0.01575 0 0.0017678 0.0175178 -0.00569999 0.0017678 0.0175178 0 0 0.01825 -0.00569999 0 0.01825 0 -0.00176777 0.0175178 -0.00569999 -0.00176777 0.0175178 0 0.0141421 0.0141421 -0.02 0.0077849 0.0184283 -0.02 0.0184283 0.0077849 -0.02 -0.0184283 -0.0077849 -0.02 0.02 0 -0.02 -0.02 0 -0.02 0.0184283 -0.0077849 -0.02 0.0141421 -0.0141421 -0.02 0.0077849 -0.0184283 -0.02 0 -0.02 -0.02 -0.0077849 -0.0184283 -0.02 -0.0141421 -0.0141421 -0.02 -0.0184283 0.0077849 -0.02 -0.0141421 0.0141421 -0.02 -0.0077849 0.0184283 -0.02 0 0.02 -0.02 -0.0184283 0.0077849 -0.02 -0.0184283 0.0077849 -0.000869989 -0.02 0 -0.000869989 -0.02 0 -0.02 -0.0141421 0.0141421 -0.02 -0.0141421 0.0141421 -0.000869989 -0.0077849 0.0184283 -0.02 -0.0077849 0.0184283 -0.000869989 0 0.02 -0.02 0 0.02 -0.000869989 0.0077849 0.0184283 -0.02 0.0077849 0.0184283 -0.000869989 0.0141421 0.0141421 -0.02 0.0141421 0.0141421 -0.000869989 0.0184283 0.0077849 -0.02 0.0184283 0.0077849 -0.000869989 0.02 0 -0.02 0.02 0 -0.000869989 0.0184283 -0.0077849 -0.02 0.0184283 -0.0077849 -0.000869989 0.0141421 -0.0141421 -0.02 0.0141421 -0.0141421 -0.000869989 0.0077849 -0.0184283 -0.02 0.0077849 -0.0184283 -0.000869989 0 -0.02 -0.02 0 -0.02 -0.000869989 -0.0077849 -0.0184283 -0.02 -0.0077849 -0.0184283 -0.000869989 -0.0141421 -0.0141421 -0.02 -0.0141421 -0.0141421 -0.000869989 -0.0184283 -0.0077849 -0.02 -0.0184283 -0.0077849 -0.000869989 -0.0179676 -0.00759028 0 -0.0184283 -0.0077849 -0.000869989 -0.0137886 -0.0137886 0 -0.0141421 -0.0141421 -0.000869989 -0.00759028 -0.0179676 0 -0.0077849 -0.0184283 -0.000869989 0 -0.0195 0 0 -0.02 -0.000869989 0.0075903 -0.0179676 0 0.0077849 -0.0184283 -0.000869989 0.0137886 -0.0137886 0 0.0141421 -0.0141421 -0.000869989 0.0179676 -0.00759028 0 0.0184283 -0.0077849 -0.000869989</float_array>
					<technique_common>
						<accessor count="224" source="#base2_M1KShape0.positions-array" stride="3">
							<param name="X" type="float"/>
							<param name="Y" type="float"/>
							<param name="Z" type="float"/>
						</accessor>
					</technique_common>
				</source>
				<source id="base2_M1KShape0.normals">
					<float_array id="base2_M1KShape0.normals-array" count="672" digits="2490374">0 0 1 0 0 1 0 0 1 0 0 1 0 0 1 0 0 1 0 0 1 0 0 1 0 0 1 0 0 1 0 0 1 0 0 1 0 0 1 0 0 1 0 0 1 0 0 1 0 0 1 0 0 1 0 0 1 0 0 1 0 0 1 0 0 1 0 0 1 0 0 1 0 0 1 0 0 1 0 0 1 0 0 1 0 0 1 0 0 1 0 0 1 0 0 1 0 0 1 0 0 1 0 0 1 0 0 1 0 0 1 0 0 1 0 0 1 0 0 1 0 0 1 0 0 1 0 0 1 0 0 1 0 0 1 0 0 1 0 0 1 0 0 1 0 0 1 0 0 1 0 0 1 0 0 1 0 0 1 0 0 1 0 0 1 0 0 1 -0.707107 -8e-06 0.707107 -0.651142 -0.27541 0.707223 -0.707107 0 0.707107 -0.65114 -0.275414 0.707223 -0.499976 -0.499976 0.707141 -0.499976 -0.499976 0.707141 -0.275408 -0.651138 0.707227 -0.275411 -0.651137 0.707227 0 -0.7071 0.707114 -7e-06 -0.7071 0.707114 0.27543 -0.651189 0.707172 0.275421 -0.651192 0.707172 0.500046 -0.500046 0.707041 0.500039 -0.500054 0.707041 0.651262 -0.27546 0.707093 0.651258 -0.27547 0.707093 0.707248 -0 0.706965 0.707248 -8e-06 0.706965 0.921004 0.389552 0 0.921004 0.389552 0 1 -0 0 1 -0 0 0.707107 0.707107 0 0.707107 0.707107 0 0.389552 0.921004 0 0.389552 0.921004 0 0 1 -0 0 1 -0 -0.389552 0.921004 -0 -0.389552 0.921004 -0 -0.707107 0.707107 -0 -0.707107 0.707107 -0 -0.921004 0.389552 -0 -0.921004 0.389552 -0 -1 0 -0 -1 0 -0 -0.651142 0.27541 0.707223 -0.65114 0.275414 0.707223 -0.499975 0.499976 0.707141 -0.499975 0.499976 0.707141 -0.275408 0.651138 0.707227 -0.275411 0.651137 0.707227 0 0.7071 0.707114 -7e-06 0.7071 0.707114 0.27543 0.651189 0.707172 0.275421 0.651192 0.707172 0.500046 0.500046 0.707041 0.500039 0.500054 0.707041 0.651262 0.27546 0.707093 0.651258 0.27547 0.707093 0.921004 -0.389552 0 0.921004 -0.389552 0 0.707107 -0.707107 0 0.707107 -0.707107 0 0.389552 -0.921004 0 0.389552 -0.921004 0 -0 -1 -0 -0 -1 -0 -0.389552 -0.921004 -0 -0.389552 -0.921004 -0 -0.707107 -0.707107 -0 -0.707107 -0.707107 -0 -0.921004 -0.389552 -0 -0.921004 -0.389552 -0 0.797579 0.337347 0.500065 0.797579 0.337347 0.500065 0.866044 -0 0.499968 0.866044 -0 0.499968 0.612386 0.612386 0.499968 0.612386 0.612386 0.499968 0.337347 0.797579 0.500065 0.337347 0.797579 0.500065 -0 0.866044 0.499968 -0 0.866044 0.499968 -0.337347 0.797579 0.500065 -0.337347 0.797579 0.500065 -0.612386 0.612386 0.499968 -0.612386 0.612386 0.499968 -0.797579 0.337347 0.500065 -0.797579 0.337347 0.500065 -0.866044 0 0.499968 -0.866044 0 0.499968 0 0 1 0 0 1 0 0 1 0 0 1 0 0 1 0 0 1 0 0 1 0 0 1 0.707107 0.707107 0 0.707107 0.707107 0 1 -0 0 1 -0 0 0 1 -0 0 1 -0 -0.707107 0.707107 -0 -0.707107 0.707107 -0 -1 0 -0 -1 0 -0 -0.707107 -0.707107 -0 -0.707107 -0.707107 -0 -0 -1 -0 -0 -1 -0 0.707107 -0.707107 0 0.707107 -0.707107 0 0 0 -1 0 0 -1 0 0 -1 0 0 -1 0 0 -1 0 0 -1 0 0 -1 0 0 -1 0 0 -1 0 0 -1 0 0 -1 0 0 -1 0 0 -1 0 0 -1 0 0 -1 0 0 -1 -0.921004 0.389552 -0 -0.921004 0.389552 -0 -1 0 -0 -1 0 -0 -0.707107 0.707107 -0 -0.707107 0.707107 -0 -0.389552 0.921004 -0 -0.389552 0.921004 -0 0 1 -0 0 1 -0 0.389552 0.921004 0 0.389552 0.921004 0 0.707107 0.707107 0 0.707107 0.707107 0 0.921004 0.389552 0 0.921004 0.389552 0 1 -0 0 1 -0 0 0.921004 -0.389552 0 0.921004 -0.389552 0 0.707107 -0.707107 0 0.707107 -0.707107 0 0.389552 -0.921004 0 0.389552 -0.921004 0 -0 -1 -0 -0 -1 -0 -0.389552 -0.921004 -0 -0.389552 -0.921004 -0 -0.707107 -0.707107 -0 -0.707107 -0.707107 -0 -0.921004 -0.389552 -0 -0.921004 -0.389552 -0 -0.797579 -0.337347 0.500065 -0.797579 -0.337347 0.500065 -0.612386 -0.612386 0.499968 -0.612386 -0.612386 0.499968 -0.337347 -0.797579 0.500065 -0.337347 -0.797579 0.500065 0 -0.866044 0.499968 0 -0.866044 0.499968 0.337347 -0.797579 0.500065 0.337347 -0.797579 0.500065 0.612386 -0.612386 0.499968 0.612386 -0.612386 0.499968 0.797579 -0.337347 0.500065 0.797579 -0.337347 0.500065</float_array>
					<technique_common>
						<accessor count="224" source="#base2_M1KShape0.normals-array" stride="3">
							<param name="X" type="float"/>
							<param name="Y" type="float"/>
							<param name="Z" type="float"/>
						</accessor>
					</technique_common>
				</source>
				<vertices id="base2_M1KShape0.vertices">
					<input semantic="POSITION" source="#base2_M1KShape0.positions"/>
				</vertices>
				<triangles count="220" material="blinn20.material">
					<input offset="0" semantic="VERTEX" source="#base2_M1KShape0.vertices" set="0"/>
					<input offset="1" semantic="NORMAL" source="#base2_M1KShape0.normals" set="0"/>
					<p>0 0 2 2 1 1 0 0 1 1 3 3 4 4 3 3 5 5 6 6 3 3 1 1 4 4 5 5 7 7 6 6 5 5 3 3 8 8 7 7 9 9 10 10 7 7 5 5 9 9 12 12 11 11 10 10 9 9 7 7 13 13 15 15 14 14 8 8 9 9 16 16 17 17 11 11 12 12 16 16 18 18 8 8 11 11 16 16 9 9 8 8 18 18 19 19 20 20 13 13 19 19 20 20 19 19 18 18 14 14 19 19 13 13 14 14 22 22 21 21 14 14 15 15 22 22 17 17 12 12 23 23 23 23 22 22 15 15 22 22 23 23 12 12 24 24 21 21 25 25 26 26 21 21 22 22 24 24 25 25 27 27 26 26 25 25 21 21 28 28 27 27 29 29 30 30 27 27 25 25 28 28 29 29 31 31 30 30 29 29 27 27 32 32 31 31 33 33 34 34 31 31 29 29 32 32 33 33 35 35 34 34 33 33 31 31 36 36 35 35 37 37 38 38 35 35 33 33 36 36 37 37 2 2 38 38 37 37 35 35 39 39 1 1 2 2 39 39 2 2 37 37 40 40 42 42 41 41 42 42 44 44 43 43 43 43 45 45 42 42 44 44 46 46 43 43 46 46 47 47 43 43 47 47 48 48 43 43 48 48 49 49 43 43 49 49 50 50 43 43 51 51 43 43 50 50 45 45 52 52 42 42 52 52 53 53 42 42 53 53 54 54 42 42 54 54 55 55 42 42 55 55 41 41 42 42 56 56 58 58 57 57 59 59 56 56 57 57 59 59 57 57 60 60 61 61 59 59 60 60 61 61 60 60 62 62 63 63 61 61 62 62 63 63 62 62 64 64 65 65 63 63 64 64 65 65 64 64 66 66 67 67 65 65 66 66 67 67 66 66 68 68 69 69 67 67 68 68 69 69 68 68 70 70 71 71 69 69 70 70 71 71 70 70 72 72 73 73 71 71 72 72 74 74 76 76 75 75 77 77 76 76 74 74 78 78 75 75 79 79 74 74 75 75 78 78 80 80 79 79 81 81 78 78 79 79 80 80 82 82 81 81 83 83 80 80 81 81 82 82 84 84 83 83 85 85 82 82 83 83 84 84 86 86 85 85 87 87 84 84 85 85 86 86 88 88 87 87 89 89 86 86 87 87 88 88 90 90 89 89 91 91 88 88 89 89 90 90 92 92 56 56 93 93 58 58 56 56 92 92 94 94 93 93 95 95 92 92 93 93 94 94 96 96 95 95 97 97 94 94 95 95 96 96 98 98 97 97 99 99 96 96 97 97 98 98 100 100 99 99 101 101 98 98 99 99 100 100 102 102 101 101 103 103 100 100 101 101 102 102 104 104 103 103 105 105 102 102 103 103 104 104 72 72 105 105 73 73 104 104 105 105 72 72 76 76 77 77 106 106 107 107 76 76 106 106 107 107 106 106 108 108 109 109 107 107 108 108 109 109 108 108 110 110 111 111 109 109 110 110 111 111 110 110 112 112 113 113 111 111 112 112 113 113 112 112 114 114 115 115 113 113 114 114 115 115 114 114 116 116 117 117 115 115 116 116 117 117 116 116 118 118 119 119 117 117 118 118 119 119 118 118 90 90 91 91 119 119 90 90 120 120 122 122 121 121 123 123 122 122 120 120 124 124 121 121 125 125 120 120 121 121 124 124 126 126 125 125 127 127 124 124 125 125 126 126 128 128 127 127 129 129 126 126 127 127 128 128 130 130 129 129 131 131 128 128 129 129 130 130 132 132 131 131 133 133 130 130 131 131 132 132 134 134 133 133 135 135 132 132 133 133 134 134 136 136 135 135 137 137 134 134 135 135 136 136 138 138 140 140 139 139 138 138 142 142 141 141 141 141 140 140 138 138 142 142 143 143 141 141 144 144 141 141 143 143 145 145 139 139 140 140 146 146 148 148 147 147 149 149 148 148 146 146 150 150 147 147 151 151 146 146 147 147 150 150 152 152 151 151 153 153 150 150 151 151 152 152 154 154 153 153 155 155 152 152 153 153 154 154 156 156 155 155 157 157 154 154 155 155 156 156 158 158 157 157 159 159 156 156 157 157 158 158 160 160 159 159 161 161 158 158 159 159 160 160 149 149 161 161 148 148 160 160 161 161 149 149 162 162 164 164 163 163 164 164 166 166 165 165 165 165 167 167 164 164 166 166 168 168 165 165 168 168 169 169 165 165 169 169 170 170 165 165 170 170 171 171 165 165 171 171 172 172 165 165 173 173 165 165 172 172 167 167 174 174 164 164 174 174 175 175 164 164 175 175 176 176 164 164 176 176 177 177 164 164 177 177 163 163 164 164 178 178 180 180 179 179 181 181 180 180 178 178 182 182 179 179 183 183 178 178 179 179 182 182 184 184 183 183 185 185 182 182 183 183 184 184 186 186 185 185 187 187 184 184 185 185 186 186 188 188 187 187 189 189 186 186 187 187 188 188 190 190 189 189 191 191 188 188 189 189 190 190 192 192 191 191 193 193 190 190 191 191 192 192 194 194 193 193 195 195 192 192 193 193 194 194 196 196 195 195 197 197 194 194 195 195 196 196 198 198 197 197 199 199 196 196 197 197 198 198 200 200 199 199 201 201 198 198 199 199 200 200 202 202 201 201 203 203 200 200 201 201 202 202 204 204 203 203 205 205 202 202 203 203 204 204 206 206 205 205 207 207 204 204 205 205 206 206 208 208 207 207 209 209 206 206 207 207 208 208 181 181 209 209 180 180 208 208 209 209 181 181 210 210 137 137 211 211 136 136 137 137 210 210 212 212 211 211 213 213 210 210 211 211 212 212 214 214 213 213 215 215 212 212 213 213 214 214 216 216 215 215 217 217 214 214 215 215 216 216 218 218 217 217 219 219 216 216 217 217 218 218 220 220 219 219 221 221 218 218 219 219 220 220 222 222 221 221 223 223 220 220 221 221 222 222 123 123 223 223 122 122 222 222 223 223 123 123</p>
				</triangles>
			</mesh>
		</geometry>
	</library_geometries>
	<library_visual_scenes>
		<visual_scene id="VisualSceneNode" name="base1d_med">
			<node id="J6.dae" name="J6.dae">
				<instance_geometry url="#base2_M1KShape0">
					<bind_material>
						<technique_common>
							<instance_material symbol="blinn20.material" target="#blinn20.material"/>
						</technique_common>
					</bind_material>
				</instance_geometry>
			</node>
		</visual_scene>
	</library_visual_scenes>
	<scene>
		<instance_visual_scene url="#VisualSceneNode"/>
	</scene>
</COLLADA>
